SplineFontDB: 1.0
FontName: FreeSerifBold
FullName: Free Serif Bold
FamilyName: FreeSerif
Weight: Bold
Copyright: Copyleft 2002, 2003 Free Software Foundation.
Version: $Revision: 1.7 $
ItalicAngle: 0
UnderlinePosition: -100
UnderlineWidth: 50
Ascent: 800
Descent: 200
NeedsXUIDChange: 1
FSType: 0
PfmFamily: 17
TTFWeight: 700
TTFWidth: 5
Panose: 2 2 8 3 7 5 5 2 3 4
LineGap: 90
VLineGap: 0
ScriptLang: 2
 1 latn 1 dflt 
 1 DFLT 1 dflt 
LangName: 1033 "" "" "" "" "" "" "" "" "" "" "" "" "" "The use of this font is granted subject to GNU General Public License." "http://www.gnu.org/copyleft/gpl.html" "" "" "" "" "The quick brown fox jumps over the lazy dog." 
LangName: 1060 "" "" "polkrepko" "" "" "" "" "" "" "" "" "" "" "Dovoljena je uporaba v skladu z licenco GNU General Public License." "http://www.gnu.org/copyleft/gpl.html" "" "" "" "" "+AWAA-erif bo za vajo spet kuhal doma+AQ0A-e +AX4A-gance." 
Encoding: unicode
DisplaySize: -36
AntiAlias: 1
FitToEm: 1
WinInfo: 720 16 14
BeginPrivate: 8
UniqueID 7 5020933
BlueValues 23 [-20 0 461 481 676 696]
BlueScale 8 0.039625
StdHW 4 [33]
StdVW 5 [140]
StemSnapH 200 [33 44 48 55 66 73] 
systemdict /internaldict known
{1183615869 systemdict /internaldict get exec
/StemSnapLength 2 copy known { get 6 lt } { pop pop true } ifelse }
{ true } ifelse { pop [33 66] } if
StemSnapV 208 [118 140 148 163 174 178] 
systemdict /internaldict known
{1183615869 systemdict /internaldict get exec
/StemSnapLength 2 copy known { get 6 lt } { pop pop true } ifelse }
{ true } ifelse { pop [140 163] } if
ForceBold 5 false
EndPrivate
BeginChars: 65536 1546
StartChar: exclam
Encoding: 33 33 1
Width: 333
Flags: MW
HStem: -13 169<143 189> 234 457<151 180 151 151>
VStem: 82 169<48 93.5>
Fore
166 156 m 0
 213 156 251 117 251 70 c 0
 251 24 213 -13 165 -13 c 0
 118 -13 82 24 82 72 c 0
 82 117 120 156 166 156 c 0
180 234 m 1
 151 234 l 1
 138 357 128 407 99 502 c 0
 85 547 81 566 81 591 c 0
 81 654 112 691 166 691 c 0
 219 691 250 654 250 589 c 0
 250 566 246 546 232 502 c 0
 202 406 193 357 180 234 c 1
EndSplineSet
EndChar
StartChar: quotedbl
Encoding: 34 34 2
Width: 555
Flags: MW
HStem: 404 287<128 165.5 388 425.5>
VStem: 83 129<613 641.5> 343 129<613 641.5>
Fore
168 404 m 1
 127 404 l 1
 122 426 118 445 116 452 c 0
 95 535 83 599 83 620 c 0
 83 663 109 691 147 691 c 0
 184 691 212 662 212 624 c 0
 212 602 202 551 168 404 c 1
428 404 m 1
 387 404 l 1
 382 425 377 445 376 452 c 0
 355 536 343 599 343 620 c 0
 343 663 369 691 407 691 c 0
 444 691 472 662 472 624 c 0
 472 602 459 537 428 404 c 1
EndSplineSet
EndChar
StartChar: numbersign
Encoding: 35 35 3
Width: 500
Flags: W
HStem: 0 21<71 149 71 71 262 340 262 262> 210 73<4 100 189 291 380 467> 417 283<207 207 207 217 398 398 398 408> 417 73<33 129 217 320 408 496> 417 283
VStem: 4 463<210 283> 33 463<417 490>
Fore
467 283 m 1
 467 210 l 1
 369 210 l 1
 340 0 l 1
 262 0 l 1
 291 210 l 1
 178 210 l 1
 149 0 l 1
 71 0 l 1
 100 210 l 1
 4 210 l 1
 4 283 l 1
 111 283 l 1
 129 417 l 1
 33 417 l 1
 33 490 l 1
 139 490 l 1
 169 700 l 1
 246 700 l 1
 217 490 l 1
 330 490 l 1
 360 700 l 1
 437 700 l 1
 408 490 l 1
 496 490 l 1
 496 417 l 1
 398 417 l 1
 380 283 l 1
 467 283 l 1
320 417 m 1
 207 417 l 1
 189 283 l 1
 302 283 l 1
 320 417 l 1
EndSplineSet
EndChar
StartChar: dollar
Encoding: 36 36 4
Width: 500
Flags: MW
HStem: -99 849<214 269>
VStem: 29 95 214 55<-99 0 674 750> 362 110
Fore
428 481 m 1
 407 481 l 1
 378 581 340 625 269 641 c 1
 269 426 l 1
 366 376 396 356 431 316 c 0
 457 287 472 244 472 196 c 0
 472 140 455 95 422 63 c 0
 390 32 351 15 269 0 c 1
 269 -99 l 1
 214 -99 l 1
 214 0 l 1
 152 3 128 9 46 43 c 1
 46 199 l 1
 67 197 l 1
 99 89 139 44 213 30 c 1
 213 281 l 1
 79 348 29 407 29 496 c 0
 29 559 60 612 115 644 c 0
 146 661 168 667 214 672 c 1
 214 750 l 1
 269 750 l 1
 269 674 l 1
 347 661 381 650 428 622 c 1
 428 481 l 1
269 250 m 1
 269 30 l 1
 332 42 362 75 362 134 c 0
 362 188 349 205 269 250 c 1
213 454 m 1
 213 644 l 1
 150 628 124 602 124 554 c 0
 124 508 153 475 213 454 c 1
EndSplineSet
EndChar
StartChar: percent
Encoding: 37 37 5
Width: 1000
Flags: W
HStem: -14 46<685 690> 294 46<271 283> 321 51<779 796> 585 38<505 529>
VStem: 432 32 535 117<83 108.5> 844 33<229 269.5>
Fore
761 372 m 0
 831 372 877 327 877 257 c 0
 877 179 843 95 789 39 c 0
 758 6 712 -14 668 -14 c 0
 588 -14 535 41 535 125 c 0
 535 248 648 372 761 372 c 0
792 321 m 0
 766 321 744 305 719 269 c 0
 686 220 652 129 652 88 c 0
 652 52 669 32 701 32 c 0
 738 32 773 61 803 116 c 0
 831 166 844 209 844 249 c 0
 844 290 822 321 792 321 c 0
728 692 m 1
 334 -8 l 1
 279 -8 l 1
 627 612 l 1
 585 594 546 585 512 585 c 0
 498 585 486 586 465 590 c 1
 464 501 448 445 406 383 c 0
 366 325 313 294 253 294 c 0
 177 294 124 350 124 430 c 0
 124 558 234 678 350 678 c 0
 375 678 398 670 425 651 c 0
 456 629 477 623 518 623 c 0
 579 623 653 650 675 681 c 0
 680 688 685 692 690 692 c 2
 728 692 l 1
371 631 m 0
 355 633 330 612 309 581 c 0
 274 529 241 442 238 396 c 0
 236 364 256 340 286 340 c 0
 318 340 345 359 374 401 c 0
 410 454 432 519 432 569 c 0
 432 591 424 604 403 613 c 0
 397 615 396 616 387 623 c 0
 378 629 375 630 371 631 c 0
EndSplineSet
EndChar
StartChar: ampersand
Encoding: 38 38 6
Width: 833
Flags: MW
HStem: -16 101 395 24 658 32
VStem: 62 139 206 117 467 101<537.5 566.5> 577 206<395 419>
Fore
577 419 m 1
 783 419 l 1
 783 395 l 1
 740 391 728 384 710 355 c 2
 683 311 l 2
 656 268 645 252 590 176 c 1
 646 104 671 85 709 85 c 0
 733 85 750 96 767 123 c 1
 787 111 l 1
 771 85 l 2
 746 44 733 28 717 15 c 0
 693 -3 655 -16 624 -16 c 0
 571 -16 535 6 475 72 c 1
 393 11 327 -15 253 -15 c 0
 141 -15 62 58 62 161 c 0
 62 255 116 318 258 388 c 1
 218 457 206 489 206 533 c 0
 206 630 281 691 401 691 c 0
 502 691 568 643 568 569 c 0
 568 506 522 462 416 423 c 1
 567 209 l 1
 625 281 643 314 643 354 c 0
 643 383 636 388 577 395 c 1
 577 419 l 1
323 286 m 2
 275 358 l 1
 220 326 201 301 201 264 c 0
 201 212 230 148 273 103 c 0
 298 77 332 61 362 61 c 0
 388 61 413 72 452 100 c 1
 420 142 398 174 323 286 c 2
397 452 m 1
 447 469 467 492 467 533 c 0
 467 600 424 658 375 658 c 0
 343 658 323 637 323 602 c 0
 323 561 344 518 397 452 c 1
EndSplineSet
EndChar
StartChar: quotesingle
Encoding: 39 39 7
Width: 278
Flags: MW
HStem: 404 287<120 157.5>
VStem: 75 129<613 641.5>
Fore
160 404 m 1
 119 404 l 1
 114 425 109 445 108 452 c 0
 87 535 75 599 75 620 c 0
 75 663 101 691 139 691 c 0
 176 691 204 662 204 624 c 0
 204 602 193 548 160 404 c 1
EndSplineSet
EndChar
StartChar: parenleft
Encoding: 40 40 8
Width: 333
Flags: MW
VStem: 46 113<213.5 323.5>
Fore
306 694 m 1
 306 667 l 1
 246 627 222 601 201 557 c 0
 173 497 159 396 159 258 c 0
 159 121 173 29 203 -33 c 0
 224 -78 249 -104 306 -140 c 1
 306 -168 l 1
 208 -109 165 -69 119 3 c 0
 71 79 46 168 46 259 c 0
 46 388 92 507 177 599 c 0
 216 640 244 661 306 694 c 1
EndSplineSet
EndChar
StartChar: parenright
Encoding: 41 41 9
Width: 333
Flags: MW
VStem: 174 113<202 312>
Fore
27 -168 m 1
 27 -141 l 1
 87 -101 112 -75 132 -31 c 0
 160 29 174 130 174 268 c 0
 174 404 160 497 130 559 c 0
 109 604 84 629 27 666 c 1
 27 694 l 1
 125 635 168 595 214 523 c 0
 262 447 287 358 287 266 c 0
 287 138 241 19 155 -73 c 0
 117 -114 89 -135 27 -168 c 1
EndSplineSet
EndChar
StartChar: asterisk
Encoding: 42 42 10
Width: 500
Flags: W
HStem: 339 106<114 117.5> 503 106
VStem: 203 99<295 313> 243 19
Fore
278 476 m 1
 278 468 l 1
 314 451 329 447 374 443 c 0
 428 439 447 425 447 392 c 0
 447 364 426 342 398 342 c 0
 371 342 355 355 323 404 c 1
 303 432 295 439 266 454 c 1
 259 449 l 1
 264 404 268 389 288 349 c 0
 299 328 302 319 302 307 c 0
 302 278 280 255 251 255 c 128
 222 255 203 278 203 312 c 0
 203 328 206 337 218 359 c 0
 238 393 240 403 241 449 c 1
 234 454 l 1
 196 426 188 418 161 379 c 0
 141 348 128 339 107 339 c 0
 79 339 57 361 57 389 c 0
 57 426 86 445 142 445 c 1
 184 447 194 450 226 472 c 1
 226 479 l 1
 186 497 170 501 124 505 c 0
 72 509 56 521 56 557 c 0
 56 586 75 606 104 606 c 0
 131 606 146 595 167 561 c 0
 192 521 198 515 236 494 c 1
 243 497 l 1
 242 539 239 550 218 588 c 0
 204 614 200 624 200 641 c 0
 200 669 222 691 252 691 c 0
 280 691 300 669 300 636 c 0
 300 621 297 611 284 588 c 0
 267 560 262 541 262 516 c 2
 262 497 l 1
 270 494 l 1
 307 523 315 533 341 570 c 0
 361 601 373 609 395 609 c 0
 422 609 447 585 447 559 c 0
 447 541 431 519 411 510 c 0
 399 505 390 503 366 503 c 0
 323 501 311 497 278 476 c 1
EndSplineSet
EndChar
StartChar: plus
Encoding: 43 43 11
Width: 570
Flags: MW
HStem: 0 21<241 329 241 241> 209 88<33 241 329 537>
VStem: 241 88<0 209 297 506>
Fore
241 297 m 1
 241 506 l 1
 329 506 l 1
 329 297 l 1
 537 297 l 1
 537 209 l 1
 329 209 l 1
 329 0 l 1
 241 0 l 1
 241 209 l 1
 33 209 l 1
 33 297 l 1
 241 297 l 1
EndSplineSet
EndChar
StartChar: comma
Encoding: 44 44 12
Width: 250
Flags: MW
HStem: -6 161<97 114.5>
VStem: 39 184<49 73.5>
Fore
57 -180 m 1
 46 -158 l 1
 121 -106 155 -64 155 -26 c 0
 155 -13 147 -4 136 -4 c 0
 134 -4 132 -4 129 -5 c 0
 123 -6 117 -6 112 -6 c 0
 69 -6 39 26 39 72 c 0
 39 122 72 155 122 155 c 0
 182 155 223 108 223 39 c 0
 223 -47 173 -113 57 -180 c 1
EndSplineSet
KernsSLIF: 63196 -12 1 0 8221 9 1 0 8217 -23 1 0
EndChar
StartChar: hyphen
Encoding: 45 45 13
Width: 333
Flags: MW
HStem: 171 116<44 287>
VStem: 44 243<171 287>
Fore
287 287 m 1
 287 171 l 1
 44 171 l 1
 44 287 l 1
 287 287 l 1
EndSplineSet
KernsSLIF: 65 -18 1 0 198 -24 1 0 193 -18 1 0 196 -18 1 0 197 -18 1 0 84 -74 1 0 86 -72 1 0 87 -54 1 0 89 -83 1 0
EndChar
StartChar: period
Encoding: 46 46 14
Width: 250
Flags: MW
HStem: -13 169<102 148>
VStem: 41 169<48 93.5>
Fore
125 156 m 0
 172 156 210 117 210 70 c 0
 210 24 172 -13 124 -13 c 0
 77 -13 41 24 41 72 c 0
 41 117 79 156 125 156 c 0
EndSplineSet
KernsSLIF: 63196 -21 1 0 8221 5 1 0 8217 -27 1 0
EndChar
StartChar: slash
Encoding: 47 47 15
Width: 278
Flags: MW
HStem: 671 20<212 302 302 302>
Fore
302 691 m 1
 66 -19 l 1
 -24 -19 l 1
 212 691 l 1
 302 691 l 1
EndSplineSet
EndChar
StartChar: zero
Encoding: 48 48 16
Width: 500
Flags: MW
HStem: -13 28<226 262.5> 660 28<225 273.5>
VStem: 24 158<237 381.5> 318 158<236.5 437>
Fore
250 688 m 0
 379 688 476 537 476 337 c 0
 476 136 380 -13 251 -13 c 0
 118 -13 24 134 24 340 c 0
 24 423 46 517 78 572 c 0
 119 644 185 688 250 688 c 0
318 222 m 2
 318 451 l 2
 318 598 298 660 249 660 c 0
 201 660 182 602 182 451 c 2
 182 222 l 2
 182 74 201 15 251 15 c 0
 274 15 290 29 301 58 c 0
 310 85 318 163 318 222 c 2
EndSplineSet
EndChar
StartChar: one
Encoding: 49 49 17
Width: 500
Flags: W
HStem: 0 24 668 20<317 334 334 334>
VStem: 67 375<0 24> 186 148<124 509 509 532.5>
Fore
317 688 m 1
 334 688 l 1
 334 118 l 2
 334 41 351 26 442 24 c 1
 442 0 l 1
 67 0 l 1
 67 24 l 1
 166 25 186 42 186 124 c 2
 186 509 l 2
 186 556 175 578 150 578 c 0
 137 578 112 571 85 561 c 0
 82 559 74 556 65 553 c 1
 65 579 l 1
 317 688 l 1
EndSplineSet
EndChar
StartChar: two
Encoding: 50 50 18
Width: 500
Flags: MW
HStem: 0 133<160 311 311 362> 574 114
VStem: 300 136
Fore
478 211 m 1
 433 0 l 1
 17 0 l 1
 17 23 l 1
 163 179 198 221 249 299 c 0
 281 348 300 403 300 447 c 0
 300 470 292 498 280 519 c 0
 258 555 225 574 181 574 c 0
 127 574 90 546 59 484 c 1
 31 484 l 1
 59 559 79 593 118 632 c 0
 153 668 201 688 251 688 c 0
 359 688 436 612 436 505 c 0
 436 429 401 362 322 287 c 2
 160 133 l 1
 311 133 l 2
 413 133 425 139 454 211 c 1
 478 211 l 1
EndSplineSet
EndChar
StartChar: three
Encoding: 51 51 19
Width: 500
Flags: W
HStem: -14 148
VStem: 283 146<521.5 535.5> 354 114<173 178>
Fore
58 523 m 1
 37 535 l 1
 92 638 167 688 266 688 c 0
 368 688 429 637 429 551 c 0
 429 492 410 463 346 424 c 1
 386 406 403 394 424 370 c 0
 453 335 468 292 468 246 c 0
 468 100 336 -14 169 -14 c 0
 77 -14 16 22 16 76 c 0
 16 110 43 134 81 134 c 0
 111 134 141 118 180 79 c 0
 213 47 232 36 256 36 c 0
 316 36 354 82 354 154 c 0
 354 202 336 247 305 276 c 0
 269 310 236 327 153 356 c 1
 153 373 l 1
 248 403 283 438 283 504 c 0
 283 567 244 607 181 607 c 0
 129 607 96 584 58 523 c 1
EndSplineSet
EndChar
StartChar: four
Encoding: 52 52 20
Width: 500
Flags: MW
HStem: 0 21<267 412 267 267> 144 111<60 267 412 475> 668 20<332 412 412 412>
VStem: 19 456<144 255> 267 145<0 144>
Fore
412 255 m 1
 475 255 l 1
 475 144 l 1
 412 144 l 1
 412 0 l 1
 267 0 l 1
 267 144 l 1
 19 144 l 1
 19 257 l 1
 79 352 145 444 273 611 c 2
 332 688 l 1
 412 688 l 1
 412 255 l 1
269 255 m 1
 269 552 l 1
 60 255 l 1
 269 255 l 1
EndSplineSet
EndChar
StartChar: five
Encoding: 53 53 21
Width: 500
Flags: MW
HStem: -8 148 549 127<149 149 149 427>
Fore
149 549 m 1
 127 468 l 1
 209 463 240 459 278 448 c 0
 387 417 451 337 451 233 c 0
 451 92 334 -8 169 -8 c 0
 80 -8 22 27 22 80 c 0
 22 115 48 140 84 140 c 0
 110 140 140 127 183 95 c 0
 223 65 250 53 273 53 c 0
 329 53 373 97 373 153 c 0
 373 219 320 276 231 304 c 0
 187 318 146 324 51 331 c 1
 148 676 l 1
 470 676 l 1
 427 549 l 1
 149 549 l 1
EndSplineSet
EndChar
StartChar: six
Encoding: 54 54 22
Width: 500
Flags: MW
HStem: -13 27<250.5 286.5>
VStem: 28 156<195.5 273> 323 152<154 241.5>
Fore
470 688 m 1
 470 662 l 1
 324 632 241 551 204 404 c 1
 234 417 256 421 288 421 c 0
 402 421 475 343 475 222 c 0
 475 86 384 -13 260 -13 c 0
 120 -13 28 100 28 273 c 0
 28 406 87 518 199 595 c 0
 275 647 337 669 470 688 c 1
233 376 m 0
 219 376 205 372 197 366 c 0
 190 361 184 304 184 242 c 0
 184 149 194 76 211 43 c 0
 221 24 239 14 262 14 c 0
 311 14 323 44 323 162 c 0
 323 321 300 376 233 376 c 0
EndSplineSet
EndChar
StartChar: seven
Encoding: 55 55 23
Width: 500
Flags: MW
HStem: 0 21<147 242 147 147> 539 137<112.5 140 140 347>
Fore
477 676 m 1
 242 0 l 1
 147 0 l 1
 347 539 l 1
 140 539 l 2
 85 539 61 518 42 454 c 1
 17 454 l 1
 61 676 l 1
 477 676 l 1
EndSplineSet
EndChar
StartChar: eight
Encoding: 56 56 24
Width: 500
Flags: W
HStem: -13 32<215.5 273> 659 29<227.5 279>
VStem: 28 121<116.5 179> 39 129<548 565.5> 333 139<127 164> 339 119<512.5 575>
Fore
178 324 m 1
 79 383 39 438 39 513 c 0
 39 618 128 688 263 688 c 0
 382 688 458 632 458 543 c 0
 458 479 418 438 322 404 c 1
 429 336 472 274 472 187 c 0
 472 67 379 -13 240 -13 c 0
 113 -13 28 55 28 157 c 0
 28 201 43 239 72 267 c 0
 98 292 121 305 178 324 c 1
298 422 m 1
 331 466 339 489 339 536 c 0
 339 614 307 659 251 659 c 0
 204 659 168 623 168 576 c 0
 168 520 214 465 298 422 c 1
200 306 m 1
 160 247 149 216 149 161 c 0
 149 72 185 19 246 19 c 0
 300 19 333 60 333 127 c 0
 333 201 309 233 200 306 c 1
EndSplineSet
EndChar
StartChar: nine
Encoding: 57 57 25
Width: 500
Flags: MW
HStem: 661 27<214.5 251.5>
VStem: 26 152<436.5 520.5> 317 156<444.5 488.5>
Fore
31 -13 m 1
 31 13 l 1
 175 42 256 121 299 273 c 1
 272 259 246 254 208 254 c 0
 99 254 26 334 26 452 c 0
 26 589 116 688 241 688 c 0
 381 688 473 575 473 402 c 0
 473 275 419 168 317 91 c 0
 239 32 171 7 31 -13 c 1
309 328 m 1
 312 354 l 1
 315 399 317 431 317 458 c 0
 317 529 307 599 292 627 c 0
 281 650 264 661 239 661 c 0
 190 661 178 631 178 515 c 0
 178 358 201 299 263 299 c 0
 278 299 297 303 304 308 c 0
 307 310 308 315 309 328 c 1
EndSplineSet
EndChar
StartChar: colon
Encoding: 58 58 26
Width: 333
Flags: MW
HStem: -13 169<143 189> 303 169<143 189.5>
VStem: 82 169<48 93.5 364.5 410.5>
Fore
166 156 m 0
 213 156 251 117 251 70 c 0
 251 24 213 -13 165 -13 c 0
 118 -13 82 24 82 72 c 0
 82 117 120 156 166 156 c 0
166 472 m 0
 213 472 251 434 251 387 c 0
 251 341 213 303 166 303 c 0
 118 303 82 340 82 389 c 0
 82 434 120 472 166 472 c 0
EndSplineSet
EndChar
StartChar: semicolon
Encoding: 59 59 27
Width: 333
Flags: MW
HStem: -6 160 303 169<143 189.5>
VStem: 82 169<364.5 410.5>
Fore
100 -180 m 1
 89 -158 l 1
 164 -106 198 -64 198 -25 c 0
 198 -14 190 -4 180 -4 c 2
 173 -4 l 1
 161 -6 l 1
 153 -6 l 2
 141 -6 118 2 108 11 c 0
 91 25 82 46 82 72 c 0
 82 122 115 155 165 155 c 0
 225 155 266 108 266 39 c 0
 266 -47 216 -113 100 -180 c 1
166 472 m 0
 213 472 251 434 251 387 c 0
 251 341 213 303 166 303 c 0
 118 303 82 340 82 389 c 0
 82 434 120 472 166 472 c 0
EndSplineSet
EndChar
StartChar: less
Encoding: 60 60 28
Width: 570
Flags: W
Fore
539 -12 m 1
 31 211 l 1
 31 295 l 1
 539 518 l 1
 539 422 l 1
 154 253 l 1
 539 84 l 1
 539 -12 l 1
EndSplineSet
EndChar
StartChar: equal
Encoding: 61 61 29
Width: 570
Flags: MW
HStem: 107 88<33 537> 311 88<33 537>
VStem: 33 504<107 195 311 399>
Fore
537 399 m 1
 537 311 l 1
 33 311 l 1
 33 399 l 1
 537 399 l 1
537 195 m 1
 537 107 l 1
 33 107 l 1
 33 195 l 1
 537 195 l 1
EndSplineSet
EndChar
StartChar: greater
Encoding: 62 62 30
Width: 570
Flags: W
Fore
31 -12 m 1
 31 84 l 1
 416 253 l 1
 31 422 l 1
 31 518 l 1
 539 295 l 1
 539 211 l 1
 31 -12 l 1
EndSplineSet
EndChar
StartChar: question
Encoding: 63 63 31
Width: 500
Flags: W
HStem: -13 169<216 262> 653 36<194 238.5>
VStem: 57 131<523 543> 154 169<48 94> 296 149<497 564>
Fore
253 231 m 1
 223 231 l 1
 221 261 221 266 221 277 c 0
 221 305 229 328 253 374 c 0
 286 436 296 471 296 523 c 0
 296 605 265 653 212 653 c 0
 176 653 151 637 151 613 c 0
 151 603 154 597 166 584 c 0
 183 565 188 553 188 533 c 0
 188 495 163 469 125 469 c 0
 86 469 57 501 57 545 c 0
 57 629 135 689 245 689 c 0
 365 689 445 623 445 523 c 0
 445 454 415 413 324 357 c 0
 261 318 253 304 253 231 c 1
239 156 m 0
 285 156 323 117 323 71 c 0
 323 24 286 -13 239 -13 c 0
 191 -13 154 24 154 72 c 0
 154 117 193 156 239 156 c 0
EndSplineSet
EndChar
StartChar: at
Encoding: 64 64 32
Width: 930
Flags: MW
HStem: -19 46<411.5 524> 144 47 652 39<403 564>
VStem: 108 92<238 420> 319 77<250.5 296> 775 47<332 457>
Fore
595 466 m 1
 606 506 l 1
 677 506 l 1
 611 246 l 1
 610 241 609 234 609 228 c 0
 609 197 622 180 647 180 c 0
 713 180 775 279 775 385 c 0
 775 529 642 652 486 652 c 0
 320 652 200 515 200 325 c 0
 200 151 324 27 499 27 c 0
 566 27 616 39 698 76 c 1
 711 41 l 1
 614 -5 561 -19 487 -19 c 0
 274 -19 108 134 108 330 c 0
 108 531 275 691 485 691 c 0
 675 691 822 560 822 390 c 0
 822 257 735 143 633 143 c 0
 583 143 546 173 539 218 c 1
 504 172 456 144 413 144 c 0
 360 144 319 194 319 259 c 0
 319 333 351 412 403 467 c 0
 435 500 478 519 522 519 c 0
 558 519 573 509 595 466 c 1
535 471 m 0
 510 473 476 453 448 420 c 0
 414 382 396 331 396 277 c 0
 396 224 419 191 455 191 c 0
 485 191 515 216 537 259 c 0
 558 300 575 361 577 406 c 0
 579 445 564 469 535 471 c 0
EndSplineSet
EndChar
StartChar: A
Encoding: 65 65 33
Width: 722
Flags: W
HStem: 0 25<685 689> 0 28<394.5 397> 0 25 0 28 0 25 0 28 0 25 197 39<189 384> 670 20<329 357 357 357>
VStem: 9 203<0 25> 365 324<0 25>
Fore
689 25 m 1
 689 0 l 1
 365 0 l 1
 365 25 l 1
 379 27 392 28 397 28 c 0
 432 30 445 40 445 61 c 0
 445 83 433 119 399 197 c 1
 174 197 l 1
 159 158 l 2
 138 104 130 79 130 66 c 0
 130 40 153 29 212 25 c 1
 212 0 l 1
 9 0 l 1
 9 25 l 1
 57 34 69 49 107 142 c 2
 329 690 l 1
 357 690 l 1
 580 164 l 2
 630 46 646 25 685 25 c 2
 689 25 l 1
189 236 m 1
 384 236 l 1
 283 479 l 1
 189 236 l 1
EndSplineSet
KernsSLIF: 67 -73 0 0 199 -77 0 0 71 -68 0 0 79 -68 0 0 214 -68 0 0 81 -68 0 0 84 -59 0 0 85 -66 0 0 218 -66 0 0 219 -66 0 0 220 -66 0 0 217 -66 0 0 86 -130 0 0 87 -116 0 0 89 -74 0 0 97 -5 0 0 98 -22 0 0 99 -35 0 0 231 -43 0 0 44 1 0 0 100 -28 0 0 101 -32 0 0 103 -7 0 0 171 -53 0 0 8249 -67 0 0 45 -30 0 0 111 -37 0 0 113 -38 0 0 8221 -76 0 0 8217 -108 0 0 116 -27 0 0 117 -30 0 0 118 -84 0 0 119 -79 0 0 121 -83 0 0
EndChar
StartChar: B
Encoding: 66 66 34
Width: 667
Flags: W
HStem: 0 25 0 32<303 338> 0 25 0 32 343 30 646 30<298.5 325 325 353> 651 25
VStem: 104 160<96 343 373 580 580 597> 420 165<478 556> 447 172<131.5 210.5>
Fore
16 676 m 1
 325 676 l 2
 492 676 585 619 585 516 c 0
 585 440 542 399 426 365 c 1
 496 350 530 335 565 305 c 0
 600 274 619 233 619 188 c 0
 619 75 507 0 338 0 c 2
 16 0 l 1
 16 25 l 1
 89 33 104 45 104 96 c 2
 104 580 l 2
 104 631 85 647 16 651 c 1
 16 676 l 1
264 343 m 1
 264 93 l 2
 264 49 281 32 325 32 c 0
 406 32 447 82 447 179 c 0
 447 289 397 343 294 343 c 2
 264 343 l 1
264 597 m 2
 264 373 l 1
 387 376 420 404 420 509 c 0
 420 603 388 646 318 646 c 0
 279 646 264 633 264 597 c 2
EndSplineSet
KernsSLIF: 65 -34 0 0 198 -32 0 0 193 -34 0 0 194 -34 0 0 196 -34 0 0 197 -34 0 0 195 -34 0 0 79 -12 0 0 338 -4 0 0 211 -12 0 0 212 -12 0 0 214 -12 0 0 210 -12 0 0 216 -11 0 0 86 -45 0 0 87 -46 0 0 89 -44 0 0
EndChar
StartChar: C
Encoding: 67 67 35
Width: 722
Flags: W
HStem: -19 48<394 438.5> 454 234<644 669 644 644> 658 33<350 421>
VStem: 49 177<291 435>
Fore
657 152 m 1
 687 127 l 1
 642 77 620 57 588 35 c 0
 533 -2 474 -19 403 -19 c 0
 196 -19 49 127 49 333 c 0
 49 537 198 691 397 691 c 0
 445 691 493 680 552 656 c 0
 574 646 589 642 598 642 c 0
 617 642 628 653 642 688 c 1
 669 688 l 1
 669 454 l 1
 644 454 l 1
 609 530 586 563 543 602 c 0
 500 640 457 658 410 658 c 0
 290 658 226 548 226 341 c 0
 226 241 240 169 269 116 c 0
 298 64 361 29 427 29 c 0
 455 29 488 35 517 47 c 0
 566 66 598 90 657 152 c 1
EndSplineSet
KernsSLIF: 65 -25 0 0 198 -22 0 0 193 -25 0 0 196 -25 0 0 197 -25 0 0 72 -2 0 0 75 -6 0 0 79 -14 0 0 211 -14 0 0 214 -14 0 0
EndChar
StartChar: D
Encoding: 68 68 36
Width: 724
Flags: W
HStem: 0 25 0 35<296.5 332> 0 25 0 35 642 34<300.5 321 321 356> 651 25
VStem: 99 162<91 93 93 584 584 607> 518 174<282.5 372>
Fore
99 91 m 2
 99 584 l 2
 99 630 80 645 16 651 c 1
 16 676 l 1
 321 676 l 2
 552 676 692 551 692 345 c 0
 692 138 548 0 332 0 c 2
 16 0 l 1
 16 25 l 1
 74 27 99 47 99 91 c 2
261 607 m 2
 261 93 l 2
 261 48 274 35 319 35 c 0
 384 35 432 58 466 104 c 0
 498 149 518 235 518 330 c 0
 518 414 504 487 477 540 c 0
 443 609 392 642 320 642 c 0
 281 642 261 630 261 607 c 2
EndSplineSet
KernsSLIF: 65 -55 0 0 193 -55 0 0 194 -55 0 0 196 -55 0 0 192 -55 0 0 197 -55 0 0 195 -55 0 0 74 -40 0 0 84 -7 0 0 86 -60 0 0 87 -50 0 0 88 -51 0 0 89 -59 0 0
EndChar
StartChar: E
Encoding: 69 69 37
Width: 667
Flags: W
HStem: 0 25 0 31<317 387> 0 25 174 338<428 454> 329 34 642 34<305 412.5> 651 25
VStem: 16 577<651 676> 104 162<96 329 363 580 580 595>
Fore
593 676 m 1
 593 475 l 1
 568 475 l 1
 543 608 494 642 331 642 c 0
 279 642 266 633 266 595 c 2
 266 363 l 1
 374 362 413 398 428 512 c 1
 454 512 l 1
 454 174 l 1
 428 174 l 1
 416 290 375 329 266 329 c 1
 266 87 l 2
 266 44 285 31 349 31 c 0
 425 31 480 47 526 84 c 0
 562 113 582 141 613 208 c 1
 641 208 l 1
 601 0 l 1
 16 0 l 1
 16 25 l 1
 90 33 104 44 104 96 c 2
 104 580 l 2
 104 631 85 647 16 651 c 1
 16 676 l 1
 593 676 l 1
EndSplineSet
EndChar
StartChar: F
Encoding: 70 70 38
Width: 611
Flags: W
HStem: 0 25 174 338<419 444> 651 25
VStem: 16 567<651 676> 16 360<0 25> 16 567 16 360 16 567 104 162<96 329 363 580 580 595>
Fore
583 676 m 1
 583 475 l 1
 559 475 l 1
 545 538 534 565 512 590 c 0
 481 625 422 642 330 642 c 0
 279 642 266 632 266 595 c 2
 266 363 l 1
 366 363 401 398 419 512 c 1
 444 512 l 1
 444 174 l 1
 419 174 l 1
 405 290 368 327 266 329 c 1
 266 96 l 2
 266 41 284 29 376 25 c 1
 376 0 l 1
 16 0 l 1
 16 25 l 1
 90 33 104 44 104 96 c 2
 104 580 l 2
 104 632 85 647 16 651 c 1
 16 676 l 1
 583 676 l 1
EndSplineSet
KernsSLIF: 65 -79 0 0 193 -79 0 0 194 -79 0 0 196 -79 0 0 192 -79 0 0 197 -79 0 0 195 -79 0 0 74 -42 0 0 79 -7 0 0 214 -7 0 0 97 -50 0 0 225 -50 0 0 228 -22 0 0 230 -53 0 0 229 -50 0 0 44 -59 0 0 101 -51 0 0 233 -51 0 0 45 -34 0 0 105 -1 0 0 106 -26 0 0 111 -54 0 0 243 -54 0 0 246 -24 0 0 339 -51 0 0 248 -53 0 0 46 -60 0 0 114 -7 0 0 117 -10 0 0
EndChar
StartChar: G
Encoding: 71 71 39
Width: 778
Flags: W
HStem: -19 33<385.5 444.5> 262 25 454 234<632 657 632 632> 658 33<337.5 409>
VStem: 37 177<278 434> 412 343<262 287> 513 156<87 170>
Fore
755 287 m 1
 755 262 l 1
 680 254 669 242 669 170 c 2
 669 43 l 1
 605 5 496 -19 393 -19 c 0
 183 -19 37 125 37 331 c 128
 37 537 186 691 385 691 c 0
 433 691 481 680 540 656 c 0
 562 646 577 642 586 642 c 0
 605 642 616 653 630 688 c 1
 657 688 l 1
 657 454 l 1
 632 454 l 1
 597 530 574 564 531 602 c 0
 487 640 444 658 398 658 c 0
 277 658 214 547 214 338 c 0
 214 218 235 132 279 76 c 0
 312 33 354 14 417 14 c 0
 484 14 513 36 513 87 c 2
 513 192 l 2
 513 246 498 257 412 262 c 1
 412 287 l 1
 755 287 l 1
EndSplineSet
KernsSLIF: 65 -27 0 0 198 -24 0 0 193 -27 0 0 194 -27 0 0 196 -27 0 0 192 -27 0 0 197 -27 0 0 195 -27 0 0 84 -41 0 0 86 -33 0 0 87 -35 0 0 89 -33 0 0
EndChar
StartChar: H
Encoding: 72 72 40
Width: 774
Flags: MW
HStem: 0 25 326 47<263 504> 651 25
VStem: 101 162<96 326 373 580> 504 162<96 326 326 326 373 580>
Fore
504 326 m 1
 263 326 l 1
 263 96 l 2
 263 47 280 33 353 25 c 1
 353 0 l 1
 16 0 l 1
 16 25 l 1
 86 34 101 47 101 96 c 2
 101 580 l 2
 101 630 83 645 16 651 c 1
 16 676 l 1
 353 676 l 1
 353 651 l 1
 283 646 263 630 263 580 c 2
 263 373 l 1
 504 373 l 1
 504 580 l 2
 504 630 484 646 414 651 c 1
 414 676 l 1
 754 676 l 1
 754 651 l 1
 686 646 666 630 666 580 c 2
 666 96 l 2
 666 47 682 34 754 25 c 1
 754 0 l 1
 414 0 l 1
 414 25 l 1
 487 33 504 47 504 96 c 2
 504 326 l 1
EndSplineSet
EndChar
StartChar: I
Encoding: 73 73 41
Width: 386
Flags: MW
HStem: 0 25 651 25
VStem: 109 162<96 580>
Fore
109 96 m 2
 109 580 l 2
 109 631 88 646 16 651 c 1
 16 676 l 1
 366 676 l 1
 366 651 l 1
 292 648 271 632 271 580 c 2
 271 96 l 2
 271 44 290 30 366 25 c 1
 366 0 l 1
 16 0 l 1
 16 25 l 1
 91 32 109 46 109 96 c 2
EndSplineSet
EndChar
StartChar: J
Encoding: 74 74 42
Width: 500
Flags: W
HStem: -96 33<156 186.5> 651 25
VStem: 3 143<25.5 53> 127 352<651 676> 228 162<51.5 123 123 559>
Fore
390 559 m 2
 390 123 l 2
 390 -20 316 -96 176 -96 c 0
 136 -96 96 -87 70 -73 c 0
 31 -50 3 -5 3 36 c 0
 3 74 36 108 73 108 c 0
 112 108 146 73 146 33 c 0
 146 18 143 10 131 -5 c 0
 122 -17 119 -23 119 -31 c 0
 119 -50 137 -63 164 -63 c 0
 209 -63 228 -38 228 24 c 2
 228 580 l 2
 228 634 208 648 127 651 c 1
 127 676 l 1
 479 676 l 1
 479 651 l 1
 404 646 390 631 390 559 c 2
EndSplineSet
KernsSLIF: 65 -30 0 0 198 -27 0 0 196 -30 0 0 197 -30 0 0
EndChar
StartChar: K
Encoding: 75 75 43
Width: 764
Flags: W
HStem: 0 25 651 25
VStem: 103 162<96 292 345 559> 419 336<0 25> 433 289<651 676>
Fore
755 25 m 1
 755 0 l 1
 419 0 l 1
 419 25 l 1
 433 26 446 26 451 26 c 0
 484 28 498 33 498 46 c 0
 498 57 493 66 474 90 c 2
 292 317 l 1
 265 292 l 1
 265 96 l 2
 265 47 281 34 353 25 c 1
 353 0 l 1
 16 0 l 1
 16 25 l 1
 88 33 103 45 103 96 c 2
 103 580 l 2
 103 632 85 647 16 651 c 1
 16 676 l 1
 354 676 l 1
 354 651 l 1
 280 646 265 630 265 559 c 2
 265 345 l 1
 482 563 l 2
 513 594 518 602 518 618 c 0
 518 638 505 646 469 648 c 0
 464 649 450 650 433 651 c 1
 433 676 l 1
 722 676 l 1
 722 651 l 1
 625 643 589 618 401 424 c 1
 706 46 l 1
 719 31 730 26 755 25 c 1
EndSplineSet
KernsSLIF: 67 -61 0 0 71 -56 0 0 79 -56 0 0 338 -46 0 0 211 -56 0 0 214 -56 0 0 83 13 0 0 84 -2 0 0 97 6 0 0 228 6 0 0 230 3 0 0 229 6 0 0 101 -20 0 0 45 -47 0 0 111 -25 0 0 243 -25 0 0 246 -25 0 0 117 -18 0 0 252 -18 0 0 121 -83 0 0
EndChar
StartChar: L
Encoding: 76 76 44
Width: 664
Flags: W
HStem: 0 31<313.5 382.5> 0 25 0 31 651 25
VStem: 16 349<651 676> 102 162<96 559>
Fore
635 227 m 1
 594 0 l 1
 16 0 l 1
 16 25 l 1
 89 34 102 45 102 96 c 2
 102 580 l 2
 102 631 84 647 16 651 c 1
 16 676 l 1
 365 676 l 1
 365 651 l 1
 278 647 264 634 264 559 c 2
 264 87 l 2
 264 44 283 31 344 31 c 0
 421 31 477 49 518 86 c 0
 553 118 573 149 606 227 c 1
 635 227 l 1
EndSplineSet
KernsSLIF: 65 -1 0 0 198 1 0 0 193 -1 0 0 196 -1 0 0 197 -1 0 0 67 -11 0 0 199 -14 0 0 71 -5 0 0 79 -5 0 0 211 -5 0 0 212 -5 0 0 214 -5 0 0 210 -5 0 0 213 -5 0 0 83 2 0 0 84 -74 0 0 85 -29 0 0 220 -29 0 0 86 -106 0 0 87 -87 0 0 89 -89 0 0 45 24 0 0 8221 -37 0 0 8217 -69 0 0 117 -11 0 0 252 -12 0 0 121 -49 0 0
EndChar
StartChar: M
Encoding: 77 77 45
Width: 943
Flags: MW
HStem: 0 25 651 25
VStem: 107 42<105 124 124 580 580 594> 680 155<100 117 117 559>
Fore
680 609 m 1
 428 0 l 1
 401 0 l 1
 149 594 l 1
 149 124 l 2
 149 50 168 31 250 25 c 1
 250 0 l 1
 16 0 l 1
 16 25 l 1
 94 33 107 45 107 105 c 2
 107 580 l 2
 107 632 91 645 18 651 c 1
 18 676 l 1
 271 676 l 1
 471 204 l 1
 671 676 l 1
 923 676 l 1
 923 651 l 1
 850 646 835 631 835 559 c 2
 835 117 l 2
 835 46 845 35 923 25 c 1
 923 0 l 1
 591 0 l 1
 591 25 l 1
 666 32 680 44 680 100 c 2
 680 609 l 1
EndSplineSet
EndChar
StartChar: N
Encoding: 78 78 46
Width: 722
Flags: MW
HStem: 0 25 651 25<19 29>
VStem: 104 44<105 124 124 526> 579 44<247 552 552 571>
Fore
230 676 m 1
 579 247 l 1
 579 552 l 2
 579 623 560 644 486 651 c 1
 486 676 l 1
 701 676 l 1
 701 651 l 1
 636 641 623 628 623 571 c 2
 623 -18 l 1
 595 -18 l 1
 148 526 l 1
 148 124 l 2
 148 53 166 34 243 25 c 1
 243 0 l 1
 16 0 l 1
 16 25 l 1
 89 34 104 48 104 105 c 2
 104 579 l 1
 56 636 39 651 19 651 c 1
 19 676 l 1
 230 676 l 1
EndSplineSet
KernsSLIF: 65 -19 0 0 198 -16 0 0 193 -19 0 0 196 -19 0 0 197 -19 0 0 67 -22 0 0 199 -22 0 0 71 -16 0 0 79 -15 0 0 211 -15 0 0 214 -15 0 0 97 -16 0 0 225 -16 0 0 228 -16 0 0 230 -18 0 0 229 -16 0 0 44 1 0 0 101 -13 0 0 233 -13 0 0 111 -16 0 0 243 -16 0 0 246 -16 0 0 248 -15 0 0 117 -17 0 0 252 -17 0 0
EndChar
StartChar: O
Encoding: 79 79 47
Width: 778
Flags: MW
HStem: -19 33<331.5 446.5> 658 33<333.5 447>
VStem: 35 177<231.5 434> 566 177<232.5 433>
Fore
393 691 m 0
 594 691 743 540 743 336 c 0
 743 129 596 -19 389 -19 c 128
 182 -19 35 128 35 335 c 0
 35 543 184 691 393 691 c 0
392 658 m 0
 275 658 212 542 212 326 c 0
 212 124 274 14 389 14 c 128
 504 14 566 124 566 329 c 0
 566 537 502 658 392 658 c 0
EndSplineSet
KernsSLIF: 65 -55 0 0 198 -54 0 0 193 -55 0 0 196 -55 0 0 197 -55 0 0 84 -9 0 0 86 -60 0 0 87 -54 0 0 88 -51 0 0 89 -59 0 0
EndChar
StartChar: P
Encoding: 80 80 48
Width: 611
Flags: W
HStem: 0 25 0 29<38.5 40> 0 25 0 29 0 25 303 35 641 35<295.5 338 338 353.5> 651 25
VStem: 100 162<117 303 338 559 559 594> 428 172<457.5 543>
Fore
262 303 m 1
 262 117 l 2
 262 44 271 35 350 25 c 1
 350 0 l 1
 16 0 l 1
 16 25 l 1
 27 27 37 29 40 29 c 0
 87 35 100 55 100 117 c 2
 100 559 l 2
 100 629 86 645 16 651 c 1
 16 676 l 1
 338 676 l 2
 505 676 600 610 600 494 c 0
 600 417 556 356 475 325 c 0
 431 307 397 304 262 303 c 1
262 606 m 2
 262 338 l 1
 333 338 366 345 390 365 c 0
 416 388 428 426 428 489 c 0
 428 597 395 641 312 641 c 0
 279 641 262 629 262 606 c 2
EndSplineSet
KernsSLIF: 65 -81 0 0 198 -94 0 0 193 -81 0 0 196 -81 0 0 197 -81 0 0 74 -68 0 0 97 -19 0 0 225 -19 0 0 228 -19 0 0 230 -22 0 0 229 -19 0 0 44 -85 0 0 101 -29 0 0 233 -29 0 0 45 -39 0 0 111 -33 0 0 243 -33 0 0 246 -22 0 0 339 -30 0 0 248 -33 0 0 46 -86 0 0
EndChar
StartChar: Q
Encoding: 81 81 49
Width: 778
Flags: MW
HStem: 658 33<333 446>
VStem: 35 177<285.5 435> 566 177<285.5 434>
Fore
730 -117 m 1
 736 -141 l 1
 661 -168 618 -176 557 -176 c 0
 469 -176 385 -144 329 -88 c 0
 306 -65 294 -46 273 -2 c 1
 197 26 165 46 124 92 c 0
 66 156 35 240 35 331 c 0
 35 539 185 691 389 691 c 0
 595 691 743 542 743 334 c 0
 743 237 710 151 649 86 c 0
 606 40 571 20 490 -6 c 1
 508 -43 518 -58 537 -77 c 0
 571 -111 616 -129 663 -129 c 0
 682 -129 698 -126 730 -117 c 1
390 658 m 0
 276 658 212 541 212 331 c 0
 212 123 273 14 389 14 c 0
 504 14 566 124 566 330 c 0
 566 538 502 658 390 658 c 0
EndSplineSet
EndChar
StartChar: R
Encoding: 82 82 50
Width: 712
Flags: W
HStem: 0 25<696 705> 313 32 642 34<307.5 338 338 366> 651 25
VStem: 104 162<117 313 345 559 559 595> 449 171<475.5 546.5>
Fore
705 25 m 1
 705 0 l 1
 500 0 l 1
 293 313 l 1
 266 313 l 1
 266 117 l 2
 266 46 276 35 354 25 c 1
 354 0 l 1
 16 0 l 1
 16 25 l 1
 94 34 104 44 104 117 c 2
 104 559 l 2
 104 631 90 646 16 651 c 1
 16 676 l 1
 338 676 l 2
 521 676 620 613 620 498 c 0
 620 453 604 413 575 386 c 0
 547 361 522 348 463 329 c 1
 664 44 l 1
 674 31 687 25 705 25 c 1
266 600 m 2
 266 345 l 1
 342 346 376 353 402 370 c 0
 434 391 449 430 449 494 c 0
 449 599 412 642 320 642 c 0
 295 642 279 637 273 627 c 0
 270 621 266 606 266 600 c 2
EndSplineSet
KernsSLIF: 67 -36 0 0 199 -37 0 0 71 -30 0 0 79 -29 0 0 338 -22 0 0 211 -29 0 0 214 -29 0 0 84 -26 0 0 85 -37 0 0 220 -37 0 0 86 -53 0 0 87 -55 0 0 89 -53 0 0 97 7 0 0 225 7 0 0 228 7 0 0 230 4 0 0 229 7 0 0 101 -19 0 0 233 -19 0 0 45 -30 0 0 111 -24 0 0 243 -24 0 0 246 -24 0 0 339 -21 0 0 117 -17 0 0 250 -17 0 0 252 -17 0 0 121 -27 0 0
EndChar
StartChar: S
Encoding: 83 83 51
Width: 556
Flags: W
HStem: -19 33<243.5 306.5> -19 247<35 64> -19 33 -19 247 -19 33 475 217<456 484 456 456> 660 31<229 282>
VStem: 44 109<536 551> 394 119<129 154>
Fore
484 475 m 1
 456 475 l 1
 436 540 420 569 386 604 c 0
 350 641 308 660 263 660 c 0
 195 660 153 622 153 560 c 0
 153 512 175 487 256 447 c 2
 403 374 l 2
 467 342 513 267 513 192 c 0
 513 66 413 -19 265 -19 c 0
 222 -19 185 -12 135 5 c 0
 113 12 102 15 94 15 c 0
 78 15 70 6 64 -19 c 1
 35 -19 l 1
 35 228 l 1
 64 228 l 1
 81 158 95 125 122 88 c 0
 160 39 210 14 268 14 c 0
 345 14 394 59 394 128 c 0
 394 180 370 206 282 248 c 2
 215 280 l 2
 96 337 44 400 44 488 c 0
 44 614 127 691 263 691 c 0
 301 691 333 685 380 669 c 0
 402 661 413 658 422 658 c 0
 439 658 447 666 454 692 c 1
 484 692 l 1
 484 475 l 1
EndSplineSet
KernsSLIF: 65 -24 0 0 198 -21 0 0 193 -24 0 0 196 -24 0 0 197 -24 0 0 84 -16 0 0 86 -9 0 0 87 -10 0 0 89 -8 0 0 116 -10 0 0
EndChar
StartChar: T
Encoding: 84 84 52
Width: 667
Flags: MW
HStem: 0 25 475 201<34 60 607 607 607 634>
VStem: 253 162<117 644>
Fore
253 117 m 2
 253 644 l 1
 129 640 77 594 60 475 c 1
 31 475 l 1
 34 676 l 1
 634 676 l 1
 636 475 l 1
 607 475 l 1
 590 594 538 640 415 644 c 1
 415 117 l 2
 415 41 426 31 513 25 c 1
 513 0 l 1
 156 0 l 1
 156 25 l 1
 242 32 253 43 253 117 c 2
EndSplineSet
KernsSLIF: 65 -46 0 0 198 -44 0 0 193 -46 0 0 194 -46 0 0 196 -46 0 0 192 -46 0 0 197 -46 0 0 195 -46 0 0 67 -17 0 0 71 -11 0 0 74 -43 0 0 79 -9 0 0 338 -3 0 0 211 -9 0 0 212 -9 0 0 214 -9 0 0 210 -9 0 0 216 -11 0 0 213 -9 0 0 83 -2 0 0 86 11 0 0 87 9 0 0 89 11 0 0 97 -65 0 0 230 -69 0 0 99 -88 0 0 58 -85 0 0 44 -63 0 0 101 -85 0 0 103 -68 0 0 171 -99 0 0 8249 -113 0 0 45 -73 0 0 105 -16 0 0 106 -40 0 0 111 -88 0 0 248 -87 0 0 46 -64 0 0 114 -61 0 0 115 -59 0 0 59 -85 0 0 117 -89 0 0 118 -106 0 0 119 -107 0 0 121 -104 0 0
EndChar
StartChar: U
Encoding: 85 85 53
Width: 722
Flags: W
HStem: -19 49<353 402> 651 25
VStem: 16 338<651 676> 98 159<225 559> 579 44<247 552 552 566>
Fore
623 566 m 2
 623 247 l 2
 623 154 597 78 552 40 c 0
 509 3 439 -19 365 -19 c 0
 292 -19 228 -1 180 34 c 0
 119 78 98 127 98 225 c 2
 98 559 l 2
 98 631 86 644 16 651 c 1
 16 676 l 1
 354 676 l 1
 354 651 l 1
 306 649 290 645 278 635 c 0
 263 621 257 599 257 559 c 2
 257 225 l 2
 257 89 302 30 404 30 c 0
 523 30 579 99 579 247 c 2
 579 552 l 2
 579 625 559 645 481 651 c 1
 481 676 l 1
 701 676 l 1
 701 651 l 1
 637 641 623 625 623 566 c 2
EndSplineSet
KernsSLIF: 65 -54 0 0 198 -52 0 0 193 -54 0 0 194 -54 0 0 196 -54 0 0 197 -54 0 0 195 -54 0 0 44 -17 0 0 109 -23 0 0 110 -25 0 0 112 -28 0 0 46 -18 0 0 114 -29 0 0
EndChar
StartChar: V
Encoding: 86 86 54
Width: 722
Flags: MW
HStem: 651 25
VStem: 16 336<651 676> 488 213<651 676>
Fore
701 676 m 1
 701 651 l 1
 649 644 635 631 611 569 c 2
 383 -18 l 1
 356 -18 l 1
 100 581 l 1
 75 636 66 644 16 651 c 1
 16 676 l 1
 352 676 l 1
 352 651 l 1
 337 650 324 649 319 649 c 0
 281 647 266 636 266 613 c 0
 266 598 270 586 289 541 c 2
 427 207 l 1
 554 536 l 2
 571 579 574 591 574 607 c 0
 574 639 559 646 488 651 c 1
 488 676 l 1
 701 676 l 1
EndSplineSet
KernsSLIF: 65 -113 0 0 198 -113 0 0 193 -113 0 0 194 -113 0 0 196 -113 0 0 192 -113 0 0 197 -113 0 0 195 -113 0 0 67 -70 0 0 71 -64 0 0 79 -63 0 0 211 -63 0 0 212 -63 0 0 214 -63 0 0 210 -63 0 0 216 -65 0 0 213 -63 0 0 83 -25 0 0 84 8 0 0 97 -87 0 0 230 -90 0 0 58 -94 0 0 44 -94 0 0 101 -86 0 0 103 -86 0 0 171 -98 0 0 8249 -112 0 0 45 -68 0 0 105 -13 0 0 111 -89 0 0 248 -87 0 0 46 -95 0 0 114 -60 0 0 59 -94 0 0 117 -58 0 0 121 -56 0 0
EndChar
StartChar: W
Encoding: 87 87 55
Width: 1000
Flags: MW
HStem: 651 25
VStem: 19 294<651 676> 387 312<651 676> 799 182<651 676>
Fore
981 676 m 1
 981 651 l 1
 948 648 925 627 912 587 c 2
 712 -15 l 1
 685 -15 l 1
 514 462 l 1
 328 -15 l 1
 300 -15 l 1
 88 587 l 2
 71 636 61 645 19 651 c 1
 19 676 l 1
 313 676 l 1
 313 651 l 1
 261 647 249 638 249 609 c 0
 249 600 251 592 256 576 c 2
 376 212 l 1
 494 520 l 1
 459 616 l 1
 448 640 428 649 387 651 c 1
 387 676 l 1
 699 676 l 1
 699 651 l 1
 693 650 688 650 686 650 c 0
 642 647 627 638 627 614 c 0
 627 605 631 590 641 558 c 2
 749 222 l 1
 861 565 l 1
 866 579 868 594 868 607 c 0
 868 638 853 648 799 651 c 1
 799 676 l 1
 981 676 l 1
EndSplineSet
KernsSLIF: 65 -98 0 0 198 -102 0 0 193 -98 0 0 194 -98 0 0 196 -98 0 0 192 -98 0 0 197 -98 0 0 195 -98 0 0 67 -58 0 0 71 -52 0 0 79 -51 0 0 211 -51 0 0 212 -51 0 0 214 -51 0 0 210 -51 0 0 216 -50 0 0 213 -51 0 0 83 -24 0 0 84 9 0 0 97 -70 0 0 230 -73 0 0 58 -81 0 0 44 -72 0 0 101 -67 0 0 103 -70 0 0 171 -79 0 0 8249 -93 0 0 45 -49 0 0 105 -12 0 0 111 -70 0 0 248 -69 0 0 46 -73 0 0 114 -49 0 0 59 -80 0 0 117 -45 0 0 121 -44 0 0
EndChar
StartChar: X
Encoding: 88 88 56
Width: 722
Flags: W
HStem: 0 25 0 27<385 387> 0 25 651 25
VStem: 16 250<0 25> 17 346<651 676> 359 340<0 25> 438 250<651 676>
Fore
688 676 m 1
 688 651 l 1
 614 644 588 625 500 505 c 1
 420 394 l 1
 602 111 l 1
 650 39 665 26 699 25 c 1
 699 0 l 1
 359 0 l 1
 359 25 l 1
 372 26 383 27 387 27 c 0
 422 29 439 38 439 55 c 0
 439 66 430 90 418 109 c 2
 317 271 l 1
 279 220 l 2
 205 120 185 88 185 66 c 0
 185 41 205 31 266 25 c 1
 266 0 l 1
 16 0 l 1
 16 25 l 1
 66 31 90 44 120 81 c 2
 295 302 l 1
 97 593 l 2
 66 638 53 648 17 651 c 1
 17 676 l 1
 363 676 l 1
 363 651 l 1
 349 650 337 649 332 649 c 0
 296 647 284 639 284 618 c 0
 284 606 286 601 299 581 c 2
 396 431 l 1
 421 466 444 498 452 508 c 0
 499 572 510 593 510 614 c 0
 510 638 498 647 458 649 c 0
 455 650 447 650 438 651 c 1
 438 676 l 1
 688 676 l 1
EndSplineSet
KernsSLIF: 67 -63 0 0 79 -56 0 0 214 -56 0 0 81 -57 0 0 101 -27 0 0 45 -43 0 0 111 -32 0 0 117 -25 0 0 121 -90 0 0
EndChar
StartChar: Y
Encoding: 89 89 57
Width: 722
Flags: W
HStem: 0 25 0 573 0 25 651 25
VStem: 15 335<651 676> 278 162<117 264 264 264> 479 220<651 676>
Fore
699 676 m 1
 699 651 l 1
 665 646 646 635 631 612 c 1
 440 301 l 1
 440 117 l 2
 440 43 450 33 532 25 c 1
 532 0 l 1
 185 0 l 1
 185 25 l 1
 267 33 278 44 278 117 c 2
 278 264 l 1
 95 596 l 1
 75 630 49 649 15 651 c 1
 15 676 l 1
 350 676 l 1
 350 651 l 1
 325 650 l 2
 284 650 269 642 269 620 c 0
 269 609 273 598 287 573 c 2
 287 573 292 564 293 561 c 1
 413 329 l 1
 524 514 l 2
 549 555 563 590 563 609 c 0
 563 638 546 646 479 651 c 1
 479 676 l 1
 699 676 l 1
EndSplineSet
KernsSLIF: 65 -64 0 0 198 -62 0 0 193 -64 0 0 194 -64 0 0 196 -64 0 0 192 -64 0 0 197 -64 0 0 195 -64 0 0 67 -71 0 0 71 -65 0 0 79 -64 0 0 211 -64 0 0 212 -64 0 0 214 -64 0 0 210 -64 0 0 216 -68 0 0 213 -64 0 0 83 -26 0 0 84 7 0 0 97 -83 0 0 230 -87 0 0 58 -103 0 0 44 -80 0 0 101 -93 0 0 103 -86 0 0 171 -111 0 0 8249 -125 0 0 45 -87 0 0 105 -14 0 0 111 -96 0 0 248 -95 0 0 112 -72 0 0 46 -81 0 0 59 -103 0 0 117 -76 0 0 118 -78 0 0
EndChar
StartChar: Z
Encoding: 90 90 58
Width: 667
Flags: MW
HStem: 0 35<225 299 299 347> 470 21<59 87 59 59> 638 38
Fore
634 241 m 1
 608 0 l 1
 28 0 l 1
 28 16 l 1
 410 641 l 1
 373 640 339 639 327 638 c 1
 179 640 135 609 87 470 c 1
 59 470 l 1
 80 676 l 1
 604 676 l 1
 604 660 l 1
 225 35 l 1
 299 35 l 2
 395 35 477 50 511 74 c 0
 558 107 581 147 608 241 c 1
 634 241 l 1
EndSplineSet
KernsSLIF: 118 -45 0 0 121 -44 0 0
EndChar
StartChar: bracketleft
Encoding: 91 91 59
Width: 333
Flags: W
HStem: -149 33<221 301> 645 33<210 238 238 301>
VStem: 67 234<-149 -116 645 678> 67 104<-84.5 -63 -63 575> 67 234
Fore
301 -116 m 1
 301 -149 l 1
 67 -149 l 1
 67 678 l 1
 301 678 l 1
 301 645 l 1
 238 645 l 2
 182 645 171 633 171 575 c 2
 171 -63 l 2
 171 -106 180 -116 221 -116 c 2
 301 -116 l 1
EndSplineSet
EndChar
StartChar: backslash
Encoding: 92 92 60
Width: 278
Flags: MW
HStem: 671 20<-25 68 68 68>
Fore
211 -19 m 1
 -25 691 l 1
 68 691 l 1
 303 -19 l 1
 211 -19 l 1
EndSplineSet
EndChar
StartChar: bracketright
Encoding: 93 93 61
Width: 333
Flags: MW
HStem: -149 33<32 112 112 133> 645 33<32 95>
VStem: 162 104<-63 575 575 604>
Fore
32 -149 m 1
 32 -116 l 1
 112 -116 l 2
 154 -116 162 -107 162 -63 c 2
 162 575 l 2
 162 633 151 645 95 645 c 2
 32 645 l 1
 32 678 l 1
 266 678 l 1
 266 -149 l 1
 32 -149 l 1
EndSplineSet
EndChar
StartChar: asciicircum
Encoding: 94 94 62
Width: 581
Flags: MW
HStem: 656 20<251 331 331 331>
Fore
162 311 m 1
 73 311 l 1
 251 676 l 1
 331 676 l 1
 509 311 l 1
 420 311 l 1
 291 583 l 1
 162 311 l 1
EndSplineSet
EndChar
StartChar: underscore
Encoding: 95 95 63
Width: 500
Flags: MW
HStem: -125 50<0 500>
VStem: 0 500<-125 -75>
Fore
500 -125 m 1
 0 -125 l 1
 0 -75 l 1
 500 -75 l 1
 500 -125 l 1
EndSplineSet
EndChar
StartChar: grave
Encoding: 96 96 64
Width: 333
Flags: W
Fore
246 528 m 1
 190 528 l 1
 48 616 l 2
 19 634 8 648 8 668 c 0
 8 693 29 713 55 713 c 0
 74 713 93 703 109 685 c 2
 246 528 l 1
EndSplineSet
EndChar
StartChar: a
Encoding: 97 97 65
Width: 500
Flags: W
HStem: 441 31
VStem: 25 146<104 113.5> 44 133<326.5 346> 293 138<100 245 245 245>
Fore
473 64 m 1
 488 43 l 1
 450 2 419 -14 376 -14 c 0
 327 -14 305 5 294 56 c 1
 239 6 193 -14 136 -14 c 0
 72 -14 25 31 25 92 c 0
 25 135 46 169 89 199 c 0
 126 224 175 244 294 280 c 1
 294 353 l 2
 294 414 268 441 210 441 c 0
 175 441 147 425 147 404 c 0
 147 398 150 392 159 382 c 0
 171 366 177 353 177 339 c 0
 177 305 149 281 109 281 c 0
 68 281 44 306 44 347 c 0
 44 422 120 473 233 473 c 0
 355 473 431 420 431 336 c 2
 431 75 l 2
 431 59 438 50 452 50 c 0
 457 50 460 51 463 54 c 2
 473 64 l 1
293 100 m 1
 293 245 l 1
 213 224 171 182 171 124 c 0
 171 84 192 57 222 57 c 0
 246 57 266 69 293 100 c 1
EndSplineSet
KernsSLIF: 106 -39 0 0 8217 -34 0 0 118 -39 0 0 119 -40 0 0 121 -44 0 0
EndChar
StartChar: b
Encoding: 98 98 66
Width: 556
Flags: MW
HStem: -13 31 419 54<309 312> 656 20<17 211 211 211>
VStem: 72 139<73 97 97 360 417 594 594 614> 374 147<164.5 286.5>
Fore
211 676 m 1
 211 417 l 1
 248 456 285 473 333 473 c 0
 444 473 521 377 521 239 c 0
 521 90 428 -14 295 -14 c 0
 245 -14 209 2 163 43 c 1
 84 -13 l 1
 72 -13 l 1
 72 594 l 2
 72 634 63 643 17 652 c 1
 17 676 l 1
 211 676 l 1
211 360 m 1
 211 97 l 2
 211 49 238 18 280 18 c 0
 344 18 374 83 374 221 c 0
 374 352 343 419 281 419 c 0
 248 419 228 403 211 360 c 1
EndSplineSet
KernsSLIF: 118 -39 0 0 119 -40 0 0 121 -42 0 0
EndChar
StartChar: c
Encoding: 99 99 67
Width: 444
Flags: MW
HStem: 442 30
VStem: 25 141<208 295> 292 124<372 393>
Fore
412 109 m 1
 430 91 l 1
 372 17 316 -14 239 -14 c 0
 115 -14 25 85 25 223 c 0
 25 367 125 473 261 473 c 0
 349 473 416 425 416 363 c 0
 416 324 390 300 348 300 c 0
 311 300 293 323 292 372 c 0
 292 414 292 414 287 423 c 0
 281 434 266 442 250 442 c 0
 198 442 166 379 166 276 c 0
 166 140 221 53 308 53 c 0
 349 53 375 67 412 109 c 1
EndSplineSet
KernsSLIF: 104 -17 0 0 107 -18 0 0
EndChar
StartChar: d
Encoding: 100 100 68
Width: 556
Flags: W
HStem: -14 56<224.5 232.5> 417 56<229 240> 652 24
VStem: 25 148<165.5 293.5> 336 139<112 355 355 355 411 594 594 617> 339 195<20 43>
Fore
339 -13 m 1
 339 52 l 1
 292 2 259 -14 206 -14 c 0
 101 -14 25 85 25 221 c 0
 25 366 107 473 217 473 c 0
 263 473 293 457 336 411 c 1
 336 594 l 2
 336 640 327 647 260 652 c 1
 260 676 l 1
 475 676 l 1
 475 101 l 2
 475 59 488 46 534 43 c 1
 534 20 l 1
 472 12 l 2
 410 5 385 0 339 -13 c 1
336 112 m 2
 336 355 l 1
 322 393 291 417 258 417 c 0
 200 417 173 358 173 229 c 0
 173 102 198 42 251 42 c 0
 273 42 294 53 314 76 c 0
 326 89 336 106 336 112 c 2
EndSplineSet
EndChar
StartChar: e
Encoding: 101 101 69
Width: 444
Flags: MW
HStem: -14 72<268.5 271.5> 245 37<169 298 169 169> 442 31<209.5 248>
Fore
402 125 m 1
 426 111 l 1
 361 18 312 -14 231 -14 c 0
 107 -14 25 82 25 228 c 128
 25 374 109 473 234 473 c 0
 289 473 335 453 368 414 c 0
 400 376 415 329 421 245 c 1
 169 245 l 1
 173 176 181 143 199 111 c 0
 220 76 249 58 288 58 c 0
 331 58 362 76 402 125 c 1
164 282 m 1
 298 282 l 1
 298 297 l 1
 296 348 294 376 289 395 c 0
 281 426 262 442 234 442 c 0
 185 442 167 402 164 282 c 1
EndSplineSet
KernsSLIF: 8217 -19 0 0 116 -10 0 0 118 -29 0 0 119 -30 0 0 120 -19 0 0 121 -31 0 0
EndChar
StartChar: f
Encoding: 102 102 70
Width: 333
Flags: W
HStem: 0 24 417 44<14 71 210 297> 660 31<242.5 269>
VStem: 14 278<0 24> 14 283<417 461> 14 278 14 283 71 139<84 103 103 417 461 504> 267 122<572.5 589>
Fore
71 417 m 1
 14 417 l 1
 14 461 l 1
 71 461 l 1
 71 547 78 588 100 623 c 0
 127 667 179 691 246 691 c 0
 330 691 389 650 389 591 c 0
 389 554 364 529 327 529 c 0
 293 529 267 553 267 584 c 0
 267 594 271 605 280 620 c 0
 286 630 289 637 289 641 c 0
 289 653 278 660 260 660 c 0
 225 660 210 638 210 583 c 2
 210 461 l 1
 297 461 l 1
 297 417 l 1
 210 417 l 1
 210 103 l 2
 210 38 222 26 292 24 c 1
 292 0 l 1
 14 0 l 1
 14 24 l 1
 60 29 71 41 71 84 c 2
 71 417 l 1
EndSplineSet
KernsSLIF: 97 -17 0 0 225 -17 0 0 228 14 0 0 230 -21 0 0 229 -15 0 0 101 -29 0 0 233 -29 0 0 102 12 0 0 105 22 0 0 106 -1 0 0 108 33 0 0 111 -32 0 0 243 -32 0 0 246 11 0 0 339 -29 0 0 248 -31 0 0 8217 18 0 0 115 -8 0 0 116 -3 0 0
EndChar
StartChar: g
Encoding: 103 103 71
Width: 500
Flags: W
HStem: -206 32<206 299.5> -52 120<254 319 319 324> 154 28 398 53<401 482 401 401> 442 31<216.5 260>
VStem: 28 88<-129 -96.5> 37 137<295 358> 306 135<273.5 320> 404 79<-104.5 -85.5>
Fore
482 398 m 1
 401 398 l 1
 429 370 441 340 441 300 c 0
 441 247 418 206 373 180 c 0
 339 160 314 154 267 154 c 2
 222 155 l 2
 182 155 154 133 154 103 c 0
 154 75 174 68 254 68 c 2
 319 68 l 2
 421 68 483 22 483 -55 c 0
 483 -154 395 -206 229 -206 c 0
 103 -206 28 -172 28 -114 c 0
 28 -73 61 -48 124 -39 c 1
 60 -16 42 2 42 43 c 0
 42 95 82 133 161 160 c 1
 114 180 95 193 73 217 c 1
 50 245 37 278 37 312 c 0
 37 407 121 473 240 473 c 0
 280 473 308 467 352 451 c 1
 482 451 l 1
 482 398 l 1
324 -52 m 2
 151 -52 l 1
 123 -75 116 -86 116 -107 c 0
 116 -151 162 -174 250 -174 c 0
 349 -174 404 -148 404 -102 c 0
 404 -69 378 -52 324 -52 c 2
240 442 m 0
 193 442 174 405 174 311 c 0
 174 218 192 182 240 182 c 0
 287 182 306 218 306 311 c 128
 306 404 287 442 240 442 c 0
EndSplineSet
KernsSLIF: 97 -15 0 0 228 -15 0 0 230 -18 0 0 229 -15 0 0 101 -20 0 0 233 -20 0 0 243 -20 0 0 246 -20 0 0 114 1 0 0
EndChar
StartChar: h
Encoding: 104 104 72
Width: 556
Flags: MW
HStem: 0 24 656 20<16 208 208 208>
VStem: 69 139<84 348 395 594 594 614.5> 346 139<81 84 84 323 323 332>
Fore
208 676 m 1
 208 395 l 1
 260 453 297 473 350 473 c 0
 432 473 485 418 485 332 c 2
 485 84 l 2
 485 42 498 27 534 24 c 1
 534 0 l 1
 299 0 l 1
 299 24 l 1
 333 28 346 44 346 81 c 2
 346 323 l 2
 346 379 329 406 294 406 c 0
 271 406 247 394 225 371 c 1
 215 362 208 352 208 348 c 2
 208 81 l 2
 208 44 220 29 257 24 c 1
 257 0 l 1
 16 0 l 1
 16 24 l 1
 61 33 69 42 69 84 c 2
 69 594 l 2
 69 635 62 643 16 652 c 1
 16 676 l 1
 208 676 l 1
EndSplineSet
KernsSLIF: 8217 -30 0 0 121 -34 0 0
EndChar
StartChar: i
Encoding: 105 105 73
Width: 278
Flags: W
HStem: 0 21<16 255 16 16> 441 20<16 208 208 208> 536 155<116.5 159>
VStem: 16 239<0 24> 69 139<84 378 378 398.5>
Fore
208 461 m 1
 208 81 l 2
 208 43 220 29 255 24 c 1
 255 0 l 1
 16 0 l 1
 16 24 l 1
 62 35 69 43 69 84 c 2
 69 378 l 2
 69 419 60 428 16 437 c 1
 16 461 l 1
 208 461 l 1
138 691 m 0
 181 691 215 656 215 613 c 0
 215 569 181 536 137 536 c 128
 93 536 60 569 60 614 c 0
 60 656 95 691 138 691 c 0
EndSplineSet
KernsSLIF: 84 -18 0 0 106 -36 0 0
EndChar
StartChar: j
Encoding: 106 106 74
Width: 333
Flags: W
HStem: -203 31<63.5 89.5> 437 24 536 155<163.5 206.5>
VStem: -57 121<-101 -85> 108 155<591.5 634.5> 121 139<-27.5 2 2 378 378 399.5>
Fore
260 461 m 1
 260 2 l 2
 260 -57 252 -95 233 -127 c 0
 205 -176 152 -203 83 -203 c 0
 1 -203 -57 -162 -57 -103 c 0
 -57 -67 -32 -42 5 -42 c 0
 37 -42 64 -66 64 -96 c 0
 64 -106 60 -117 50 -133 c 0
 44 -143 41 -150 41 -155 c 0
 41 -165 54 -172 73 -172 c 0
 106 -172 121 -149 121 -96 c 2
 121 378 l 2
 121 421 109 433 58 437 c 1
 58 461 l 1
 260 461 l 1
185 691 m 0
 228 691 263 656 263 613 c 128
 263 570 228 536 185 536 c 0
 140 536 108 569 108 614 c 0
 108 656 142 691 185 691 c 0
EndSplineSet
EndChar
StartChar: k
Encoding: 107 107 75
Width: 556
Flags: W
HStem: 0 24<537.5 543> 438 23 652 24
VStem: 70 139<84 198 245 594 594 613> 299 214<438 461> 309 234<0 24>
Fore
513 461 m 1
 513 438 l 1
 450 430 424 412 324 307 c 1
 518 39 l 2
 527 27 532 24 543 24 c 1
 543 0 l 1
 309 0 l 1
 309 24 l 1
 337 25 351 31 351 43 c 0
 351 51 344 63 327 88 c 2
 232 222 l 1
 209 198 l 1
 209 84 l 2
 209 37 214 31 261 24 c 1
 261 0 l 1
 22 0 l 1
 22 24 l 1
 55 27 70 45 70 84 c 2
 70 594 l 2
 70 632 56 649 22 652 c 1
 22 676 l 1
 209 676 l 1
 209 245 l 1
 337 373 l 2
 348 384 358 402 358 411 c 0
 358 424 347 431 323 434 c 0
 320 435 310 436 299 438 c 1
 299 461 l 1
 513 461 l 1
EndSplineSet
KernsSLIF: 97 -3 0 0 225 -3 0 0 228 -3 0 0 230 -7 0 0 229 -3 0 0 101 -33 0 0 233 -33 0 0 103 -4 0 0 45 -47 0 0 111 -38 0 0 243 -38 0 0 246 -38 0 0 115 5 0 0 117 -5 0 0 252 -5 0 0
EndChar
StartChar: l
Encoding: 108 108 76
Width: 278
Flags: MW
HStem: 0 24 652 24
VStem: 67 139<84 594 594 612.5>
Fore
206 676 m 1
 206 84 l 2
 206 44 222 25 255 24 c 1
 255 0 l 1
 16 0 l 1
 16 24 l 1
 50 27 67 47 67 84 c 2
 67 594 l 2
 67 631 51 649 16 652 c 1
 16 676 l 1
 206 676 l 1
EndSplineSet
KernsSLIF: 118 -22 0 0 121 -19 0 0
EndChar
StartChar: m
Encoding: 109 109 77
Width: 833
Flags: W
HStem: 0 24 437 24
VStem: 16 191<437 461> 16 240<0 24> 16 191 16 240 16 191 71 139<84 348> 348 139<81 323 323 348> 625 139<81 323 323 332>
Fore
207 461 m 1
 207 386 l 1
 245 446 291 473 354 473 c 128
 417 473 452 449 482 386 c 1
 534 450 572 473 629 473 c 0
 711 473 764 418 764 332 c 2
 764 81 l 2
 764 38 775 26 814 24 c 1
 814 0 l 1
 576 0 l 1
 576 24 l 1
 614 27 625 39 625 81 c 2
 625 323 l 2
 625 382 610 406 572 406 c 0
 555 406 538 399 516 382 c 0
 503 372 487 353 487 348 c 2
 487 81 l 2
 487 43 499 28 534 24 c 1
 534 0 l 1
 300 0 l 1
 300 24 l 1
 337 27 348 40 348 81 c 2
 348 323 l 2
 348 383 333 406 294 406 c 0
 277 406 260 399 239 383 c 0
 226 373 210 354 210 348 c 2
 210 81 l 2
 210 43 221 29 256 24 c 1
 256 0 l 1
 16 0 l 1
 16 24 l 1
 60 32 71 43 71 84 c 2
 71 378 l 2
 71 419 60 431 16 437 c 1
 16 461 l 1
 207 461 l 1
EndSplineSet
KernsSLIF: 112 -16 0 0 118 -32 0 0 119 -33 0 0 121 -33 0 0
EndChar
StartChar: n
Encoding: 110 110 78
Width: 556
Flags: W
HStem: 0 24 441 20<21 212 212 212>
VStem: 21 191<437 461> 74 139<84 348> 351 139<81 323 323 332>
Fore
212 461 m 1
 212 386 l 1
 249 445 295 473 355 473 c 0
 437 473 490 418 490 332 c 2
 490 81 l 2
 490 39 500 27 539 24 c 1
 539 0 l 1
 304 0 l 1
 304 24 l 1
 338 28 351 44 351 81 c 2
 351 323 l 2
 351 379 334 406 299 406 c 0
 276 406 252 394 230 371 c 1
 220 362 213 352 213 348 c 2
 213 81 l 2
 213 44 225 29 262 24 c 1
 262 0 l 1
 21 0 l 1
 21 24 l 1
 66 33 74 42 74 84 c 2
 74 378 l 2
 74 420 65 430 21 437 c 1
 21 461 l 1
 212 461 l 1
EndSplineSet
KernsSLIF: 84 -56 0 0 112 -14 0 0 8217 -28 0 0 118 -31 0 0 119 -32 0 0 121 -32 0 0
EndChar
StartChar: o
Encoding: 111 111 79
Width: 500
Flags: MW
HStem: -14 31<221.5 280> 442 31<221 281>
VStem: 25 147<160.5 300> 329 147<159.5 299>
Fore
251 473 m 0
 380 473 476 369 476 229 c 0
 476 90 380 -14 251 -14 c 0
 120 -14 25 89 25 232 c 0
 25 368 124 473 251 473 c 0
252 442 m 0
 190 442 172 390 172 214 c 0
 172 68 192 17 251 17 c 0
 309 17 329 69 329 223 c 0
 329 387 310 442 252 442 c 0
EndSplineSet
KernsSLIF: 84 -88 0 0 8217 -27 0 0 116 -10 0 0 118 -42 0 0 119 -38 0 0 120 -29 0 0 121 -42 0 0
EndChar
StartChar: p
Encoding: 112 112 80
Width: 556
Flags: W
HStem: -205 21 -13 55<310 319.5> 416 57<308.5 326> 441 20<21 212 212 212>
VStem: 19 273<-205 -184> 21 191<437 461> 75 139<-123 -94 -94 47 103 346> 376 148<165 290.5>
Fore
212 461 m 1
 212 392 l 1
 243 450 279 473 338 473 c 0
 449 473 524 378 524 239 c 0
 524 91 444 -13 332 -13 c 0
 288 -13 262 0 214 47 c 1
 214 -94 l 2
 214 -161 231 -181 292 -184 c 1
 292 -205 l 1
 19 -205 l 1
 19 -181 l 1
 67 -173 75 -164 75 -123 c 2
 75 378 l 2
 75 420 65 430 21 437 c 1
 21 461 l 1
 212 461 l 1
214 346 m 2
 214 103 l 1
 229 65 258 42 291 42 c 0
 348 42 376 101 376 225 c 0
 376 356 352 416 300 416 c 0
 278 416 255 404 235 382 c 0
 223 369 214 353 214 346 c 2
EndSplineSet
KernsSLIF: 116 -11 0 0 121 -34 0 0
EndChar
StartChar: q
Encoding: 113 113 81
Width: 556
Flags: W
HStem: -205 21<269 536 269 269> -14 54<242 242.5> 441 32<243.5 281> 452 20<466 481 481 481>
VStem: 34 146<170.5 293.5> 269 267<-205 -181> 342 139<-97 42 42 42 98 361 361 385>
Fore
342 -97 m 2
 342 42 l 1
 301 2 266 -14 219 -14 c 0
 110 -14 34 82 34 219 c 0
 34 368 126 473 256 473 c 0
 306 473 337 459 388 416 c 1
 466 472 l 1
 481 472 l 1
 481 -123 l 2
 481 -163 490 -172 536 -181 c 1
 536 -205 l 1
 269 -205 l 1
 269 -180 l 1
 334 -168 342 -159 342 -97 c 2
342 98 m 1
 342 361 l 2
 342 409 315 441 275 441 c 0
 212 441 180 371 180 236 c 0
 180 105 211 40 273 40 c 0
 307 40 332 61 342 98 c 1
EndSplineSet
KernsSLIF: 99 -13 0 0 117 -15 0 0
EndChar
StartChar: r
Encoding: 114 114 82
Width: 444
Flags: W
HStem: 0 24 328 145<358 376.5> 437 24
VStem: 29 189<437 461> 29 266<0 24> 29 189 29 266 29 189 83 139<84 103 103 292>
Fore
218 461 m 1
 218 379 l 1
 265 446 303 473 353 473 c 0
 400 473 434 440 434 395 c 0
 434 356 408 328 371 328 c 0
 345 328 330 337 311 364 c 0
 300 380 291 387 283 387 c 0
 250 387 222 344 222 292 c 2
 222 103 l 2
 222 41 234 28 295 24 c 1
 295 0 l 1
 29 0 l 1
 29 24 l 1
 73 32 83 43 83 84 c 2
 83 378 l 2
 83 418 72 431 29 437 c 1
 29 461 l 1
 218 461 l 1
EndSplineSet
KernsSLIF: 97 -6 0 0 225 -6 0 0 226 -6 0 0 228 -6 0 0 230 -8 0 0 224 -6 0 0 229 -6 0 0 99 -15 0 0 231 -10 0 0 58 -16 0 0 44 -67 0 0 100 -13 0 0 101 -11 0 0 233 -11 0 0 234 -11 0 0 232 -11 0 0 102 11 0 0 103 -5 0 0 104 -15 0 0 45 -18 0 0 105 6 0 0 106 -12 0 0 107 -15 0 0 108 -14 0 0 109 6 0 0 110 4 0 0 111 -14 0 0 243 -14 0 0 244 -14 0 0 246 -14 0 0 339 -12 0 0 242 -14 0 0 248 -14 0 0 112 4 0 0 46 -68 0 0 113 -15 0 0 8217 -8 0 0 59 -16 0 0 116 9 0 0 117 9 0 0 118 8 0 0 119 7 0 0 120 11 0 0 121 9 0 0 122 -1 0 0
EndChar
StartChar: s
Encoding: 115 115 83
Width: 389
Flags: W
HStem: -13 165<25 50> 326 145<318 340> 440 33<174 195>
VStem: 27 100<365 369> 265 96<93 101>
Fore
340 326 m 1
 315 326 l 1
 300 370 289 388 268 408 c 0
 246 429 219 440 193 440 c 0
 155 440 127 415 127 382 c 0
 127 348 155 323 223 294 c 0
 322 252 361 209 361 138 c 0
 361 48 298 -14 207 -14 c 0
 179 -14 126 -3 99 9 c 0
 89 13 81 15 76 15 c 0
 67 15 61 8 50 -13 c 1
 25 -13 l 1
 25 152 l 1
 53 152 l 1
 74 65 120 20 190 20 c 0
 235 20 265 46 265 85 c 0
 265 117 237 142 169 172 c 0
 68 215 27 261 27 327 c 0
 27 411 93 473 184 473 c 0
 206 473 229 469 262 458 c 0
 278 453 288 451 294 451 c 0
 306 451 312 456 318 471 c 1
 340 471 l 1
 340 326 l 1
EndSplineSet
KernsSLIF: 8217 -17 0 0 116 -7 0 0
EndChar
StartChar: t
Encoding: 116 116 84
Width: 333
Flags: W
HStem: 417 44<211 305>
VStem: 20 285<417 444 444 444> 72 139<96 116 116 417>
Fore
305 461 m 1
 305 417 l 1
 211 417 l 1
 211 116 l 2
 211 76 222 59 250 59 c 0
 271 59 287 73 307 111 c 1
 332 100 l 1
 291 18 251 -12 184 -12 c 0
 115 -12 72 28 72 93 c 2
 72 417 l 1
 20 417 l 1
 20 444 l 1
 85 499 125 544 186 630 c 1
 211 630 l 1
 211 461 l 1
 305 461 l 1
EndSplineSet
KernsSLIF: 83 11 0 0 97 11 0 0 225 11 0 0 228 11 0 0 230 7 0 0 229 11 0 0 58 -12 0 0 101 -1 0 0 233 -1 0 0 104 -4 0 0 111 -4 0 0 243 -4 0 0 246 -4 0 0 8217 -31 0 0 59 -12 0 0
EndChar
StartChar: u
Encoding: 117 117 85
Width: 556
Flags: W
HStem: 437 24
VStem: 65 139<126 378 378 399> 342 139<95 101 101 378 378 399.5> 343 194<20 43>
Fore
343 -13 m 1
 343 52 l 1
 285 2 250 -14 198 -14 c 0
 115 -14 65 38 65 126 c 2
 65 378 l 2
 65 420 57 429 16 437 c 1
 16 461 l 1
 204 461 l 1
 204 122 l 2
 204 71 219 51 260 51 c 0
 288 51 309 62 342 95 c 1
 342 378 l 2
 342 421 330 433 280 437 c 1
 280 461 l 1
 481 461 l 1
 481 101 l 2
 481 58 493 45 537 43 c 1
 537 20 l 1
 475 13 l 2
 410 6 386 2 343 -13 c 1
EndSplineSet
KernsSLIF: 8217 -25 0 0
EndChar
StartChar: v
Encoding: 118 118 86
Width: 500
Flags: MW
HStem: 437 24
VStem: 21 250<437 461> 334 151<437 461>
Fore
485 461 m 1
 485 437 l 1
 454 434 446 426 427 382 c 1
 267 -14 l 1
 241 -14 l 1
 121 282 l 1
 105 323 58 423 56 422 c 1
 50 431 44 434 21 437 c 1
 21 461 l 1
 271 461 l 1
 271 437 l 1
 263 436 255 435 253 435 c 0
 228 433 218 426 218 411 c 0
 218 405 220 399 227 380 c 2
 306 177 l 1
 378 359 l 2
 385 377 389 393 389 404 c 0
 389 428 377 435 334 437 c 1
 334 461 l 1
 485 461 l 1
EndSplineSet
KernsSLIF: 97 -23 0 0 225 -23 0 0 226 -23 0 0 228 -23 0 0 230 -25 0 0 224 -23 0 0 229 -23 0 0 227 -23 0 0 99 -40 0 0 58 -23 0 0 44 -56 0 0 101 -35 0 0 233 -35 0 0 234 -35 0 0 232 -35 0 0 103 -22 0 0 45 -27 0 0 108 -16 0 0 111 -40 0 0 243 -40 0 0 246 -40 0 0 242 -40 0 0 248 -39 0 0 46 -57 0 0 115 -16 0 0 59 -23 0 0
EndChar
StartChar: w
Encoding: 119 119 87
Width: 722
Flags: MW
HStem: 437 24
VStem: 23 222<437 461> 294 234<437 461> 572 135<437 461>
Fore
707 461 m 1
 707 437 l 1
 681 432 673 424 657 387 c 1
 502 -14 l 1
 479 -14 l 1
 377 296 l 1
 252 -14 l 1
 228 -14 l 1
 80 360 l 1
 53 426 49 432 23 437 c 1
 23 461 l 1
 245 461 l 1
 245 437 l 1
 217 433 207 425 207 409 c 0
 207 396 218 364 246 294 c 0
 251 280 258 261 267 240 c 1
 291 176 l 1
 359 347 l 1
 353 366 l 1
 334 432 333 433 294 437 c 1
 294 461 l 1
 528 461 l 1
 528 437 l 1
 490 434 480 429 480 413 c 0
 480 404 487 376 507 307 c 0
 528 233 531 221 541 180 c 1
 553 214 561 235 576 274 c 0
 607 353 620 390 620 402 c 0
 620 425 609 433 572 437 c 1
 572 461 l 1
 707 461 l 1
EndSplineSet
KernsSLIF: 97 -23 0 0 225 -23 0 0 226 -23 0 0 228 -23 0 0 230 -25 0 0 224 -23 0 0 229 -23 0 0 227 -23 0 0 99 -36 0 0 58 -23 0 0 44 -50 0 0 101 -33 0 0 233 -33 0 0 234 -33 0 0 232 -33 0 0 103 -22 0 0 45 -23 0 0 108 -16 0 0 111 -36 0 0 243 -36 0 0 246 -36 0 0 242 -36 0 0 248 -35 0 0 46 -51 0 0 115 -16 0 0 59 -23 0 0
EndChar
StartChar: x
Encoding: 120 120 88
Width: 500
Flags: W
HStem: 0 24 437 24
VStem: 12 250<437 461> 14 169<0 24> 243 241<0 24> 309 168<437 461>
Fore
484 24 m 1
 484 0 l 1
 243 0 l 1
 243 24 l 1
 274 26 288 32 288 44 c 128
 288 56 278 75 255 108 c 2
 213 171 l 1
 206 162 199 154 197 151 c 0
 159 105 133 63 133 48 c 128
 133 33 147 26 183 24 c 1
 183 0 l 1
 14 0 l 1
 14 24 l 1
 51 26 71 43 127 117 c 1
 136 131 163 164 192 201 c 1
 64 398 l 2
 44 428 38 433 12 437 c 1
 12 461 l 1
 262 461 l 1
 262 437 l 1
 229 436 215 430 215 418 c 0
 215 405 241 362 273 320 c 0
 276 316 280 310 286 303 c 1
 301 324 316 343 322 349 c 0
 350 381 360 398 360 413 c 128
 360 428 352 434 329 435 c 0
 326 435 318 436 309 437 c 1
 309 461 l 1
 477 461 l 1
 477 437 l 1
 446 432 426 421 407 398 c 2
 306 272 l 1
 454 44 l 2
 461 33 468 29 484 24 c 1
EndSplineSet
KernsSLIF: 97 -2 0 0 99 -30 0 0 101 -27 0 0 233 -27 0 0 111 -30 0 0 113 -32 0 0
EndChar
StartChar: y
Encoding: 121 121 89
Width: 500
Flags: W
HStem: -205 143<84.5 97> 437 24
VStem: 16 119<-135.5 -130.5> 16 250<437 461> 16 119 329 151<437 461>
Fore
480 461 m 1
 480 437 l 1
 449 434 439 424 422 382 c 1
 273 -15 l 2
 238 -109 218 -149 197 -172 c 0
 176 -193 147 -205 113 -205 c 0
 56 -205 16 -172 16 -126 c 0
 16 -88 43 -62 80 -62 c 0
 114 -62 138 -82 138 -111 c 0
 138 -115 137 -120 136 -125 c 0
 135 -128 135 -130 135 -131 c 0
 135 -140 143 -148 152 -148 c 0
 175 -148 201 -116 218 -66 c 2
 236 -13 l 1
 116 282 l 2
 99 324 54 422 51 422 c 1
 45 431 39 434 16 437 c 1
 16 461 l 1
 266 461 l 1
 266 437 l 1
 250 436 l 2
 225 434 213 425 213 411 c 0
 213 403 213 403 233 352 c 2
 305 167 l 1
 373 359 l 2
 382 384 384 393 384 404 c 0
 384 428 372 435 329 437 c 1
 329 461 l 1
 480 461 l 1
EndSplineSet
KernsSLIF: 97 -32 0 0 225 -32 0 0 226 -32 0 0 228 -32 0 0 230 -34 0 0 224 -32 0 0 229 -32 0 0 227 -32 0 0 99 -42 0 0 58 -28 0 0 44 -56 0 0 101 -40 0 0 233 -40 0 0 234 -40 0 0 232 -40 0 0 103 -31 0 0 45 -29 0 0 108 -19 0 0 111 -42 0 0 243 -42 0 0 246 -42 0 0 242 -42 0 0 248 -41 0 0 46 -57 0 0 115 -24 0 0 59 -28 0 0
EndChar
StartChar: z
Encoding: 122 122 90
Width: 444
Flags: W
HStem: 0 160<392 404> 0 32<185 214 214 254> 0 160 429 32<255 255>
Fore
420 160 m 1
 404 0 l 1
 21 0 l 1
 21 25 l 1
 255 429 l 1
 115 430 89 414 64 319 c 1
 38 319 l 1
 45 461 l 1
 416 461 l 1
 416 435 l 1
 185 32 l 1
 214 32 l 2
 294 32 327 45 359 89 c 0
 375 110 383 128 392 160 c 1
 420 160 l 1
EndSplineSet
EndChar
StartChar: braceleft
Encoding: 123 123 91
Width: 394
Flags: MW
VStem: 129 105<-34 131 377 391 391 556 556 562>
Fore
129 -34 m 2
 129 145 l 2
 129 216 107 240 22 261 c 1
 107 282 129 306 129 377 c 2
 129 556 l 2
 129 611 145 648 179 669 c 0
 211 690 251 697 340 698 c 1
 340 686 l 1
 260 669 234 638 234 562 c 2
 234 391 l 2
 234 307 210 281 116 261 c 1
 210 241 234 215 234 131 c 2
 234 -40 l 2
 234 -116 261 -147 340 -163 c 1
 340 -175 l 1
 242 -174 198 -164 168 -138 c 0
 141 -116 129 -83 129 -34 c 2
EndSplineSet
EndChar
StartChar: bar
Encoding: 124 124 92
Width: 220
Flags: MW
HStem: -19 710<66 154>
VStem: 66 88<-19 691>
Fore
66 -19 m 1
 66 691 l 1
 154 691 l 1
 154 -19 l 1
 66 -19 l 1
EndSplineSet
EndChar
StartChar: braceright
Encoding: 125 125 93
Width: 394
Flags: MW
VStem: 160 105<-39 -33 -33 132 132 146 392 557>
Fore
160 -39 m 2
 160 132 l 2
 160 215 185 242 278 262 c 1
 184 282 160 308 160 392 c 2
 160 563 l 2
 160 638 133 670 54 686 c 1
 54 698 l 1
 144 697 183 690 215 669 c 0
 249 648 265 612 265 557 c 2
 265 378 l 2
 265 307 287 283 372 262 c 1
 287 241 265 217 265 146 c 2
 265 -33 l 2
 265 -88 249 -125 215 -146 c 0
 183 -167 143 -174 54 -175 c 1
 54 -163 l 1
 134 -146 160 -115 160 -39 c 2
EndSplineSet
EndChar
StartChar: asciitilde
Encoding: 126 126 94
Width: 520
Flags: W
HStem: 175 88<359.5 379.5> 243 88<136.5 168.5>
Fore
436 308 m 1
 491 260 l 1
 446 197 414 175 368 175 c 0
 335 175 309 183 263 208 c 128
 217 233 186 243 151 243 c 0
 122 243 105 233 82 201 c 1
 29 247 l 1
 63 306 99 331 153 331 c 0
 186 331 212 323 287 289 c 0
 333 269 351 263 368 263 c 0
 391 263 411 276 436 308 c 1
EndSplineSet
EndChar
StartChar: exclamdown
Encoding: 161 161 95
Width: 333
Flags: MW
HStem: -203 457<153 182> 332 169<144 190>
VStem: 83 169<-133.5 -90.5>
Fore
167 332 m 0
 120 332 82 371 82 418 c 0
 82 464 120 501 168 501 c 0
 215 501 251 464 251 416 c 0
 251 371 213 332 167 332 c 0
153 254 m 1
 182 254 l 1
 195 131 205 81 234 -14 c 0
 248 -59 252 -78 252 -103 c 0
 252 -166 221 -203 167 -203 c 0
 114 -203 83 -166 83 -101 c 0
 83 -78 87 -58 101 -14 c 0
 131 82 140 131 153 254 c 1
EndSplineSet
EndChar
StartChar: cent
Encoding: 162 162 96
Width: 500
Flags: MW
HStem: 442 31<252.5 290.5>
VStem: 53 141<245 294.5>
Fore
429 588 m 1
 381 452 l 1
 425 428 444 401 444 364 c 0
 444 326 417 300 378 300 c 0
 360 300 346 306 334 320 c 1
 252 90 l 1
 279 63 301 53 335 53 c 0
 378 53 406 68 440 109 c 1
 458 91 l 1
 424 49 404 30 377 15 c 0
 343 -4 306 -14 267 -14 c 0
 248 -14 236 -12 217 -7 c 1
 170 -140 l 1
 130 -140 l 1
 181 5 l 1
 148 21 135 31 117 49 c 0
 75 92 53 153 53 223 c 0
 53 366 152 473 285 473 c 0
 306 473 321 471 345 465 c 1
 389 588 l 1
 429 588 l 1
225 128 m 1
 321 397 l 1
 321 400 l 2
 321 424 303 442 278 442 c 0
 227 442 194 376 194 274 c 0
 194 216 203 174 225 128 c 1
EndSplineSet
EndChar
StartChar: sterling
Encoding: 163 163 97
Width: 500
Flags: W
HStem: -14 126<340.5 366> -13 30<92.5 127.5> 118 45 308 65<39 119 275 384 275 275> 654 29
VStem: 21 32<51.5 82> 39 345<308 373> 105 126
Fore
384 373 m 1
 384 308 l 1
 275 308 l 1
 276 289 277 275 277 254 c 0
 277 206 273 180 257 134 c 1
 300 118 327 112 354 112 c 0
 416 112 439 129 454 183 c 1
 477 183 l 1
 470 104 460 65 439 34 c 128
 418 3 386 -14 346 -14 c 0
 303 -14 275 0 221 49 c 1
 188 6 154 -13 109 -13 c 0
 53 -13 21 18 21 72 c 0
 21 132 58 164 127 164 c 0
 145 164 158 162 178 157 c 1
 176 194 172 210 137 308 c 1
 39 308 l 1
 39 373 l 1
 119 373 l 1
 108 434 105 459 105 489 c 0
 105 553 134 613 182 648 c 0
 214 671 258 684 308 684 c 0
 401 684 459 640 459 571 c 0
 459 527 433 499 391 499 c 0
 353 499 327 526 329 564 c 1
 331 608 l 1
 331 611 l 2
 331 639 315 654 287 654 c 0
 254 654 231 629 231 591 c 0
 231 569 251 458 270 373 c 1
 384 373 l 1
181 86 m 1
 154 110 136 118 109 118 c 0
 75 118 53 98 53 66 c 0
 53 37 76 17 109 17 c 0
 146 17 167 37 181 86 c 1
EndSplineSet
EndChar
StartChar: currency
Encoding: 164 164 98
Width: 500
Flags: MW
HStem: 122 82<228 272> 470 82<227 273>
VStem: 35 88<313.5 360> 377 88<313.5 360>
Fore
-26 119 m 1
 72 217 l 1
 46 255 35 290 35 337 c 0
 35 383 46 420 72 459 c 1
 -26 557 l 1
 32 613 l 1
 128 517 l 1
 168 542 204 552 250 552 c 128
 296 552 332 542 372 517 c 1
 468 613 l 1
 526 557 l 1
 428 459 l 1
 455 416 465 383 465 337 c 0
 465 290 454 253 428 217 c 1
 526 119 l 1
 468 61 l 1
 372 159 l 1
 331 133 294 122 250 122 c 128
 206 122 169 133 128 159 c 1
 32 61 l 1
 -26 119 l 1
250 470 m 0
 179 470 123 412 123 337 c 0
 123 263 179 204 250 204 c 0
 319 204 377 264 377 335 c 0
 377 410 321 470 250 470 c 0
EndSplineSet
EndChar
StartChar: yen
Encoding: 165 165 99
Width: 500
Flags: W
HStem: 0 25 164 50<50 185 315 450> 292 50<50 149 339 450> 650 26
VStem: -64 301<650 676> 50 400<164 214 292 342> 185 130<115 164 214 271 271 271> 342 205<650 676>
Fore
450 292 m 1
 319 292 l 1
 315 281 l 1
 315 214 l 1
 450 214 l 1
 450 164 l 1
 315 164 l 1
 315 115 l 2
 315 47 331 32 414 25 c 1
 414 0 l 1
 83 0 l 1
 83 25 l 1
 168 32 185 47 185 115 c 2
 185 164 l 1
 50 164 l 1
 50 214 l 1
 185 214 l 1
 185 271 l 1
 174 292 l 1
 50 292 l 1
 50 342 l 1
 149 342 l 1
 19 597 l 1
 0 633 -23 647 -64 650 c 1
 -64 676 l 1
 237 676 l 1
 237 650 l 1
 177 648 160 642 160 621 c 0
 160 605 183 555 236 454 c 0
 248 430 263 403 278 371 c 1
 293 342 l 1
 412 572 l 1
 417 583 420 595 420 607 c 0
 420 639 406 647 342 650 c 1
 342 676 l 1
 547 676 l 1
 547 650 l 1
 513 647 496 637 483 613 c 2
 339 342 l 1
 450 342 l 1
 450 292 l 1
EndSplineSet
EndChar
StartChar: brokenbar
Encoding: 166 166 100
Width: 220
Flags: MW
HStem: -19 277<66 154> 414 277<66 154>
VStem: 66 88<-19 258 414 691>
Fore
66 -19 m 1
 66 258 l 1
 154 258 l 1
 154 -19 l 1
 66 -19 l 1
66 414 m 1
 66 691 l 1
 154 691 l 1
 154 414 l 1
 66 414 l 1
EndSplineSet
EndChar
StartChar: section
Encoding: 167 167 101
Width: 500
Flags: W
HStem: -132 23<222.5 266.5> 144 23 392 23<180 199> 668 23<231.5 270>
VStem: 57 75<318 332.5> 90 128<-31 -13.5> 99 74<582 599> 268 125<575.5 592> 319 85<-40.5 -22.5> 367 76<238 238.5>
Fore
180 415 m 2
 199 415 l 1
 117 487 99 513 99 561 c 0
 99 637 161 691 248 691 c 0
 326 691 393 645 393 592 c 0
 393 559 362 528 328 528 c 0
 299 528 268 558 268 585 c 0
 268 599 277 614 295 628 c 0
 304 636 310 643 310 647 c 0
 310 658 284 668 256 668 c 0
 207 668 173 640 173 599 c 0
 173 565 208 526 277 480 c 0
 343 437 393 388 423 337 c 0
 436 315 443 287 443 256 c 0
 443 220 429 189 405 170 c 0
 383 152 356 145 302 144 c 1
 376 92 404 51 404 -3 c 0
 404 -78 335 -132 240 -132 c 0
 157 -132 90 -87 90 -32 c 0
 90 5 118 33 153 33 c 128
 188 33 218 7 218 -23 c 0
 218 -39 210 -51 187 -65 c 0
 176 -72 172 -76 172 -80 c 0
 172 -95 205 -109 240 -109 c 0
 293 -109 319 -85 319 -38 c 0
 319 -7 310 9 282 32 c 2
 225 78 l 2
 84 192 57 226 57 293 c 0
 57 372 101 415 180 415 c 2
186 392 m 0
 155 392 132 368 132 336 c 0
 132 300 142 285 202 233 c 0
 263 180 284 167 314 167 c 128
 344 167 367 191 367 225 c 0
 367 252 357 271 324 302 c 0
 258 365 216 392 186 392 c 0
EndSplineSet
EndChar
StartChar: dieresis
Encoding: 168 168 102
Width: 333
Flags: MW
HStem: 537 129<45 79.5 254.5 289>
VStem: -2 129<584.5 618> 208 129<584.5 618>
Fore
62 666 m 0
 97 666 127 636 127 600 c 0
 127 565 98 537 62 537 c 0
 27 537 -2 567 -2 602 c 0
 -2 636 28 666 62 666 c 0
271 666 m 0
 307 666 337 636 337 600 c 0
 337 565 308 537 271 537 c 0
 236 537 208 566 208 603 c 0
 208 636 238 666 271 666 c 0
EndSplineSet
EndChar
StartChar: copyright
Encoding: 169 169 103
Width: 747
Flags: MW
HStem: -19 52<295 449> 142 23<362 405> 521 23<361.5 420.5> 639 52<297 450.5>
VStem: 26 71<252 419.5> 176 102<287 401> 650 71<251 420>
Fore
525 256 m 1
 544 256 l 1
 528 182 l 1
 527 172 516 164 497 159 c 2
 497 159 490 158 485 156 c 0
 448 146 420 142 390 142 c 0
 259 142 176 218 176 340 c 0
 176 464 264 544 402 544 c 0
 439 544 465 539 505 525 c 0
 521 519 527 514 527 504 c 2
 527 432 l 1
 508 432 l 1
 490 493 457 521 401 521 c 0
 322 521 278 458 278 344 c 128
 278 230 323 165 401 165 c 0
 457 165 493 191 525 256 c 1
374 691 m 0
 569 691 721 536 721 337 c 0
 721 133 571 -19 369 -19 c 0
 178 -19 26 138 26 335 c 0
 26 535 178 691 374 691 c 0
374 639 m 0
 220 639 97 504 97 335 c 0
 97 169 220 33 370 33 c 0
 528 33 650 166 650 336 c 0
 650 504 527 639 374 639 c 0
EndSplineSet
EndChar
StartChar: ordfeminine
Encoding: 170 170 104
Width: 300
Flags: W
HStem: 665 22
VStem: -1 98<467.5 488> 12 90<600.5 611> 172 96<465 552 552 552>
Fore
291 443 m 1
 301 431 l 1
 277 406 257 397 228 397 c 0
 196 397 182 408 175 438 c 1
 140 409 111 397 73 397 c 0
 29 397 -1 424 -1 463 c 0
 -1 513 38 538 173 573 c 1
 173 613 l 2
 173 650 159 665 123 665 c 0
 101 665 82 655 82 643 c 0
 82 640 85 635 91 629 c 0
 99 621 102 614 102 608 c 0
 102 587 82 573 54 573 c 0
 28 573 12 588 12 613 c 0
 12 659 63 688 141 688 c 128
 219 688 268 656 268 606 c 2
 268 450 l 2
 268 439 271 435 279 435 c 0
 282 435 284 436 285 437 c 2
 291 443 l 1
172 465 m 1
 172 552 l 1
 122 537 97 513 97 479 c 0
 97 456 110 439 129 439 c 0
 145 439 158 447 172 465 c 1
EndSplineSet
EndChar
StartChar: guillemotleft
Encoding: 171 171 105
Width: 500
Flags: W
Fore
23 229 m 1
 226 393 l 2
 229 395 231 397 232 398 c 0
 247 411 255 415 263 415 c 128
 271 415 275 411 275 404 c 0
 275 383 240 328 183 257 c 0
 179 253 169 240 159 227 c 1
 174 205 185 190 199 173 c 0
 249 115 277 71 277 51 c 0
 277 42 272 36 265 36 c 128
 258 36 249 41 237 52 c 0
 233 55 230 58 229 59 c 2
 23 225 l 1
 23 229 l 1
219 229 m 1
 422 393 l 2
 425 395 427 397 428 398 c 0
 443 411 451 415 459 415 c 128
 467 415 471 411 471 404 c 0
 471 383 436 328 378 257 c 1
 355 227 l 1
 370 205 381 190 395 173 c 0
 445 115 473 71 473 51 c 0
 473 42 468 36 461 36 c 128
 454 36 445 41 433 52 c 0
 429 55 426 58 425 59 c 2
 219 225 l 1
 219 229 l 1
EndSplineSet
EndChar
StartChar: logicalnot
Encoding: 172 172 106
Width: 570
Flags: MW
HStem: 311 88<33 449>
VStem: 449 88<108 311 311 311>
Fore
449 108 m 1
 449 311 l 1
 33 311 l 1
 33 399 l 1
 537 399 l 1
 537 108 l 1
 449 108 l 1
EndSplineSet
EndChar
StartChar: registered
Encoding: 174 174 107
Width: 747
Flags: W
HStem: -19 52<295 449> 153 18 320 22<333 368 368 370> 510 22<333 333 333 369> 514 18 639 52<297 450.5>
VStem: 26 71<252 419.5> 253 80<215 320 342 470 470 490.5> 430 85<412 457> 650 71<251 420>
Fore
207 514 m 1
 207 532 l 1
 400 532 l 2
 471 532 515 495 515 436 c 0
 515 388 488 352 435 331 c 1
 493 249 l 2
 522 209 542 184 563 164 c 1
 563 153 l 1
 482 153 l 2
 466 153 450 174 419 234 c 0
 401 270 391 286 370 320 c 1
 333 320 l 1
 333 215 l 2
 333 175 334 174 379 171 c 1
 379 153 l 1
 207 153 l 1
 207 171 l 1
 252 174 253 175 253 215 c 2
 253 470 l 2
 253 511 253 511 207 514 c 1
333 510 m 1
 333 342 l 1
 368 342 l 2
 407 342 430 374 430 430 c 0
 430 484 410 510 369 510 c 2
 333 510 l 1
374 691 m 0
 569 691 721 536 721 337 c 0
 721 133 571 -19 369 -19 c 0
 178 -19 26 138 26 335 c 0
 26 535 178 691 374 691 c 0
374 639 m 0
 220 639 97 504 97 335 c 0
 97 169 220 33 370 33 c 0
 528 33 650 166 650 336 c 0
 650 504 527 639 374 639 c 0
EndSplineSet
EndChar
StartChar: macron
Encoding: 175 175 108
Width: 333
Flags: MW
HStem: 565 72<1 331>
VStem: 1 330<565 637>
Fore
331 637 m 1
 331 565 l 1
 1 565 l 1
 1 637 l 1
 331 637 l 1
EndSplineSet
EndChar
StartChar: degree
Encoding: 176 176 109
Width: 400
Flags: MW
HStem: 402 36<171.5 227.5> 652 36<172 227.5>
VStem: 57 41<516 574> 302 41<515.5 574>
Fore
200 688 m 0
 280 688 343 625 343 545 c 0
 343 464 280 402 198 402 c 0
 120 402 57 466 57 545 c 0
 57 625 120 688 200 688 c 0
200 652 m 0
 144 652 98 603 98 545 c 128
 98 487 144 438 199 438 c 0
 256 438 302 486 302 545 c 0
 302 603 255 652 200 652 c 0
EndSplineSet
EndChar
StartChar: plusminus
Encoding: 177 177 110
Width: 570
Flags: MW
HStem: 0 88<33 537> 271 88<33 241 329 537>
VStem: 33 504<0 88 271 359> 241 88<128 271 359 568>
Fore
241 359 m 1
 241 568 l 1
 329 568 l 1
 329 359 l 1
 537 359 l 1
 537 271 l 1
 329 271 l 1
 329 128 l 1
 241 128 l 1
 241 271 l 1
 33 271 l 1
 33 359 l 1
 241 359 l 1
33 0 m 1
 33 88 l 1
 537 88 l 1
 537 0 l 1
 33 0 l 1
EndSplineSet
EndChar
StartChar: twosuperior
Encoding: 178 178 111
Width: 300
Flags: MW
HStem: 275 80<99 191 191 224> 620 68<120 130>
VStem: 184 88<555 565>
Fore
300 402 m 1
 270 275 l 1
 0 275 l 1
 0 289 l 1
 149 438 184 486 184 544 c 0
 184 586 151 620 109 620 c 0
 75 620 54 605 33 566 c 1
 9 566 l 1
 43 650 88 688 152 688 c 0
 222 688 272 642 272 577 c 0
 272 533 251 497 198 447 c 2
 99 355 l 1
 191 355 l 2
 257 355 265 359 284 402 c 1
 300 402 l 1
EndSplineSet
EndChar
StartChar: threesuperior
Encoding: 179 179 112
Width: 300
Flags: W
VStem: 176 95<589 597.5> 222 75<380.5 398>
Fore
36 590 m 1
 16 597 l 1
 52 658 100 688 165 688 c 0
 232 688 271 658 271 607 c 0
 271 571 258 553 217 531 c 1
 271 509 297 474 297 424 c 0
 297 337 211 268 103 268 c 0
 42 268 3 289 3 322 c 0
 3 341 16 354 43 363 c 1
 72 360 80 356 110 330 c 1
 131 310 143 304 159 304 c 0
 197 304 222 330 222 369 c 0
 222 427 188 459 92 490 c 1
 92 500 l 1
 153 518 176 539 176 579 c 0
 176 616 150 640 111 640 c 0
 80 640 61 627 36 590 c 1
EndSplineSet
EndChar
StartChar: acute
Encoding: 180 180 113
Width: 333
Flags: W
Fore
86 528 m 5
 223 685 l 6
 240 704 257 713 276 713 c 4
 305 713 324 695 324 669 c 4
 324 646 316 636 284 616 c 6
 142 528 l 5
 86 528 l 5
EndSplineSet
EndChar
StartChar: mu
Encoding: 181 181 114
Width: 556
Flags: W
HStem: -13 474<406 451> -13 88<245 250.5> -13 474 -13 88 -13 474
VStem: 33 128<-153.5 -122.5> 66 139<127 149 149 461> 336 139<102 461>
Fore
475 461 m 1
 475 101 l 2
 475 75 493 54 515 54 c 0
 522 54 527 55 536 60 c 1
 536 36 l 1
 492 -3 472 -13 430 -13 c 0
 382 -13 351 3 329 39 c 1
 298 1 271 -13 230 -13 c 0
 190 -13 160 -3 128 22 c 1
 132 -11 134 -18 146 -59 c 0
 157 -93 161 -113 161 -130 c 0
 161 -179 138 -206 98 -206 c 0
 57 -206 33 -178 33 -129 c 0
 33 -116 36 -101 44 -72 c 0
 60 -10 66 35 66 88 c 2
 66 461 l 1
 205 461 l 1
 205 149 l 2
 205 105 228 75 262 75 c 0
 283 75 308 84 336 102 c 1
 336 461 l 1
 475 461 l 1
EndSplineSet
EndChar
StartChar: paragraph
Encoding: 182 182 115
Width: 540
Flags: W
HStem: -186 27<491 492.5> -186 25 -186 27 -186 25 -186 27 651 25<293 293 293 343>
VStem: 0 90<436.5 507.5> 198 95<-129.5 -109> 343 171<-186 -161>
Fore
293 651 m 1
 293 -186 l 1
 118 -186 l 1
 118 -161 l 1
 192 -154 198 -150 198 -109 c 1
 199 -99 l 1
 199 -61 l 1
 199 265 l 1
 148 267 122 274 92 292 c 0
 32 327 0 392 0 481 c 0
 0 615 69 676 219 676 c 2
 519 676 l 1
 519 651 l 1
 508 650 497 649 493 649 c 0
 444 643 438 638 438 599 c 1
 437 589 l 1
 437 551 l 1
 437 -61 l 1
 437 -99 l 1
 438 -109 l 1
 439 -148 443 -153 491 -159 c 0
 494 -159 504 -160 514 -161 c 1
 514 -186 l 1
 343 -186 l 1
 343 651 l 1
 293 651 l 1
199 290 m 1
 199 651 l 1
 152 639 132 627 115 598 c 0
 99 572 90 532 90 483 c 0
 90 378 124 317 199 290 c 1
EndSplineSet
EndChar
StartChar: periodcentered
Encoding: 183 183 116
Width: 250
Flags: MW
HStem: 248 169<102 148>
VStem: 41 169<309 355>
Fore
125 417 m 0
 172 417 210 378 210 332 c 0
 210 285 172 248 124 248 c 0
 77 248 41 285 41 333 c 0
 41 378 79 417 125 417 c 0
EndSplineSet
EndChar
StartChar: cedilla
Encoding: 184 184 117
Width: 333
Flags: MW
HStem: -217 40 -100 100<159 169.5>
VStem: 201 93<-149 -125>
Fore
116 -96 m 1
 159 0 l 1
 201 0 l 1
 173 -64 l 1
 185 -60 193 -59 206 -59 c 0
 261 -59 294 -85 294 -129 c 0
 294 -184 244 -218 164 -218 c 0
 131 -218 104 -213 68 -200 c 1
 84 -163 l 1
 90 -165 l 2
 113 -174 127 -177 144 -177 c 0
 180 -177 201 -162 201 -136 c 0
 201 -114 184 -100 155 -100 c 0
 146 -100 138 -101 127 -104 c 1
 116 -96 l 1
EndSplineSet
EndChar
StartChar: onesuperior
Encoding: 185 185 118
Width: 300
Flags: W
HStem: 275 20<30 62>
VStem: 30 243<275 295> 107 96<355 576 576 590>
Fore
273 295 m 1
 273 275 l 5
 30 275 l 1
 30 295 l 1
 94 295 107 305 107 355 c 2
 107 576 l 2
 107 604 100 617 84 617 c 0
 75 617 59 613 41 607 c 0
 39 606 34 604 28 602 c 1
 28 623 l 1
 192 688 l 1
 203 688 l 1
 203 351 l 2
 203 305 214 296 273 295 c 1
EndSplineSet
EndChar
StartChar: ordmasculine
Encoding: 186 186 119
Width: 330
Flags: MW
HStem: 397 20<146 182.5> 667 21<146 183.5>
VStem: 18 97<500.5 584> 214 98<500 584.5>
Fore
165 688 m 0
 249 688 312 626 312 543 c 0
 312 457 250 397 163 397 c 0
 80 397 18 459 18 542 c 0
 18 626 81 688 165 688 c 0
165 667 m 0
 127 667 115 635 115 538 c 0
 115 449 128 417 164 417 c 0
 201 417 214 447 214 536 c 0
 214 636 202 667 165 667 c 0
EndSplineSet
EndChar
StartChar: guillemotright
Encoding: 187 187 120
Width: 500
Flags: W
Fore
78 58 m 1
 72 53 l 2
 56 39 49 36 41 36 c 128
 33 36 29 40 29 47 c 0
 29 68 64 123 122 194 c 1
 145 224 l 1
 130 246 118 262 105 277 c 0
 54 337 27 380 27 400 c 0
 27 409 32 415 38 415 c 0
 45 415 55 410 67 399 c 0
 71 396 74 393 75 392 c 2
 281 226 l 1
 281 222 l 1
 78 58 l 1
477 222 m 1
 274 58 l 2
 273 57 271 56 267 53 c 0
 251 39 245 36 237 36 c 128
 229 36 225 40 225 47 c 0
 225 68 260 124 317 194 c 2
 341 224 l 1
 326 246 314 262 301 277 c 0
 250 337 223 380 223 400 c 0
 223 409 228 415 235 415 c 0
 241 415 250 410 263 399 c 0
 266 396 269 393 271 392 c 2
 477 226 l 1
 477 222 l 1
EndSplineSet
KernsSLIF: 65 -40 1 0 198 -46 1 0 193 -40 1 0 196 -40 1 0 197 -40 1 0 84 -100 1 0 86 -102 1 0 87 -84 1 0 89 -106 1 0
EndChar
StartChar: onequarter
Encoding: 188 188 121
Width: 750
Flags: W
HStem: 0 413<650 702> 87 66<472 608 702 743> 275 413<192 203> 275 20<30 62> 275 413 275 20 275 413 275 20
VStem: 30 243<275 295> 447 296<87 153> 608 94<0 87>
Fore
702 153 m 1
 743 153 l 1
 743 87 l 1
 702 87 l 1
 702 0 l 1
 608 0 l 1
 608 87 l 1
 447 87 l 1
 447 154 l 1
 489 217 522 259 611 367 c 2
 650 413 l 1
 702 413 l 1
 702 153 l 1
609 153 m 1
 609 328 l 1
 472 153 l 1
 609 153 l 1
615 688 m 1
 671 688 l 1
 232 -12 l 1
 174 -12 l 1
 615 688 l 1
273 295 m 1
 273 275 l 1
 30 275 l 1
 30 295 l 1
 94 295 107 305 107 355 c 2
 107 576 l 2
 107 604 100 617 84 617 c 0
 75 617 59 613 41 607 c 0
 39 606 34 604 28 602 c 1
 28 623 l 1
 192 688 l 1
 203 688 l 1
 203 351 l 2
 203 305 214 296 273 295 c 1
EndSplineSet
EndChar
StartChar: onehalf
Encoding: 189 189 122
Width: 750
Flags: W
HStem: 0 80<580 666 666 699> 275 20<-5 27> 275 413<157 168> 275 20 345 68<595 605>
VStem: -5 243<275 295> 659 88<280 290>
Fore
573 688 m 1
 629 688 l 1
 190 -12 l 1
 132 -12 l 1
 573 688 l 1
238 295 m 1
 238 275 l 1
 -5 275 l 1
 -5 295 l 1
 59 295 72 305 72 355 c 2
 72 576 l 2
 72 604 65 617 49 617 c 0
 40 617 24 613 6 607 c 0
 4 606 -1 604 -7 602 c 1
 -7 623 l 1
 157 688 l 1
 168 688 l 1
 168 351 l 2
 168 305 179 296 238 295 c 1
775 127 m 1
 745 0 l 1
 475 0 l 1
 475 14 l 1
 624 163 659 211 659 269 c 0
 659 311 626 345 584 345 c 0
 550 345 529 330 508 291 c 1
 484 291 l 1
 518 375 563 413 627 413 c 0
 697 413 747 367 747 302 c 0
 747 258 727 222 673 172 c 2
 580 85 l 1
 580 80 l 1
 666 80 l 2
 732 80 740 84 759 127 c 1
 775 127 l 1
EndSplineSet
EndChar
StartChar: threequarters
Encoding: 190 190 123
Width: 750
Flags: W
HStem: 87 66<462 598 692 733> 668 20<152.5 218.5 613 669 669 669>
VStem: 437 296<87 153> 598 94<0 87>
Fore
613 688 m 1
 669 688 l 1
 230 -12 l 1
 172 -12 l 1
 613 688 l 1
56 590 m 1
 36 597 l 1
 72 658 120 688 185 688 c 0
 252 688 291 658 291 607 c 0
 291 572 278 553 241 533 c 1
 241 529 l 1
 291 509 317 473 317 424 c 0
 317 337 231 268 123 268 c 0
 62 268 23 289 23 322 c 0
 23 341 36 354 63 363 c 1
 92 360 100 356 130 330 c 1
 151 310 163 304 179 304 c 0
 217 304 242 330 242 369 c 0
 242 427 208 459 112 490 c 1
 112 500 l 1
 173 518 196 539 196 579 c 0
 196 616 170 640 131 640 c 0
 100 640 81 627 56 590 c 1
692 153 m 1
 733 153 l 1
 733 87 l 1
 692 87 l 1
 692 0 l 1
 598 0 l 1
 598 87 l 1
 437 87 l 1
 437 154 l 1
 479 217 512 259 601 367 c 2
 640 413 l 1
 692 413 l 1
 692 153 l 1
599 153 m 1
 599 328 l 1
 462 153 l 1
 599 153 l 1
EndSplineSet
EndChar
StartChar: questiondown
Encoding: 191 191 124
Width: 500
Flags: W
HStem: -201 36<261.5 306> 332 169<238 284>
VStem: 55 149<-76 -9> 177 169<394 440> 312 131<-55 -35>
Fore
247 257 m 1
 277 257 l 1
 279 227 279 222 279 211 c 0
 279 183 271 160 247 114 c 0
 214 52 204 17 204 -35 c 0
 204 -117 235 -165 288 -165 c 0
 324 -165 349 -149 349 -125 c 0
 349 -115 346 -109 334 -96 c 0
 317 -77 312 -65 312 -45 c 0
 312 -7 337 19 375 19 c 0
 414 19 443 -13 443 -57 c 0
 443 -141 365 -201 255 -201 c 0
 135 -201 55 -135 55 -35 c 0
 55 34 85 75 176 131 c 0
 239 170 247 184 247 257 c 1
261 332 m 0
 215 332 177 371 177 417 c 0
 177 464 214 501 261 501 c 0
 309 501 346 464 346 416 c 0
 346 371 307 332 261 332 c 0
EndSplineSet
EndChar
StartChar: AE
Encoding: 198 198 131
Width: 1000
Flags: W
HStem: 0 25 0 34<638 710.5> 0 25 0 34 0 25 303 40<264 432> 641 35<633 706> 654 22
VStem: 4 206<0 25> 275 634<654 676> 432 338<343 363> 432 160<119 303 303 303 363 611> 432 338
Fore
432 303 m 1
 242 303 l 1
 142 115 l 2
 131 95 127 82 127 70 c 0
 127 43 141 33 193 27 c 2
 210 25 l 1
 210 0 l 1
 4 0 l 1
 4 25 l 1
 43 31 51 40 114 153 c 1
 327 542 l 2
 330 547 332 552 334 555 c 0
 353 587 362 607 362 617 c 0
 362 641 341 650 275 654 c 1
 275 676 l 1
 909 676 l 1
 909 475 l 1
 884 475 l 1
 871 539 861 563 840 589 c 0
 812 624 752 641 660 641 c 0
 606 641 592 635 592 611 c 2
 592 363 l 1
 709 373 719 383 747 512 c 1
 770 512 l 1
 770 174 l 1
 747 174 l 1
 729 298 704 324 592 331 c 1
 592 88 l 2
 592 45 608 34 668 34 c 0
 753 34 812 53 852 95 c 0
 886 130 920 181 928 211 c 1
 951 211 l 1
 910 0 l 1
 344 0 l 1
 344 25 l 1
 417 29 432 45 432 119 c 2
 432 303 l 1
264 343 m 1
 432 343 l 1
 432 633 l 1
 425 633 l 1
 264 343 l 1
EndSplineSet
EndChar
StartChar: Ccedilla
Encoding: 199 199 132
Width: 722
Flags: W
HStem: -217 40 -19 48<401 401> 454 234<644 669 644 644> 658 33<350 421>
VStem: 49 177<291 434.5> 409 93<-149 -125>
Fore
401 -19 m 1
 381 -64 l 1
 393 -60 401 -59 414 -59 c 0
 469 -59 502 -85 502 -129 c 0
 502 -184 452 -218 372 -218 c 0
 339 -218 312 -213 276 -200 c 1
 292 -163 l 1
 298 -165 l 2
 323 -174 335 -177 351 -177 c 0
 388 -177 409 -162 409 -136 c 0
 409 -114 392 -100 363 -100 c 0
 354 -100 346 -101 335 -104 c 1
 324 -96 l 1
 359 -17 l 1
 356 -16 l 2
 174 2 49 144 49 332 c 0
 49 537 198 691 397 691 c 0
 445 691 493 680 552 656 c 0
 574 646 589 642 598 642 c 0
 617 642 628 653 642 688 c 1
 669 688 l 1
 669 454 l 1
 644 454 l 1
 609 530 586 563 543 602 c 0
 500 640 457 658 410 658 c 0
 290 658 226 548 226 341 c 0
 226 241 240 169 269 116 c 0
 298 64 361 29 427 29 c 0
 455 29 488 35 517 47 c 0
 566 66 598 90 657 152 c 1
 687 127 l 1
 593 20 518 -18 401 -19 c 1
EndSplineSet
KernsSLIF: 65 -33 0 0
EndChar
StartChar: Eth
Encoding: 208 208 141
Width: 722
Flags: W
HStem: 0 25 0 35<294.5 330> 0 25 0 35 326 47<6 97 259 373> 642 34<305 319 319 354.5> 651 25
VStem: 6 367<326 373> 97 162<91 93 93 326 373 584 584 595> 516 174<282.5 372>
Fore
6 326 m 1
 6 373 l 1
 97 373 l 1
 97 584 l 2
 97 630 78 645 14 651 c 1
 14 676 l 1
 319 676 l 2
 550 676 690 551 690 345 c 0
 690 138 546 0 330 0 c 2
 14 0 l 1
 14 25 l 1
 72 27 97 47 97 91 c 2
 97 326 l 1
 6 326 l 1
373 373 m 1
 373 326 l 1
 259 326 l 1
 259 93 l 2
 259 48 272 35 317 35 c 0
 382 35 430 58 464 104 c 0
 496 149 516 235 516 330 c 0
 516 414 502 487 475 540 c 0
 441 609 390 642 319 642 c 0
 291 642 272 636 264 625 c 0
 260 620 259 612 259 595 c 2
 259 373 l 1
 373 373 l 1
EndSplineSet
EndChar
StartChar: multiply
Encoding: 215 215 148
Width: 570
Flags: W
Fore
223 253 m 1
 48 428 l 1
 110 490 l 1
 285 314 l 1
 460 490 l 1
 522 428 l 1
 346 253 l 1
 522 78 l 1
 460 16 l 1
 285 192 l 1
 110 16 l 1
 48 78 l 1
 223 253 l 1
EndSplineSet
EndChar
StartChar: Oslash
Encoding: 216 216 149
Width: 778
Flags: MW
HStem: -19 33<357.5 447> 658 33<332.5 418.5>
VStem: 35 177<310.5 433.5> 566 177<232 370>
Fore
685 737 m 1
 607 622 l 1
 655 582 674 561 696 523 c 0
 727 468 743 404 743 336 c 0
 743 128 596 -19 389 -19 c 0
 317 -19 265 -5 202 30 c 1
 131 -74 l 1
 81 -74 l 1
 167 52 l 1
 108 103 84 135 61 195 c 0
 44 239 35 286 35 335 c 0
 35 542 183 691 390 691 c 0
 458 691 509 678 572 644 c 1
 635 737 l 1
 685 737 l 1
234 151 m 1
 520 569 l 1
 485 633 448 658 389 658 c 0
 276 658 212 539 212 328 c 0
 212 254 217 212 234 151 c 1
540 524 m 1
 253 104 l 1
 287 40 326 14 389 14 c 0
 505 14 566 124 566 331 c 0
 566 411 560 459 540 524 c 1
EndSplineSet
KernsSLIF: 65 -52 0 0
EndChar
StartChar: Thorn
Encoding: 222 222 155
Width: 611
Flags: W
HStem: 0 25 0 29<38.5 40> 0 25 0 29 0 25 173 35 511 35<295.5 328 328 353.5> 651 25
VStem: 100 162<117 173 208 476 546 558> 428 172<331 413>
Fore
262 546 m 1
 328 546 l 2
 507 546 600 483 600 363 c 0
 600 299 569 247 512 212 c 0
 457 180 421 174 262 173 c 1
 262 117 l 2
 262 44 271 35 350 25 c 1
 350 0 l 1
 16 0 l 1
 16 25 l 1
 27 27 37 29 40 29 c 0
 87 35 100 55 100 117 c 2
 100 559 l 2
 100 629 86 645 16 651 c 1
 16 676 l 1
 350 676 l 1
 350 651 l 1
 270 640 262 631 262 558 c 2
 262 546 l 1
262 476 m 2
 262 208 l 1
 333 208 366 215 390 235 c 0
 416 258 428 296 428 359 c 0
 428 467 395 511 312 511 c 0
 279 511 262 499 262 476 c 2
EndSplineSet
EndChar
StartChar: germandbls
Encoding: 223 223 156
Width: 556
Flags: W
HStem: -12 35<319 333.5> 0 21<19 209 19 19> 663 28<249 293>
VStem: 70 139<87 507 507 560.5> 339 137<516 577> 371 146<137 220.5>
Fore
70 87 m 2
 70 507 l 2
 70 614 156 691 277 691 c 0
 391 691 476 625 476 537 c 0
 476 495 455 457 417 431 c 0
 391 413 369 404 320 393 c 1
 401 369 435 353 467 322 c 0
 500 291 517 247 517 194 c 0
 517 80 433 -12 328 -12 c 0
 310 -12 294 -8 264 3 c 1
 278 37 l 1
 288 30 l 2
 297 24 301 23 310 23 c 0
 357 23 371 63 371 195 c 0
 371 282 359 331 333 354 c 0
 318 366 302 371 269 373 c 1
 269 407 l 1
 326 408 339 431 339 530 c 0
 339 624 318 663 268 663 c 0
 230 663 209 636 209 586 c 2
 209 0 l 1
 19 0 l 1
 19 24 l 1
 62 31 70 41 70 87 c 2
EndSplineSet
EndChar
StartChar: ae
Encoding: 230 230 163
Width: 722
Flags: W
HStem: -9 70<508.5 531.5> 248 37<434 567> 441 32<199 246>
VStem: 33 144<97.5 116> 50 132<328.5 350.5> 296 138<167.5 225 225 248 285 344> 296 391 296 138 296 391
Fore
672 128 m 1
 693 113 l 1
 634 23 579 -9 484 -9 c 0
 414 -9 375 13 337 75 c 1
 331 69 l 2
 275 13 216 -14 151 -14 c 0
 74 -14 33 24 33 94 c 0
 33 138 51 171 90 198 c 0
 122 221 167 238 296 280 c 1
 296 360 l 2
 296 418 274 441 218 441 c 0
 180 441 153 426 153 406 c 0
 153 399 156 394 165 384 c 0
 178 369 182 360 182 341 c 0
 182 305 159 284 119 284 c 0
 77 284 50 309 50 348 c 0
 50 420 127 473 232 473 c 0
 298 473 336 459 374 422 c 1
 411 458 449 473 501 473 c 0
 575 473 636 436 666 375 c 0
 683 340 688 310 688 248 c 1
 434 248 l 1
 434 225 l 2
 434 110 468 61 549 61 c 0
 598 61 633 80 672 128 c 1
296 81 m 1
 296 248 l 1
 208 216 177 183 177 121 c 0
 177 74 197 49 234 49 c 0
 257 49 272 56 296 81 c 1
434 285 m 1
 567 285 l 1
 567 318 l 2
 567 411 551 443 504 443 c 0
 452 443 434 403 434 285 c 1
EndSplineSet
KernsSLIF: 118 -34 0 0 119 -35 0 0 121 -37 0 0
EndChar
StartChar: ccedilla
Encoding: 231 231 164
Width: 444
Flags: W
HStem: -217 40 442 30
VStem: 25 141<208 294.5> 270 93<-149 -125> 292 124<372 393>
Fore
265 -13 m 1
 242 -64 l 1
 254 -60 262 -59 275 -59 c 0
 330 -59 363 -85 363 -129 c 0
 363 -184 313 -218 233 -218 c 0
 200 -218 173 -213 137 -200 c 1
 153 -163 l 1
 159 -165 l 2
 184 -174 196 -177 212 -177 c 0
 249 -177 270 -162 270 -136 c 0
 270 -114 253 -100 224 -100 c 0
 215 -100 207 -101 196 -104 c 1
 185 -96 l 1
 222 -13 l 1
 103 -2 25 91 25 222 c 0
 25 367 125 473 261 473 c 0
 349 473 416 425 416 363 c 0
 416 324 390 300 348 300 c 0
 311 300 293 323 292 372 c 0
 292 414 292 414 287 423 c 0
 281 434 266 442 250 442 c 0
 198 442 166 379 166 276 c 0
 166 140 221 53 308 53 c 0
 349 53 375 67 412 109 c 1
 430 91 l 1
 383 28 334 -3 265 -13 c 1
EndSplineSet
EndChar
StartChar: eth
Encoding: 240 240 173
Width: 500
Flags: MW
HStem: -14 31<239 281> 442 31<221.5 270>
VStem: 25 147<174.5 298.5> 329 147<196 310>
Fore
256 574 m 1
 146 518 l 1
 98 549 l 1
 215 608 l 1
 172 639 132 657 82 666 c 1
 128 691 l 1
 189 685 238 671 288 645 c 1
 378 691 l 1
 427 661 l 1
 335 614 l 1
 396 564 420 532 445 471 c 0
 466 419 476 360 476 293 c 0
 476 99 393 -14 251 -14 c 0
 121 -14 25 89 25 229 c 0
 25 368 122 473 249 473 c 0
 291 473 314 462 340 432 c 1
 342 435 l 1
 323 492 297 533 256 574 c 1
252 442 m 0
 191 442 172 388 172 222 c 0
 172 127 178 80 194 50 c 0
 207 28 226 17 252 17 c 0
 310 17 329 69 329 233 c 0
 329 387 309 442 252 442 c 0
EndSplineSet
EndChar
StartChar: divide
Encoding: 247 247 180
Width: 570
Flags: W
HStem: -31 153<265 305.5> 209 88<33 537> 384 153<265 305.5>
VStem: 33 504<209 297> 209 153<27 67 441 481>
Fore
537 209 m 1
 33 209 l 1
 33 297 l 1
 537 297 l 1
 537 209 l 1
285 537 m 0
 326 537 362 501 362 461 c 128
 362 421 326 384 286 384 c 0
 244 384 209 419 209 461 c 0
 209 501 245 537 285 537 c 0
285 122 m 0
 326 122 362 87 362 47 c 128
 362 7 325 -31 286 -31 c 0
 244 -31 209 5 209 47 c 0
 209 87 244 122 285 122 c 0
EndSplineSet
EndChar
StartChar: oslash
Encoding: 248 248 181
Width: 500
Flags: MW
HStem: -14 31<233.5 280> 442 31<221 268.5>
VStem: 25 147<196 299> 329 147<159 233>
Fore
461 549 m 1
 388 426 l 1
 449 371 476 311 476 229 c 0
 476 89 380 -14 251 -14 c 0
 211 -14 180 -6 144 13 c 1
 81 -92 l 1
 34 -92 l 1
 110 36 l 1
 50 92 25 150 25 229 c 0
 25 369 122 473 252 473 c 0
 290 473 320 466 355 448 c 1
 415 549 l 1
 461 549 l 1
173 140 m 1
 316 382 l 1
 303 425 285 442 252 442 c 0
 190 442 172 390 172 210 c 0
 172 182 172 160 173 140 c 1
327 324 m 1
 183 80 l 1
 196 35 216 17 251 17 c 0
 309 17 329 70 329 219 c 0
 329 247 328 277 327 324 c 1
EndSplineSet
EndChar
StartChar: thorn
Encoding: 254 254 187
Width: 556
Flags: W
HStem: -205 21 -13 55<310 320.5> 416 57<308 326> 656 20<20 214 214 214>
VStem: 19 273<-205 -184> 75 139<-123 -94 -94 47 103 346 391 594 594 614> 376 148<165 290.5>
Fore
214 676 m 1
 214 391 l 1
 243 450 278 473 338 473 c 0
 449 473 524 378 524 239 c 0
 524 91 444 -13 332 -13 c 0
 288 -13 262 0 214 47 c 1
 214 -94 l 2
 214 -161 231 -181 292 -184 c 1
 292 -205 l 1
 19 -205 l 1
 19 -181 l 1
 67 -173 75 -164 75 -123 c 2
 75 594 l 2
 75 634 66 643 20 652 c 1
 20 676 l 1
 214 676 l 1
214 346 m 2
 214 103 l 1
 233 62 259 42 293 42 c 0
 348 42 376 103 376 225 c 0
 376 356 352 416 300 416 c 0
 278 416 255 404 235 382 c 0
 223 369 214 353 214 346 c 2
EndSplineSet
EndChar
StartChar: Aogonek
Encoding: 260 260 193
Width: 722
Flags: W
HStem: -173 69<719.5 724> 0 25 197 39<189 384> 670 20<329 357 357 357>
VStem: 9 203<0 25> 365 324<0 25> 593 84
Fore
689 25 m 1
 689 0 l 1
 680 -10 677 -21 677 -40 c 0
 677 -81 699 -104 740 -104 c 0
 755 -104 766 -101 786 -91 c 0
 794 -87 795 -86 800 -84 c 1
 822 -98 l 1
 797 -144 749 -173 699 -173 c 0
 638 -173 593 -139 593 -92 c 0
 593 -64 602 -45 636 0 c 1
 365 0 l 1
 365 25 l 1
 379 26 392 27 397 28 c 0
 432 30 445 39 445 61 c 128
 445 83 433 119 399 197 c 1
 174 197 l 1
 159 157 l 1
 138 104 130 79 130 66 c 0
 130 40 152 29 212 25 c 1
 212 0 l 1
 9 0 l 1
 9 25 l 1
 57 34 69 48 107 142 c 2
 329 690 l 1
 357 690 l 1
 580 164 l 2
 633 40 645 25 689 25 c 1
189 236 m 1
 384 236 l 1
 283 479 l 1
 189 236 l 1
EndSplineSet
EndChar
StartChar: aogonek
Encoding: 261 261 194
Width: 500
Flags: W
HStem: -173 69<401 402> 441 31
VStem: 25 146<104 113.5> 44 133<326.5 346> 271 83 293 138<100 245 245 245>
Fore
473 64 m 1
 488 43 l 1
 452 4 447 2 389 -16 c 0
 369 -23 354 -41 354 -60 c 0
 354 -84 383 -104 419 -104 c 0
 433 -104 444 -101 464 -91 c 0
 472 -87 473 -86 478 -84 c 1
 500 -98 l 1
 475 -144 427 -173 377 -173 c 0
 316 -173 271 -139 271 -92 c 0
 271 -64 281 -43 317 5 c 1
 305 17 300 29 294 56 c 1
 239 6 193 -14 136 -14 c 0
 72 -14 25 31 25 92 c 0
 25 135 46 169 89 199 c 0
 126 224 175 244 294 280 c 1
 294 353 l 2
 294 414 268 441 210 441 c 0
 175 441 147 425 147 404 c 0
 147 398 150 392 159 382 c 0
 171 366 177 353 177 339 c 0
 177 305 149 281 109 281 c 0
 68 281 44 306 44 347 c 0
 44 422 120 473 233 473 c 0
 355 473 431 420 431 336 c 2
 431 75 l 2
 431 59 438 50 452 50 c 0
 457 50 460 51 463 54 c 2
 473 64 l 1
293 100 m 1
 293 245 l 1
 213 224 171 182 171 124 c 0
 171 84 192 57 222 57 c 0
 246 57 266 69 293 100 c 1
EndSplineSet
EndChar
StartChar: dcaron
Encoding: 271 271 204
Width: 556
Flags: W
HStem: -14 56<224.5 232.5> 417 56<229 240> 546 145<552.5 569> 652 24
VStem: 25 148<165.5 293.5> 336 139<112 355 355 355 411 594 594 617> 339 195<20 43> 500 165<595.5 617.5>
Fore
339 -13 m 1
 339 52 l 1
 292 2 259 -14 206 -14 c 0
 101 -14 25 85 25 221 c 0
 25 366 107 473 217 473 c 0
 263 473 293 457 336 411 c 1
 336 594 l 2
 336 640 327 647 260 652 c 1
 260 676 l 1
 475 676 l 1
 475 101 l 2
 475 59 488 46 534 43 c 1
 534 20 l 1
 472 12 l 2
 410 5 385 0 339 -13 c 1
336 112 m 2
 336 355 l 1
 322 393 291 417 258 417 c 0
 200 417 173 358 173 229 c 0
 173 102 198 42 251 42 c 0
 273 42 294 53 314 76 c 0
 326 89 336 106 336 112 c 2
516 390 m 1
 506 409 l 1
 574 457 604 494 604 529 c 0
 604 539 596 548 587 548 c 0
 586 548 583 548 580 547 c 0
 576 546 571 546 567 546 c 0
 526 546 500 574 500 617 c 0
 500 662 530 691 575 691 c 0
 629 691 665 649 665 586 c 0
 665 508 620 449 516 390 c 1
EndSplineSet
EndChar
StartChar: dcroat
Encoding: 273 273 206
Width: 556
Flags: W
HStem: -14 56<224.5 232.5> 417 56<229 240> 545 44<244 336 475 534> 652 24
VStem: 25 148<165.5 293.5> 244 290<545 589> 336 139<112 355 355 355 411 545 589 594 594 617> 339 195<20 43>
Fore
336 545 m 1
 244 545 l 1
 244 589 l 1
 336 589 l 1
 336 594 l 2
 336 640 327 647 260 652 c 1
 260 676 l 1
 475 676 l 1
 475 589 l 1
 534 589 l 1
 534 545 l 1
 475 545 l 1
 475 101 l 2
 475 59 488 46 534 43 c 1
 534 20 l 1
 472 12 l 2
 410 5 385 0 339 -13 c 1
 339 52 l 1
 292 2 259 -14 206 -14 c 0
 101 -14 25 85 25 221 c 0
 25 366 107 473 217 473 c 0
 263 473 293 457 336 411 c 1
 336 545 l 1
336 112 m 2
 336 355 l 1
 322 393 291 417 258 417 c 0
 200 417 173 358 173 229 c 0
 173 102 198 42 251 42 c 0
 273 42 294 53 314 76 c 0
 326 89 336 106 336 112 c 2
EndSplineSet
EndChar
StartChar: Eogonek
Encoding: 280 280 213
Width: 667
Flags: W
HStem: -173 69<636 639> 0 31<317 387> 0 25 174 338<428 454> 329 34 642 34<305 412.5> 651 25
VStem: 16 577<651 676> 104 162<96 329 363 580 580 595> 508 84
Fore
454 512 m 1
 454 174 l 1
 428 174 l 1
 416 290 375 329 266 329 c 1
 266 87 l 2
 266 44 285 31 349 31 c 0
 425 31 480 47 526 84 c 0
 562 113 582 141 613 208 c 1
 641 208 l 1
 607 33 l 1
 592 -37 592 -37 592 -47 c 0
 592 -81 617 -104 655 -104 c 0
 670 -104 681 -101 701 -91 c 0
 709 -87 710 -86 715 -84 c 1
 737 -98 l 1
 712 -144 664 -173 614 -173 c 0
 553 -173 508 -139 508 -92 c 0
 508 -64 517 -45 551 0 c 1
 16 0 l 1
 16 25 l 1
 90 33 104 44 104 96 c 2
 104 580 l 2
 104 631 85 647 16 651 c 1
 16 676 l 1
 593 676 l 1
 593 475 l 1
 568 475 l 1
 543 608 494 642 331 642 c 0
 279 642 266 633 266 595 c 2
 266 363 l 1
 374 362 413 398 428 512 c 1
 454 512 l 1
EndSplineSet
EndChar
StartChar: eogonek
Encoding: 281 281 214
Width: 444
Flags: MW
HStem: -173 69<341 346> 245 37<169 298 169 169> 442 31<209.5 248>
VStem: 215 84
Fore
421 245 m 1
 169 245 l 1
 173 176 181 143 199 111 c 0
 220 76 249 58 288 58 c 0
 331 58 362 76 402 125 c 1
 426 111 l 1
 390 58 368 36 323 4 c 0
 304 -9 299 -17 299 -37 c 0
 299 -81 320 -104 362 -104 c 0
 377 -104 388 -101 408 -91 c 0
 416 -87 417 -86 422 -84 c 1
 444 -98 l 1
 419 -144 371 -173 321 -173 c 0
 260 -173 215 -139 215 -92 c 0
 215 -67 222 -49 248 -13 c 1
 240 -14 233 -14 229 -14 c 0
 107 -14 25 83 25 228 c 0
 25 374 109 473 234 473 c 0
 289 473 335 453 368 414 c 0
 400 376 415 329 421 245 c 1
164 282 m 1
 298 282 l 1
 298 297 l 1
 296 348 294 376 289 395 c 0
 281 426 262 442 234 442 c 0
 185 442 167 402 164 282 c 1
EndSplineSet
EndChar
StartChar: Gcommaaccent
Encoding: 290 290 223
Width: 778
Flags: W
HStem: -185 145<357.5 374> -19 33<385.5 444.5> 262 25 454 234<632 657 632 632> 658 33<337.5 409>
VStem: 37 177<278 434> 305 165<-135.5 -113.5> 412 343<262 287> 513 156<87 170>
Fore
755 287 m 1
 755 262 l 1
 680 254 669 242 669 170 c 2
 669 43 l 1
 605 5 496 -19 393 -19 c 0
 183 -19 37 125 37 331 c 128
 37 537 186 691 385 691 c 0
 433 691 481 680 540 656 c 0
 562 646 577 642 586 642 c 0
 605 642 616 653 630 688 c 1
 657 688 l 1
 657 454 l 1
 632 454 l 1
 597 530 574 564 531 602 c 0
 487 640 444 658 398 658 c 0
 277 658 214 547 214 338 c 0
 214 218 235 132 279 76 c 0
 312 33 354 14 417 14 c 0
 484 14 513 36 513 87 c 2
 513 192 l 2
 513 246 498 257 412 262 c 1
 412 287 l 1
 755 287 l 1
321 -341 m 1
 311 -322 l 1
 379 -274 409 -237 409 -202 c 0
 409 -192 401 -183 392 -183 c 0
 391 -183 388 -183 385 -184 c 0
 381 -185 376 -185 372 -185 c 0
 331 -185 305 -157 305 -114 c 0
 305 -69 335 -40 380 -40 c 0
 434 -40 470 -82 470 -145 c 0
 470 -223 425 -282 321 -341 c 1
EndSplineSet
EndChar
StartChar: gcommaaccent
Encoding: 291 291 224
Width: 500
Flags: W
HStem: -206 32<206 299.5> -52 120<254 319 319 324> 154 28 398 53<401 482 401 401> 442 31<216.5 260> 510 143<241.5 246.5>
VStem: 28 88<-129 -96.5> 37 137<295 358> 168 165<583.5 605.5> 306 135<273.5 320> 404 79<-104.5 -85.5>
Fore
317 811 m 1
 327 792 l 1
 259 744 229 707 229 672 c 0
 229 662 237 653 246 653 c 0
 247 653 250 653 253 654 c 0
 257 655 262 655 266 655 c 0
 307 655 333 627 333 584 c 0
 333 539 303 510 258 510 c 0
 204 510 168 552 168 615 c 0
 168 693 213 752 317 811 c 1
482 398 m 1
 401 398 l 1
 429 370 441 340 441 300 c 0
 441 247 418 206 373 180 c 0
 339 160 314 154 267 154 c 2
 222 155 l 2
 182 155 154 133 154 103 c 0
 154 75 174 68 254 68 c 2
 319 68 l 2
 421 68 483 22 483 -55 c 0
 483 -154 395 -206 229 -206 c 0
 103 -206 28 -172 28 -114 c 0
 28 -73 61 -48 124 -39 c 1
 60 -16 42 2 42 43 c 0
 42 95 82 133 161 160 c 1
 114 180 95 193 73 217 c 1
 50 245 37 278 37 312 c 0
 37 407 121 473 240 473 c 0
 280 473 308 467 352 451 c 1
 482 451 l 1
 482 398 l 1
324 -52 m 2
 151 -52 l 1
 123 -75 116 -86 116 -107 c 0
 116 -151 162 -174 250 -174 c 0
 349 -174 404 -148 404 -102 c 0
 404 -69 378 -52 324 -52 c 2
240 442 m 0
 193 442 174 405 174 311 c 0
 174 218 192 182 240 182 c 0
 287 182 306 218 306 311 c 128
 306 404 287 442 240 442 c 0
EndSplineSet
EndChar
StartChar: Hbar
Encoding: 294 294 227
Width: 778
Flags: MW
HStem: 0 25 326 47<268 509> 456 72<30 106 268 509 671 746> 651 25
VStem: 106 162<96 326 373 456 528 580> 509 162<96 326 326 326 373 456 528 580>
Fore
509 96 m 2
 509 326 l 1
 268 326 l 1
 268 96 l 2
 268 47 285 33 358 25 c 1
 358 0 l 1
 21 0 l 1
 21 25 l 1
 91 34 106 47 106 96 c 2
 106 456 l 1
 30 456 l 1
 30 528 l 1
 106 528 l 1
 106 580 l 2
 106 630 88 645 21 651 c 1
 21 676 l 1
 358 676 l 1
 358 651 l 1
 288 646 268 630 268 580 c 2
 268 528 l 1
 509 528 l 1
 509 580 l 2
 509 630 489 646 419 651 c 1
 419 676 l 1
 759 676 l 1
 759 651 l 1
 691 646 671 630 671 580 c 2
 671 528 l 1
 746 528 l 1
 746 456 l 1
 671 456 l 1
 671 96 l 2
 671 47 687 34 759 25 c 1
 759 0 l 1
 419 0 l 1
 419 25 l 1
 492 33 509 47 509 96 c 2
509 373 m 1
 509 456 l 1
 268 456 l 1
 268 373 l 1
 509 373 l 1
EndSplineSet
EndChar
StartChar: hbar
Encoding: 295 295 228
Width: 556
Flags: W
HStem: 0 24 505 72<13 69 208 343> 656 20<16 208 208 208>
VStem: 13 330<505 577> 69 139<84 348 395 505 577 594 594 614.5> 346 139<81 84 84 323 323 332>
Fore
16 676 m 1
 208 676 l 1
 208 577 l 1
 343 577 l 1
 343 505 l 1
 208 505 l 1
 208 395 l 1
 260 453 297 473 350 473 c 0
 432 473 485 418 485 332 c 2
 485 84 l 2
 485 42 498 27 534 24 c 1
 534 0 l 1
 299 0 l 1
 299 24 l 1
 333 28 346 44 346 81 c 2
 346 323 l 2
 346 379 329 406 294 406 c 0
 271 406 247 394 225 371 c 1
 215 362 208 352 208 348 c 2
 208 81 l 2
 208 44 220 29 257 24 c 1
 257 0 l 1
 16 0 l 1
 16 24 l 1
 61 33 69 42 69 84 c 2
 69 505 l 1
 13 505 l 1
 13 577 l 1
 69 577 l 1
 69 594 l 2
 69 635 62 643 16 652 c 1
 16 676 l 1
EndSplineSet
EndChar
StartChar: Iogonek
Encoding: 302 302 235
Width: 389
Flags: MW
HStem: -173 69<402.5 407> 0 25 651 25
VStem: 113 162<96 580> 276 84
Fore
370 25 m 1
 370 0 l 1
 363 -11 360 -23 360 -40 c 0
 360 -81 382 -104 423 -104 c 0
 438 -104 449 -101 469 -91 c 0
 477 -87 478 -86 483 -84 c 1
 505 -98 l 1
 480 -144 432 -173 382 -173 c 0
 321 -173 276 -139 276 -92 c 0
 276 -64 285 -46 319 0 c 1
 20 0 l 1
 20 25 l 1
 95 32 113 46 113 96 c 2
 113 580 l 2
 113 631 92 646 20 651 c 1
 20 676 l 1
 370 676 l 1
 370 651 l 1
 296 648 275 632 275 580 c 2
 275 96 l 2
 275 44 294 30 370 25 c 1
EndSplineSet
EndChar
StartChar: iogonek
Encoding: 303 303 236
Width: 278
Flags: W
HStem: -173 69<285.5 290> 441 20<16 208 208 208> 536 155<116.5 159>
VStem: 16 239<0 24> 69 139<84 378 378 398.5> 159 84
Fore
255 24 m 1
 255 0 l 1
 246 -10 243 -21 243 -39 c 0
 243 -81 265 -104 306 -104 c 0
 321 -104 332 -101 352 -91 c 0
 360 -87 361 -86 366 -84 c 1
 388 -98 l 1
 363 -144 315 -173 265 -173 c 0
 204 -173 159 -139 159 -92 c 0
 159 -64 168 -46 202 0 c 1
 16 0 l 1
 16 24 l 1
 62 35 69 43 69 84 c 2
 69 378 l 2
 69 419 60 428 16 437 c 1
 16 461 l 1
 208 461 l 1
 208 81 l 2
 208 43 220 29 255 24 c 1
138 691 m 0
 181 691 215 656 215 613 c 0
 215 569 181 536 137 536 c 128
 93 536 60 569 60 614 c 0
 60 656 95 691 138 691 c 0
EndSplineSet
EndChar
StartChar: dotlessi
Encoding: 305 305 238
Width: 278
Flags: W
HStem: 0 21<16 255 16 16> 441 20<16 208 208 208>
VStem: 16 239<0 24> 69 139<84 378 378 398.5>
Fore
208 461 m 1
 208 81 l 2
 208 43 220 29 255 24 c 1
 255 0 l 1
 16 0 l 1
 16 24 l 1
 62 35 69 43 69 84 c 2
 69 378 l 2
 69 419 60 428 16 437 c 1
 16 461 l 1
 208 461 l 1
EndSplineSet
EndChar
StartChar: jcircumflex
Encoding: 309 309 242
Width: 333
Flags: MW
HStem: -203 31<64.5 90.5> 437 24
VStem: -56 121<-101 -85> 122 139<-27.5 2 2 378 378 399.5>
Fore
277 592 m 1
 165 690 l 1
 53 592 l 1
 -3 592 l 1
 119 768 l 1
 211 768 l 1
 335 592 l 1
 277 592 l 1
261 461 m 1
 261 2 l 2
 261 -57 253 -95 234 -127 c 0
 206 -176 153 -203 84 -203 c 0
 2 -203 -56 -162 -56 -103 c 0
 -56 -67 -31 -42 6 -42 c 0
 38 -42 65 -66 65 -96 c 0
 65 -106 61 -117 51 -133 c 0
 45 -143 42 -150 42 -155 c 0
 42 -165 55 -172 74 -172 c 0
 107 -172 122 -149 122 -96 c 2
 122 378 l 2
 122 421 110 433 59 437 c 1
 59 461 l 1
 261 461 l 1
EndSplineSet
EndChar
StartChar: Kcommaaccent
Encoding: 310 310 243
Width: 778
Flags: W
HStem: -185 145<358.5 375> 0 25 651 25
VStem: 117 162<96 292 345 559> 306 165<-135.5 -113.5> 433 336<0 25> 447 289<651 676>
Fore
769 25 m 1
 769 0 l 1
 433 0 l 1
 433 25 l 1
 447 26 460 26 465 26 c 0
 498 28 512 33 512 46 c 0
 512 57 507 66 488 90 c 2
 306 317 l 1
 279 292 l 1
 279 96 l 2
 279 47 295 34 367 25 c 1
 367 0 l 1
 30 0 l 1
 30 25 l 1
 102 33 117 45 117 96 c 2
 117 580 l 2
 117 632 99 647 30 651 c 1
 30 676 l 1
 368 676 l 1
 368 651 l 1
 294 646 279 630 279 559 c 2
 279 345 l 1
 496 563 l 2
 527 594 532 602 532 618 c 0
 532 638 519 646 483 648 c 0
 478 649 464 650 447 651 c 1
 447 676 l 1
 736 676 l 1
 736 651 l 1
 639 643 603 618 415 424 c 1
 720 46 l 1
 733 31 744 26 769 25 c 1
322 -341 m 1
 312 -322 l 1
 380 -274 410 -237 410 -202 c 0
 410 -192 402 -183 393 -183 c 0
 392 -183 389 -183 386 -184 c 0
 382 -185 377 -185 373 -185 c 0
 332 -185 306 -157 306 -114 c 0
 306 -69 336 -40 381 -40 c 0
 435 -40 471 -82 471 -145 c 0
 471 -223 426 -282 322 -341 c 1
EndSplineSet
EndChar
StartChar: kcommaaccent
Encoding: 311 311 244
Width: 556
Flags: W
HStem: -185 145<247.5 264> 0 24<537.5 543> 438 23 652 24
VStem: 70 139<84 198 245 594 594 613> 195 165<-135.5 -113.5> 299 214<438 461> 309 234<0 24>
Fore
513 461 m 1
 513 438 l 1
 450 430 424 412 324 307 c 1
 518 39 l 2
 527 27 532 24 543 24 c 1
 543 0 l 1
 309 0 l 1
 309 24 l 1
 337 25 351 31 351 43 c 0
 351 51 344 63 327 88 c 2
 232 222 l 1
 209 198 l 1
 209 84 l 2
 209 37 214 31 261 24 c 1
 261 0 l 1
 22 0 l 1
 22 24 l 1
 55 27 70 45 70 84 c 2
 70 594 l 2
 70 632 56 649 22 652 c 1
 22 676 l 1
 209 676 l 1
 209 245 l 1
 337 373 l 2
 348 384 358 402 358 411 c 0
 358 424 347 431 323 434 c 0
 320 435 310 436 299 438 c 1
 299 461 l 1
 513 461 l 1
211 -341 m 1
 201 -322 l 1
 269 -274 299 -237 299 -202 c 0
 299 -192 291 -183 282 -183 c 0
 281 -183 278 -183 275 -184 c 0
 271 -185 266 -185 262 -185 c 0
 221 -185 195 -157 195 -114 c 0
 195 -69 225 -40 270 -40 c 0
 324 -40 360 -82 360 -145 c 0
 360 -223 315 -282 211 -341 c 1
EndSplineSet
EndChar
StartChar: kgreenlandic
Encoding: 312 312 245
Width: 534
Flags: W
HStem: 0 24<508.5 514> 396 74<382.5 401.5> 437 24
VStem: 70 139<84 214 261 377>
Fore
70 377 m 2
 70 416 55 434 22 437 c 1
 22 461 l 1
 261 461 l 1
 261 437 l 1
 214 430 209 424 209 377 c 2
 209 261 l 1
 230 262 l 2
 246 263 314 324 318 368 c 0
 320 392 344 470 421 470 c 0
 477 470 492 450 491 410 c 0
 490 384 470 366 444 366 c 0
 402 366 414 396 389 396 c 0
 352 396 351 271 297 243 c 1
 326 242 366 228 383 200 c 1
 485 39 l 2
 493 26 503 24 514 24 c 1
 514 0 l 1
 366 0 l 1
 264 168 l 1
 264 168 235 214 219 214 c 2
 209 214 l 1
 209 84 l 2
 209 37 214 31 261 24 c 1
 261 0 l 1
 22 0 l 1
 22 24 l 1
 55 27 70 45 70 84 c 2
 70 377 l 2
EndSplineSet
EndChar
StartChar: Lcommaaccent
Encoding: 315 315 248
Width: 667
Flags: W
HStem: -185 145<304.5 321> 0 31<316.5 385.5> 0 25 0 31 651 25
VStem: 19 349<651 676> 105 162<96 559> 252 165<-135.5 -113.5>
Fore
638 227 m 1
 597 0 l 1
 19 0 l 1
 19 25 l 1
 92 34 105 45 105 96 c 2
 105 580 l 2
 105 631 87 647 19 651 c 1
 19 676 l 1
 368 676 l 1
 368 651 l 1
 281 647 267 634 267 559 c 2
 267 87 l 2
 267 44 286 31 347 31 c 0
 424 31 480 49 521 86 c 0
 556 118 576 149 609 227 c 1
 638 227 l 1
268 -341 m 1
 258 -322 l 1
 326 -274 356 -237 356 -202 c 0
 356 -192 348 -183 339 -183 c 0
 338 -183 335 -183 332 -184 c 0
 328 -185 323 -185 319 -185 c 0
 278 -185 252 -157 252 -114 c 0
 252 -69 282 -40 327 -40 c 0
 381 -40 417 -82 417 -145 c 0
 417 -223 372 -282 268 -341 c 1
EndSplineSet
EndChar
StartChar: lcommaaccent
Encoding: 316 316 249
Width: 278
Flags: MW
HStem: -185 145<107.5 124> 0 24 652 24
VStem: 67 139<84 594 594 612.5>
Fore
206 676 m 1
 206 84 l 2
 206 44 222 25 255 24 c 1
 255 0 l 1
 16 0 l 1
 16 24 l 1
 50 27 67 47 67 84 c 2
 67 594 l 2
 67 631 51 649 16 652 c 1
 16 676 l 1
 206 676 l 1
71 -341 m 1
 61 -322 l 1
 129 -274 159 -237 159 -202 c 0
 159 -192 151 -183 142 -183 c 0
 141 -183 138 -183 135 -184 c 0
 131 -185 126 -185 122 -185 c 0
 81 -185 55 -157 55 -114 c 0
 55 -69 85 -40 130 -40 c 0
 184 -40 220 -82 220 -145 c 0
 220 -223 175 -282 71 -341 c 1
EndSplineSet
EndChar
StartChar: Lcaron
Encoding: 317 317 250
Width: 667
Flags: W
HStem: 0 31<316.5 385.5> 0 25 0 31 546 145<484.5 501> 651 25
VStem: 19 349<651 676> 105 162<96 559> 432 165<595.5 617.5>
Fore
638 227 m 1
 597 0 l 1
 19 0 l 1
 19 25 l 1
 92 34 105 45 105 96 c 2
 105 580 l 2
 105 631 87 647 19 651 c 1
 19 676 l 1
 368 676 l 1
 368 651 l 1
 281 647 267 634 267 559 c 2
 267 87 l 2
 267 44 286 31 347 31 c 0
 424 31 480 49 521 86 c 0
 556 118 576 149 609 227 c 1
 638 227 l 1
448 390 m 1
 438 409 l 1
 506 457 536 494 536 529 c 0
 536 539 528 548 519 548 c 0
 518 548 515 548 512 547 c 0
 508 546 503 546 499 546 c 0
 458 546 432 574 432 617 c 0
 432 662 462 691 507 691 c 0
 561 691 597 649 597 586 c 0
 597 508 552 449 448 390 c 1
EndSplineSet
EndChar
StartChar: lcaron
Encoding: 318 318 251
Width: 278
Flags: W
HStem: 0 24 546 145<283.5 300> 652 24
VStem: 67 139<84 594 594 612.5> 231 165<595.5 617.5>
Fore
206 676 m 1
 206 84 l 2
 206 44 222 25 255 24 c 1
 255 0 l 1
 16 0 l 1
 16 24 l 1
 50 27 67 47 67 84 c 2
 67 594 l 2
 67 631 51 649 16 652 c 1
 16 676 l 1
 206 676 l 1
247 390 m 1
 237 409 l 1
 305 457 335 494 335 529 c 0
 335 539 327 548 318 548 c 0
 317 548 314 548 311 547 c 0
 307 546 302 546 298 546 c 0
 257 546 231 574 231 617 c 0
 231 662 261 691 306 691 c 0
 360 691 396 649 396 586 c 0
 396 508 351 449 247 390 c 1
EndSplineSet
EndChar
StartChar: Lslash
Encoding: 321 321 254
Width: 667
Flags: W
HStem: 0 31<316.5 385.5> 0 25 0 31 651 25
VStem: 19 349<651 676> 105 162<96 286 286 286 347 381 442 559>
Fore
638 227 m 1
 597 0 l 1
 19 0 l 1
 19 25 l 1
 92 34 105 45 105 96 c 2
 105 286 l 1
 24 237 l 1
 24 298 l 1
 105 347 l 1
 105 580 l 2
 105 631 87 647 19 651 c 1
 19 676 l 1
 368 676 l 1
 368 651 l 1
 281 647 267 634 267 559 c 2
 267 442 l 1
 390 518 l 1
 390 457 l 1
 267 381 l 1
 267 87 l 2
 267 44 286 31 347 31 c 0
 424 31 480 49 521 86 c 0
 556 118 576 149 609 227 c 1
 638 227 l 1
EndSplineSet
EndChar
StartChar: lslash
Encoding: 322 322 255
Width: 278
Flags: MW
HStem: 0 24 652 24
VStem: 67 139<84 311 311 311 361 400 450 594 594 612.5>
Fore
206 400 m 1
 206 84 l 2
 206 44 222 25 255 24 c 1
 255 0 l 1
 16 0 l 1
 16 24 l 1
 50 27 67 47 67 84 c 2
 67 311 l 1
 -22 239 l 1
 -22 289 l 1
 67 361 l 1
 67 594 l 2
 67 631 51 649 16 652 c 1
 16 676 l 1
 206 676 l 1
 206 450 l 1
 303 530 l 1
 303 480 l 1
 206 400 l 1
EndSplineSet
EndChar
StartChar: Ncommaaccent
Encoding: 325 325 258
Width: 722
Flags: MW
HStem: -185 145<330.5 347> 0 25 651 25<19 29>
VStem: 104 44<105 124 124 526> 278 165<-135.5 -113.5> 579 44<247 552 552 571>
Fore
230 676 m 1
 579 247 l 1
 579 552 l 2
 579 623 560 644 486 651 c 1
 486 676 l 1
 701 676 l 1
 701 651 l 1
 636 641 623 628 623 571 c 2
 623 -18 l 1
 595 -18 l 1
 148 526 l 1
 148 124 l 2
 148 53 166 34 243 25 c 1
 243 0 l 1
 16 0 l 1
 16 25 l 1
 89 34 104 48 104 105 c 2
 104 579 l 1
 56 636 39 651 19 651 c 1
 19 676 l 1
 230 676 l 1
294 -341 m 1
 284 -322 l 1
 352 -274 382 -237 382 -202 c 0
 382 -192 374 -183 365 -183 c 0
 364 -183 361 -183 358 -184 c 0
 354 -185 349 -185 345 -185 c 0
 304 -185 278 -157 278 -114 c 0
 278 -69 308 -40 353 -40 c 0
 407 -40 443 -82 443 -145 c 0
 443 -223 398 -282 294 -341 c 1
EndSplineSet
EndChar
StartChar: ncommaaccent
Encoding: 326 326 259
Width: 556
Flags: W
HStem: -185 145<247.5 264> 0 24 441 20<21 212 212 212>
VStem: 21 191<437 461> 74 139<84 348> 195 165<-135.5 -113.5> 351 139<81 323 323 332>
Fore
212 461 m 1
 212 386 l 1
 249 445 295 473 355 473 c 0
 437 473 490 418 490 332 c 2
 490 81 l 2
 490 39 500 27 539 24 c 1
 539 0 l 1
 304 0 l 1
 304 24 l 1
 338 28 351 44 351 81 c 2
 351 323 l 2
 351 379 334 406 299 406 c 0
 276 406 252 394 230 371 c 1
 220 362 213 352 213 348 c 2
 213 81 l 2
 213 44 225 29 262 24 c 1
 262 0 l 1
 21 0 l 1
 21 24 l 1
 66 33 74 42 74 84 c 2
 74 378 l 2
 74 420 65 430 21 437 c 1
 21 461 l 1
 212 461 l 1
211 -341 m 1
 201 -322 l 1
 269 -274 299 -237 299 -202 c 0
 299 -192 291 -183 282 -183 c 0
 281 -183 278 -183 275 -184 c 0
 271 -185 266 -185 262 -185 c 0
 221 -185 195 -157 195 -114 c 0
 195 -69 225 -40 270 -40 c 0
 324 -40 360 -82 360 -145 c 0
 360 -223 315 -282 211 -341 c 1
EndSplineSet
EndChar
StartChar: napostrophe
Encoding: 329 329 262
Width: 704
Flags: W
HStem: 0 24 295 287<66 103.5> 441 20<169 360 360 360>
VStem: 21 129<504 532.5> 169 191<437 461> 222 139<84 348> 499 139<81 323 323 332>
Fore
360 461 m 1
 360 386 l 1
 397 445 443 473 503 473 c 0
 585 473 638 418 638 332 c 2
 638 81 l 2
 638 39 648 27 687 24 c 1
 687 0 l 1
 452 0 l 1
 452 24 l 1
 486 28 499 44 499 81 c 2
 499 323 l 2
 499 379 482 406 447 406 c 0
 424 406 400 394 378 371 c 1
 368 362 361 352 361 348 c 2
 361 81 l 2
 361 44 373 29 410 24 c 1
 410 0 l 1
 169 0 l 1
 169 24 l 1
 214 33 222 42 222 84 c 2
 222 378 l 2
 222 420 213 430 169 437 c 1
 169 461 l 1
 360 461 l 1
106 295 m 1
 65 295 l 1
 60 316 55 336 54 343 c 0
 33 426 21 490 21 511 c 0
 21 554 47 582 85 582 c 0
 122 582 150 553 150 515 c 0
 150 493 139 439 106 295 c 1
EndSplineSet
EndChar
StartChar: Eng
Encoding: 330 330 263
Width: 722
Flags: W
HStem: -227 33<489 509> 0 25 651 25<19 29>
VStem: 104 44<105 124 124 526> 336 143<-105.5 -78> 579 44<247 552 552 571> 582 41<-73 -8 -8 0 0 0>
Fore
582 0 m 1
 148 526 l 1
 148 124 l 2
 148 53 166 34 243 25 c 1
 243 0 l 1
 16 0 l 1
 16 25 l 1
 89 34 104 48 104 105 c 2
 104 579 l 1
 56 636 39 651 19 651 c 1
 19 676 l 1
 230 676 l 1
 579 247 l 1
 579 552 l 2
 579 623 560 644 486 651 c 1
 486 676 l 1
 701 676 l 1
 701 651 l 1
 636 641 623 628 623 571 c 2
 623 -8 l 2
 623 -138 618 -228 509 -227 c 0
 469 -227 429 -218 403 -204 c 0
 364 -181 336 -136 336 -95 c 0
 336 -57 369 -23 406 -23 c 0
 445 -23 479 -58 479 -98 c 0
 479 -113 476 -121 464 -136 c 0
 455 -148 452 -154 452 -162 c 0
 452 -181 470 -194 497 -194 c 0
 542 -194 582 -169 582 -107 c 2
 582 0 l 1
EndSplineSet
EndChar
StartChar: eng
Encoding: 331 331 264
Width: 556
Flags: W
HStem: -203 31<293.5 319.5> 0 24 441 20<21 212 212 212>
VStem: 21 191<437 461> 74 139<84 348> 173 121<-101 -85> 351 139<-27.5 2 2 323 323 332>
Fore
351 -96 m 2
 351 323 l 2
 351 379 334 406 299 406 c 0
 276 406 252 394 230 371 c 1
 220 362 213 352 213 348 c 2
 213 81 l 2
 213 44 225 29 262 24 c 1
 262 0 l 1
 21 0 l 1
 21 24 l 1
 66 33 74 42 74 84 c 2
 74 378 l 2
 74 420 65 430 21 437 c 1
 21 461 l 1
 212 461 l 1
 212 386 l 1
 249 445 295 473 355 473 c 0
 437 473 490 418 490 332 c 2
 490 2 l 2
 490 -57 482 -95 463 -127 c 0
 435 -176 382 -203 313 -203 c 0
 231 -203 173 -162 173 -103 c 0
 173 -67 198 -42 235 -42 c 0
 267 -42 294 -66 294 -96 c 0
 294 -106 290 -117 280 -133 c 0
 274 -143 271 -150 271 -155 c 0
 271 -165 284 -172 303 -172 c 0
 336 -172 351 -149 351 -96 c 2
EndSplineSet
EndChar
StartChar: OE
Encoding: 338 338 271
Width: 1000
Flags: W
HStem: -5 32<332.5 365> 0 35<670.5 736> 176 338<778 801> 641 35<661 717.5> 652 32<316 370.5>
VStem: 22 170<278 430> 472 155<212 333 366 503 503 539>
Fore
981 211 m 1
 939 0 l 1
 509 0 l 2
 460 0 425 -1 402 -3 c 0
 387 -4 372 -5 358 -5 c 0
 269 -5 192 19 137 64 c 0
 64 124 22 222 22 334 c 0
 22 542 161 684 364 684 c 0
 377 684 430 681 523 676 c 2
 528 676 l 1
 940 676 l 1
 940 475 l 1
 914 475 l 1
 900 554 884 586 843 612 c 0
 814 630 753 641 682 641 c 0
 640 641 627 635 627 615 c 2
 627 366 l 1
 734 369 752 387 778 514 c 1
 801 514 l 1
 801 176 l 1
 778 176 l 1
 763 295 733 327 627 333 c 1
 627 83 l 2
 627 44 641 35 700 35 c 0
 772 35 822 50 864 83 c 0
 900 112 921 142 954 211 c 1
 981 211 l 1
472 212 m 2
 472 503 l 2
 472 575 468 601 454 622 c 0
 440 642 413 652 377 652 c 0
 255 652 192 540 192 320 c 0
 192 229 208 138 232 96 c 0
 259 48 299 27 366 27 c 0
 410 27 434 36 451 58 c 0
 468 79 472 112 472 212 c 2
EndSplineSet
EndChar
StartChar: oe
Encoding: 339 339 272
Width: 722
Flags: MW
HStem: -14 30<214 265> 245 37<444 571> 444 29<211.5 264 488 529>
VStem: 22 145<161 300> 308 136<225 228 228 245 282 311 311 336>
Fore
676 125 m 1
 696 109 l 1
 631 16 582 -14 498 -14 c 0
 446 -14 413 0 383 34 c 1
 343 0 302 -14 245 -14 c 0
 113 -14 22 85 22 229 c 0
 22 371 116 473 248 473 c 0
 302 473 338 459 373 424 c 1
 422 462 452 473 502 473 c 0
 576 473 632 442 663 383 c 0
 682 347 689 314 693 245 c 1
 444 245 l 1
 444 228 l 1
 444 225 l 1
 442 116 481 58 558 58 c 0
 604 58 631 73 676 125 c 1
444 282 m 1
 571 282 l 1
 570 307 569 328 569 338 c 0
 566 413 549 444 509 444 c 0
 467 444 444 407 444 336 c 2
 444 282 l 1
308 149 m 2
 308 311 l 2
 308 407 289 444 239 444 c 0
 184 444 167 398 167 248 c 0
 167 74 186 16 242 16 c 0
 288 16 308 57 308 149 c 2
EndSplineSet
EndChar
StartChar: Rcommaaccent
Encoding: 342 342 275
Width: 722
Flags: W
HStem: -185 145<330.5 347> 0 25<706 715> 313 32 642 34<317.5 348 348 376> 651 25
VStem: 114 162<117 313 345 559 559 595> 278 165<-135.5 -113.5> 459 171<475.5 546.5>
Fore
715 25 m 1
 715 0 l 1
 510 0 l 1
 303 313 l 1
 276 313 l 1
 276 117 l 2
 276 46 286 35 364 25 c 1
 364 0 l 1
 26 0 l 1
 26 25 l 1
 104 34 114 44 114 117 c 2
 114 559 l 2
 114 631 100 646 26 651 c 1
 26 676 l 1
 348 676 l 2
 531 676 630 613 630 498 c 0
 630 453 614 413 585 386 c 0
 557 361 532 348 473 329 c 1
 674 44 l 1
 684 31 697 25 715 25 c 1
276 600 m 2
 276 345 l 1
 352 346 386 353 412 370 c 0
 444 391 459 430 459 494 c 0
 459 599 422 642 330 642 c 0
 305 642 289 637 283 627 c 0
 280 621 276 606 276 600 c 2
294 -341 m 1
 284 -322 l 1
 352 -274 382 -237 382 -202 c 0
 382 -192 374 -183 365 -183 c 0
 364 -183 361 -183 358 -184 c 0
 354 -185 349 -185 345 -185 c 0
 304 -185 278 -157 278 -114 c 0
 278 -69 308 -40 353 -40 c 0
 407 -40 443 -82 443 -145 c 0
 443 -223 398 -282 294 -341 c 1
EndSplineSet
EndChar
StartChar: rcommaaccent
Encoding: 343 343 276
Width: 444
Flags: W
HStem: -185 145<131.5 148> 0 24 328 145<358 376.5> 437 24
VStem: 29 189<437 461> 29 266<0 24> 29 189 29 266 29 189 79 165<-135.5 -113.5> 83 139<84 103 103 292>
Fore
218 461 m 1
 218 379 l 1
 265 446 303 473 353 473 c 0
 400 473 434 440 434 395 c 0
 434 356 408 328 371 328 c 0
 345 328 330 337 311 364 c 0
 300 380 291 387 283 387 c 0
 250 387 222 344 222 292 c 2
 222 103 l 2
 222 41 234 28 295 24 c 1
 295 0 l 1
 29 0 l 1
 29 24 l 1
 73 32 83 43 83 84 c 2
 83 378 l 2
 83 418 72 431 29 437 c 1
 29 461 l 1
 218 461 l 1
95 -341 m 1
 85 -322 l 1
 153 -274 183 -237 183 -202 c 0
 183 -192 175 -183 166 -183 c 0
 165 -183 162 -183 159 -184 c 0
 155 -185 150 -185 146 -185 c 0
 105 -185 79 -157 79 -114 c 0
 79 -69 109 -40 154 -40 c 0
 208 -40 244 -82 244 -145 c 0
 244 -223 199 -282 95 -341 c 1
EndSplineSet
EndChar
StartChar: Scedilla
Encoding: 350 350 283
Width: 556
Flags: W
HStem: -217 40 -19 247<35 64> 475 217<456 484 456 456> 660 31<229 282>
VStem: 44 109<536 551> 293 93<-149 -125> 394 119
Fore
484 692 m 1
 484 475 l 1
 456 475 l 1
 436 540 420 569 386 604 c 0
 350 641 308 660 263 660 c 0
 195 660 153 622 153 560 c 0
 153 512 175 487 256 447 c 2
 403 374 l 2
 467 342 513 267 513 192 c 0
 513 119 474 51 411 15 c 0
 377 -4 337 -15 284 -18 c 1
 265 -64 l 1
 277 -60 285 -59 298 -59 c 0
 353 -59 386 -85 386 -129 c 0
 386 -184 336 -218 256 -218 c 0
 223 -218 196 -213 160 -200 c 1
 176 -163 l 1
 178 -164 178 -164 181 -165 c 0
 205 -174 219 -177 235 -177 c 0
 272 -177 293 -162 293 -136 c 0
 293 -114 276 -100 247 -100 c 0
 237 -100 230 -101 219 -104 c 1
 208 -96 l 1
 242 -18 l 1
 207 -16 179 -10 135 5 c 0
 113 12 102 15 94 15 c 0
 78 15 70 6 64 -19 c 1
 35 -19 l 1
 35 228 l 1
 64 228 l 1
 81 158 95 125 122 88 c 0
 160 39 210 14 268 14 c 0
 345 14 394 59 394 128 c 0
 394 180 370 206 282 248 c 2
 215 280 l 2
 96 337 44 400 44 488 c 0
 44 614 127 691 263 691 c 0
 301 691 333 685 380 669 c 0
 402 661 413 658 422 658 c 0
 439 658 447 666 454 692 c 1
 484 692 l 1
EndSplineSet
EndChar
StartChar: scedilla
Encoding: 351 351 284
Width: 389
Flags: W
HStem: -217 40 -100 121 -13 165<25 50> 326 145<318 340> 440 33<174 195>
VStem: 27 100<365 369> 219 93<-149 -125> 265 96<94 101>
Fore
213 -14 m 1
 191 -64 l 1
 203 -60 211 -59 224 -59 c 0
 279 -59 312 -85 312 -129 c 0
 312 -184 262 -218 182 -218 c 0
 149 -218 122 -213 86 -200 c 1
 102 -163 l 1
 108 -165 l 2
 131 -174 145 -177 162 -177 c 0
 198 -177 219 -162 219 -136 c 0
 219 -114 202 -100 173 -100 c 0
 164 -100 156 -101 145 -104 c 1
 134 -96 l 1
 172 -11 l 1
 134 -3 116 2 99 9 c 0
 89 13 81 15 76 15 c 0
 67 15 61 8 50 -13 c 1
 25 -13 l 1
 25 152 l 1
 53 152 l 1
 74 65 120 20 190 20 c 0
 235 20 265 46 265 85 c 0
 265 117 237 142 169 172 c 0
 68 215 27 261 27 327 c 0
 27 411 93 473 184 473 c 0
 206 473 229 469 262 458 c 0
 278 453 288 451 294 451 c 0
 306 451 312 456 318 471 c 1
 340 471 l 1
 340 326 l 1
 315 326 l 1
 300 370 289 388 268 408 c 0
 246 429 219 440 193 440 c 0
 155 440 127 415 127 382 c 0
 127 348 155 323 223 294 c 0
 322 253 361 209 361 138 c 0
 361 50 303 -9 213 -14 c 1
EndSplineSet
EndChar
StartChar: uni0162
Encoding: 354 354 287
Width: 667
Flags: W
HStem: -217 40 0 25 475 201<33 59 606 606 606 633>
VStem: 252 162<117 644> 352 92<-149 -125>
Fore
311 0 m 1
 155 0 l 1
 155 25 l 1
 241 32 252 43 252 117 c 2
 252 644 l 1
 128 640 76 594 59 475 c 1
 30 475 l 1
 33 676 l 1
 633 676 l 1
 635 475 l 1
 606 475 l 1
 589 594 537 640 414 644 c 1
 414 117 l 2
 414 41 425 31 512 25 c 1
 512 0 l 1
 352 0 l 1
 324 -64 l 1
 336 -60 344 -59 356 -59 c 0
 412 -59 444 -85 444 -129 c 0
 444 -184 394 -218 314 -218 c 0
 282 -218 254 -213 218 -200 c 1
 234 -163 l 1
 240 -165 l 2
 264 -173 278 -177 294 -177 c 0
 330 -177 352 -162 352 -136 c 0
 352 -114 334 -100 306 -100 c 0
 296 -100 288 -101 278 -104 c 1
 266 -96 l 1
 310 0 l 1
 311 0 l 1
EndSplineSet
EndChar
StartChar: uni0163
Encoding: 355 355 288
Width: 333
Flags: W
HStem: -229 40 417 44<211 305>
VStem: 20 285<417 444 444 444> 72 139<96 116 116 417> 205 93<-161 -137>
Fore
206 -11 m 1
 177 -76 l 1
 189 -72 197 -71 210 -71 c 0
 265 -71 298 -97 298 -141 c 0
 298 -196 248 -230 168 -230 c 0
 135 -230 108 -225 72 -212 c 1
 88 -175 l 1
 94 -177 l 2
 117 -185 131 -189 148 -189 c 0
 184 -189 205 -174 205 -148 c 0
 205 -126 188 -112 159 -112 c 0
 150 -112 142 -113 131 -116 c 1
 120 -108 l 1
 164 -11 l 1
 107 -4 72 35 72 93 c 2
 72 417 l 1
 20 417 l 1
 20 444 l 1
 85 499 125 544 186 630 c 1
 211 630 l 1
 211 461 l 1
 305 461 l 1
 305 417 l 1
 211 417 l 1
 211 116 l 2
 211 76 222 59 250 59 c 0
 271 59 287 73 307 111 c 1
 332 100 l 1
 296 27 260 -5 206 -11 c 1
EndSplineSet
EndChar
StartChar: tcaron
Encoding: 357 357 290
Width: 333
Flags: MW
HStem: 417 44<211 252> 546 145<287.5 304>
VStem: 72 139<96 116 116 417> 235 165<595.5 617.5>
Fore
72 417 m 1
 20 417 l 1
 20 444 l 1
 85 499 125 544 186 630 c 1
 211 630 l 1
 211 461 l 1
 304 461 l 1
 328 487 339 508 339 529 c 0
 339 539 331 548 322 548 c 0
 321 548 318 548 315 547 c 0
 311 546 306 546 302 546 c 0
 261 546 235 574 235 617 c 0
 235 662 265 691 310 691 c 0
 364 691 400 649 400 586 c 0
 400 508 356 449 251 390 c 1
 241 409 l 1
 252 417 l 1
 211 417 l 1
 211 116 l 2
 211 76 222 59 250 59 c 0
 271 59 287 73 307 111 c 1
 332 100 l 1
 291 18 251 -12 184 -12 c 0
 115 -12 72 28 72 93 c 2
 72 417 l 1
EndSplineSet
EndChar
StartChar: Tbar
Encoding: 358 358 291
Width: 667
Flags: W
HStem: 0 25<156 158> 326 72<170 254 416 499> 475 201<35 61 608 608 608 635>
VStem: 170 329<326 398> 255 160<117 326>
Fore
156 25 m 1
 158 25 l 2
 244 32 255 43 255 117 c 2
 255 326 l 1
 170 326 l 1
 170 398 l 1
 254 398 l 1
 254 644 l 1
 130 640 78 594 61 475 c 1
 32 475 l 1
 35 676 l 1
 635 676 l 1
 637 475 l 1
 608 475 l 1
 591 594 539 640 416 644 c 1
 416 398 l 1
 499 398 l 1
 499 326 l 1
 415 326 l 1
 415 117 l 2
 415 41 426 31 513 25 c 1
 513 0 l 1
 156 0 l 1
 156 25 l 1
EndSplineSet
EndChar
StartChar: tbar
Encoding: 359 359 292
Width: 333
Flags: W
HStem: 233 72<13 72 211 274> 417 44<211 305>
VStem: 13 261<233 305> 20 285<417 444 444 444> 72 139<96 116 116 233 305 417>
Fore
211 461 m 1
 305 461 l 1
 305 417 l 1
 211 417 l 1
 211 305 l 1
 274 305 l 1
 274 233 l 1
 211 233 l 1
 211 116 l 2
 211 76 222 59 250 59 c 0
 271 59 287 73 307 111 c 1
 332 100 l 1
 291 18 251 -12 184 -12 c 0
 115 -12 72 28 72 93 c 2
 72 233 l 1
 13 233 l 1
 13 305 l 1
 72 305 l 1
 72 417 l 1
 20 417 l 1
 20 444 l 1
 85 499 125 544 186 630 c 1
 211 630 l 1
 211 461 l 1
EndSplineSet
EndChar
StartChar: Uogonek
Encoding: 370 370 303
Width: 722
Flags: W
HStem: -173 69<590 596> -19 49<353 395> 651 25
VStem: 16 338<651 676> 98 159<225 559> 464 84 579 44<247 552 552 566>
Fore
672 -84 m 1
 694 -98 l 1
 669 -144 621 -173 571 -173 c 0
 509 -173 464 -139 464 -92 c 0
 464 -61 477 -37 522 19 c 1
 475 -7 424 -19 366 -19 c 0
 292 -19 228 -1 180 34 c 0
 119 78 98 127 98 225 c 2
 98 559 l 2
 98 631 86 644 16 651 c 1
 16 676 l 1
 354 676 l 1
 354 651 l 1
 306 649 290 645 278 635 c 0
 263 621 257 599 257 559 c 2
 257 225 l 2
 257 89 302 30 404 30 c 0
 523 30 579 99 579 247 c 2
 579 552 l 2
 579 625 559 645 481 651 c 1
 481 676 l 1
 701 676 l 1
 701 651 l 1
 637 641 623 625 623 566 c 2
 623 247 l 2
 623 199 615 152 600 112 c 0
 594 95 594 95 567 46 c 0
 558 29 548 -10 548 -29 c 0
 548 -81 568 -104 612 -104 c 0
 627 -104 638 -101 657 -91 c 0
 666 -87 667 -86 672 -84 c 1
EndSplineSet
EndChar
StartChar: uogonek
Encoding: 371 371 304
Width: 556
Flags: W
HStem: -173 69<454 458> 437 24
VStem: 65 139<126 378 378 399> 327 84 342 139<95 101 101 378 378 399.5> 343 194<20 43> 343 68<-39 -28> 343 194
Fore
537 43 m 1
 537 20 l 1
 475 13 l 2
 434 9 411 -12 411 -44 c 0
 411 -82 434 -104 474 -104 c 0
 489 -104 500 -101 520 -91 c 0
 528 -87 529 -86 534 -84 c 1
 556 -98 l 1
 531 -144 483 -173 433 -173 c 0
 372 -173 327 -139 327 -93 c 0
 327 -74 332 -58 343 -39 c 1
 343 52 l 1
 285 2 250 -14 198 -14 c 0
 115 -14 65 38 65 126 c 2
 65 378 l 2
 65 420 57 429 16 437 c 1
 16 461 l 1
 204 461 l 1
 204 122 l 2
 204 71 219 51 260 51 c 0
 288 51 309 62 342 95 c 1
 342 378 l 2
 342 421 330 433 280 437 c 1
 280 461 l 1
 481 461 l 1
 481 101 l 2
 481 58 493 45 537 43 c 1
EndSplineSet
EndChar
StartChar: longs
Encoding: 383 383 316
Width: 333
Flags: W
HStem: 0 24 417 44<14 71> 660 31<242.5 269>
VStem: 14 278<0 24> 71 139<84 103 103 417 417 417 461 504> 267 122<572.5 589>
Fore
71 417 m 1
 14 417 l 1
 14 461 l 1
 71 461 l 1
 71 547 78 588 100 623 c 0
 127 667 179 691 246 691 c 0
 330 691 389 650 389 591 c 0
 389 554 364 529 327 529 c 0
 293 529 267 553 267 584 c 0
 267 594 271 605 280 620 c 0
 286 630 289 637 289 641 c 0
 289 653 278 660 260 660 c 0
 225 660 210 638 210 583 c 2
 210 103 l 2
 210 38 222 26 292 24 c 1
 292 0 l 1
 14 0 l 1
 14 24 l 1
 60 29 71 41 71 84 c 2
 71 417 l 1
EndSplineSet
EndChar
StartChar: uni01C2
Encoding: 450 450 317
Width: 570
Flags: W
HStem: 107 88<34 239 329 536> 311 88<34 240 328 536>
VStem: 33 504<107 195 311 399> 240 88<-101 107 195 311 399 607>
Fore
537 107 m 1
 328 107 l 1
 328 -102 l 1
 240 -102 l 1
 240 107 l 1
 33 107 l 1
 33 195 l 1
 240 195 l 1
 240 311 l 1
 33 311 l 1
 33 399 l 1
 240 399 l 1
 240 608 l 1
 328 608 l 1
 328 399 l 1
 537 399 l 1
 537 311 l 1
 328 311 l 1
 328 195 l 1
 537 195 l 1
 537 107 l 1
EndSplineSet
MinimumDistance: x0,-1 y14,12 y14,13 y1,3 y1,2 x14,16 x14,15 x11,9 x11,10 x7,5 x7,6 x1,19 x1,0 
EndChar
StartChar: uni01DD
Encoding: 477 477 334
Width: 444
Flags: W
HStem: -13 31<203.947 224> 178 37<153 280> 401.996 72.0038<161 222>
Fore
425 229 m 0
 425 105 354 -13 219 -13 c 0
 81 -13 35 96 29 215 c 1
 281 215 l 1
 278 292 259 402 161 402 c 0
 112 402 77 371 48 335 c 1
 24 349 l 1
 74 425 128 474 222 474 c 0
 361 474 425 355 425 229 c 0
286 178 m 1
 152 178 l 1
 153 130 144 18 215 18 c 0
 287 18 286 129 286 178 c 1
EndSplineSet
EndChar
StartChar: uni01E4
Encoding: 484 484 339
Width: 778
Flags: W
HStem: -19 33<389 421> 121 47<413 512 669 753> 454 234<632 656> 658 33<389 410>
VStem: 37 177<317 349> 412 342<121 168 262 286> 513 156<93 121 168.063 194>
Fore
755 262 m 1
 686 256 668 242 669 168 c 1
 754 168 l 1
 754 121 l 1
 669 121 l 1
 669 43 l 1
 611 3 469 -19 399 -19 c 0
 188 -19 37 118 37 332 c 0
 37 538 184 691 391 691 c 0
 468 691 547 642 584 642 c 0
 610 642 623 666 630 688 c 1
 657 688 l 1
 657 454 l 1
 632 454 l 1
 594 547 510 658 399 658 c 0
 234 658 214 458 214 334 c 0
 214 205 243 14 409 14 c 0
 504 14 513 39 513 121 c 1
 412 121 l 1
 412 168 l 1
 513 168 l 1
 513 192 l 2
 513 261 468 260 412 262 c 1
 412 287 l 1
 755 287 l 1
 755 262 l 1
EndSplineSet
MinimumDistance: x2,-1 x20,18 x20,19 x4,2 x4,3 
EndChar
StartChar: uni01E5
Encoding: 485 485 340
Width: 500
Flags: W
HStem: -206 32<224 256> -136 47<17 32 126 391 480 500> -52 119.427<217.06 324> 398 53<402 481> 442 31<237 244>
VStem: 16 485<-136 -89> 37 137<298 322> 42.0061 111.994<45 104> 120 362.345<-40 -38> 306 135<290 316>
Fore
501 -136 m 1
 456 -136 l 1
 407 -198 299 -206 226 -206 c 0
 172 -206 55 -198 32 -136 c 1
 16 -136 l 1
 16 -89 l 1
 34 -89 l 1
 49 -56 87 -43 120 -40 c 1
 120 -38 l 1
 77 -23 42 -7 42 45 c 0
 42 105 108 145 159 159 c 1
 159 161 l 1
 91 186 37 238 37 314 c 0
 37 425 146 473 242 473 c 0
 280 473 317 465 352 451 c 1
 482 451 l 1
 482 398 l 1
 401 398 l 1
 428 371 441 337 441 299 c 0
 441 229 400 185 336 163 c 0
 291 148 154 176 154 104 c 0
 154 14 483 146 483 -55 c 0
 483 -66 482 -78 479 -89 c 1
 501 -89 l 1
 501 -136 l 1
306 311 m 0
 306 358 305 442 240 442 c 0
 174 442 174 358 174 311 c 0
 174 263 173 182 240 182 c 0
 306 182 306 264 306 311 c 0
402 -89 m 1
 394 -56 352 -52 324 -52 c 2
 151 -52 l 1
 138 -62 124 -73 119 -89 c 1
 402 -89 l 1
392 -136 m 1
 125 -136 l 1
 147 -168 202 -174 238 -174 c 0
 283 -174 361 -172 392 -136 c 1
EndSplineSet
MinimumDistance: x18,-1 
EndChar
StartChar: Scommaaccent
Encoding: 536 536 385
Width: 556
Flags: W
HStem: -185 145<247.5 264> -19 247<35 64> -19 33<243.5 306.5> 475 217<456 484 456 456> 660 31<229 282>
VStem: 44 109<536 551> 195 165<-135.5 -113.5> 394 119<129 154>
Fore
484 475 m 1
 456 475 l 1
 436 540 420 569 386 604 c 0
 350 641 308 660 263 660 c 0
 195 660 153 622 153 560 c 0
 153 512 175 487 256 447 c 2
 403 374 l 2
 467 342 513 267 513 192 c 0
 513 66 413 -19 265 -19 c 0
 222 -19 185 -12 135 5 c 0
 113 12 102 15 94 15 c 0
 78 15 70 6 64 -19 c 1
 35 -19 l 1
 35 228 l 1
 64 228 l 1
 81 158 95 125 122 88 c 0
 160 39 210 14 268 14 c 0
 345 14 394 59 394 128 c 0
 394 180 370 206 282 248 c 2
 215 280 l 2
 96 337 44 400 44 488 c 0
 44 614 127 691 263 691 c 0
 301 691 333 685 380 669 c 0
 402 661 413 658 422 658 c 0
 439 658 447 666 454 692 c 1
 484 692 l 1
 484 475 l 1
211 -341 m 1
 201 -322 l 1
 269 -274 299 -237 299 -202 c 0
 299 -192 291 -183 282 -183 c 0
 281 -183 278 -183 275 -184 c 0
 271 -185 266 -185 262 -185 c 0
 221 -185 195 -157 195 -114 c 0
 195 -69 225 -40 270 -40 c 0
 324 -40 360 -82 360 -145 c 0
 360 -223 315 -282 211 -341 c 1
EndSplineSet
EndChar
StartChar: scommaaccent
Encoding: 537 537 386
Width: 389
Flags: W
HStem: -185 145<164.5 181> -13 165<25 50> 326 145<318 340> 440 33<174 195>
VStem: 27 100<365 369> 112 165<-135.5 -113.5> 265 96<93 101>
Fore
340 326 m 1
 315 326 l 1
 300 370 289 388 268 408 c 0
 246 429 219 440 193 440 c 0
 155 440 127 415 127 382 c 0
 127 348 155 323 223 294 c 0
 322 252 361 209 361 138 c 0
 361 48 298 -14 207 -14 c 0
 179 -14 126 -3 99 9 c 0
 89 13 81 15 76 15 c 0
 67 15 61 8 50 -13 c 1
 25 -13 l 1
 25 152 l 1
 53 152 l 1
 74 65 120 20 190 20 c 0
 235 20 265 46 265 85 c 0
 265 117 237 142 169 172 c 0
 68 215 27 261 27 327 c 0
 27 411 93 473 184 473 c 0
 206 473 229 469 262 458 c 0
 278 453 288 451 294 451 c 0
 306 451 312 456 318 471 c 1
 340 471 l 1
 340 326 l 1
128 -341 m 1
 118 -322 l 1
 186 -274 216 -237 216 -202 c 0
 216 -192 208 -183 199 -183 c 0
 198 -183 195 -183 192 -184 c 0
 188 -185 183 -185 179 -185 c 0
 138 -185 112 -157 112 -114 c 0
 112 -69 142 -40 187 -40 c 0
 241 -40 277 -82 277 -145 c 0
 277 -223 232 -282 128 -341 c 1
EndSplineSet
EndChar
StartChar: Tcommaaccent
Encoding: 538 538 387
Width: 667
Flags: W
HStem: -185 145<303.5 320> 0 25 475 201<34 60 607 607 607 634>
VStem: 156 357<0 25> 251 165<-135.5 -113.5>
Fore
253 117 m 2
 253 644 l 1
 129 640 77 594 60 475 c 1
 31 475 l 1
 34 676 l 1
 634 676 l 1
 636 475 l 1
 607 475 l 1
 590 594 538 640 415 644 c 1
 415 117 l 2
 415 41 426 31 513 25 c 1
 513 0 l 1
 156 0 l 1
 156 25 l 1
 242 32 253 43 253 117 c 2
267 -341 m 1
 257 -322 l 1
 325 -274 355 -237 355 -202 c 0
 355 -192 347 -183 338 -183 c 0
 337 -183 334 -183 331 -184 c 0
 327 -185 322 -185 318 -185 c 0
 277 -185 251 -157 251 -114 c 0
 251 -69 281 -40 326 -40 c 0
 380 -40 416 -82 416 -145 c 0
 416 -223 371 -282 267 -341 c 1
EndSplineSet
EndChar
StartChar: tcommaaccent
Encoding: 539 539 388
Width: 333
Flags: W
HStem: -185 145<136.5 153> 417 44<211 305>
VStem: 20 285<417 444 444 444> 72 139<96 116 116 417> 84 165<-135.5 -113.5>
Fore
305 461 m 1
 305 417 l 1
 211 417 l 1
 211 116 l 2
 211 76 222 59 250 59 c 0
 271 59 287 73 307 111 c 1
 332 100 l 1
 291 18 251 -12 184 -12 c 0
 115 -12 72 28 72 93 c 2
 72 417 l 1
 20 417 l 1
 20 444 l 1
 85 499 125 544 186 630 c 1
 211 630 l 1
 211 461 l 1
 305 461 l 1
100 -341 m 1
 90 -322 l 1
 158 -274 188 -237 188 -202 c 0
 188 -192 180 -183 171 -183 c 0
 170 -183 167 -183 164 -184 c 0
 160 -185 155 -185 151 -185 c 0
 110 -185 84 -157 84 -114 c 0
 84 -69 114 -40 159 -40 c 0
 213 -40 249 -82 249 -145 c 0
 249 -223 204 -282 100 -341 c 1
EndSplineSet
EndChar
StartChar: uni0292
Encoding: 658 658 405
Width: 508
Flags: W
HStem: -217 31<204 225> 323 139<126 280>
VStem: 30 138<-133.456 -120> 370 116<8 50>
Fore
450 432 m 1
 266 256 l 1
 281 259 296 261 312 261 c 0
 428 261 486 154 486 50 c 0
 486 -104 379 -217 223 -217 c 0
 166 -217 30 -202 30 -122 c 0
 30 -84 61 -53 99 -53 c 128
 137 -53 168 -84 168 -122 c 0
 168 -138 162 -154 152 -166 c 1
 165 -181 186 -186 205 -186 c 0
 322 -186 370 -99 370 8 c 0
 370 106 322 172 219 172 c 0
 195 172 171 163 148 158 c 1
 132 180 l 1
 281 323 l 1
 137 323 l 2
 89 323 81 301 62 260 c 1
 37 260 l 1
 108 462 l 1
 450 462 l 1
 450 432 l 1
EndSplineSet
MinimumDistance: x3,-1 
EndChar
StartChar: circumflex
Encoding: 710 710 406
Width: 333
Flags: W
Fore
278 528 m 1
 166 626 l 1
 54 528 l 1
 -2 528 l 1
 120 704 l 1
 212 704 l 1
 335 528 l 1
 278 528 l 1
EndSplineSet
EndChar
StartChar: caron
Encoding: 711 711 407
Width: 333
Flags: W
Fore
335 704 m 1
 212 528 l 1
 120 528 l 1
 -2 704 l 1
 54 704 l 1
 166 605 l 1
 278 704 l 1
 335 704 l 1
EndSplineSet
EndChar
StartChar: breve
Encoding: 728 728 408
Width: 333
Flags: MW
HStem: 528 76<139.5 193.5> 671 20<15 59 59 59 274 318 318 318>
Fore
274 691 m 1
 318 691 l 1
 312 640 305 615 288 589 c 0
 262 548 221 528 166 528 c 0
 113 528 71 547 46 583 c 0
 25 611 18 636 15 691 c 1
 59 691 l 1
 70 630 102 604 166 604 c 0
 228 604 257 628 274 691 c 1
EndSplineSet
EndChar
StartChar: dotaccent
Encoding: 729 729 409
Width: 333
Flags: MW
HStem: 537 129<149.5 184>
VStem: 103 129<584.5 618>
Fore
166 666 m 0
 202 666 232 636 232 600 c 0
 232 565 203 537 166 537 c 0
 131 537 103 566 103 603 c 0
 103 636 133 666 166 666 c 0
EndSplineSet
EndChar
StartChar: ring
Encoding: 730 730 410
Width: 333
Flags: MW
HStem: 537 48<149.5 181.5> 702 48<150.5 182>
VStem: 60 48<627 658.5> 225 48<626.5 658>
Fore
167 750 m 0
 225 750 273 701 273 643 c 0
 273 584 225 537 166 537 c 128
 107 537 60 585 60 645 c 0
 60 701 109 750 167 750 c 0
166 702 m 0
 135 702 108 674 108 643 c 0
 108 611 134 585 165 585 c 0
 198 585 225 611 225 642 c 0
 225 674 198 702 166 702 c 0
EndSplineSet
EndChar
StartChar: ogonek
Encoding: 731 731 411
Width: 333
Flags: MW
HStem: -173 69<216.5 221>
VStem: 90 84
Fore
158 32 m 1
 191 44 l 1
 190 37 189 34 186 24 c 0
 178 -8 174 -27 174 -40 c 0
 174 -81 196 -104 237 -104 c 0
 252 -104 263 -101 283 -91 c 0
 291 -87 292 -86 297 -84 c 1
 319 -98 l 1
 294 -144 246 -173 196 -173 c 0
 135 -173 90 -139 90 -92 c 0
 90 -62 103 -36 144 14 c 0
 152 24 154 26 158 32 c 1
EndSplineSet
EndChar
StartChar: tilde
Encoding: 732 732 412
Width: 333
Flags: W
HStem: 547 78<246.5 260.5> 596 78<69 81.5>
Fore
26 549 m 1
 -16 549 l 1
 2 635 38 674 100 674 c 0
 121 674 145 668 173 655 c 2
 213 637 l 2
 237 626 241 625 252 625 c 0
 279 625 293 638 306 674 c 1
 349 674 l 1
 326 587 289 547 232 547 c 0
 212 547 187 553 168 561 c 2
 139 574 l 2
 96 593 88 596 75 596 c 0
 49 596 30 577 26 549 c 1
EndSplineSet
EndChar
StartChar: hungarumlaut
Encoding: 733 733 413
Width: 333
Flags: W
Fore
-13 528 m 1
 124 685 l 2
 141 704 158 713 177 713 c 0
 206 713 225 695 225 669 c 0
 225 646 217 636 185 616 c 2
 43 528 l 1
 -13 528 l 1
187 528 m 1
 324 685 l 2
 341 704 358 713 377 713 c 0
 406 713 425 695 425 669 c 0
 425 646 417 636 385 616 c 2
 243 528 l 1
 187 528 l 1
EndSplineSet
EndChar
StartChar: gravecomb
Encoding: 768 768 414
Width: 0
Flags: HW
Fore
-87 528 m 1
 -143 528 l 1
 -285 616 l 2
 -310 631 -325 646 -325 669 c 0
 -325 683 -314 713 -276 713 c 0
 -255 713 -235 698 -224 685 c 2
 -87 528 l 1
EndSplineSet
EndChar
StartChar: acutecomb
Encoding: 769 769 415
Width: 0
Flags: HW
Fore
-49 616 m 2
 -191 528 l 1
 -247 528 l 1
 -110 685 l 2
 -87 711 -68 713 -58 713 c 0
 -40 713 -9 705 -9 669 c 0
 -9 641 -25 631 -49 616 c 2
EndSplineSet
EndChar
StartChar: uni0302
Encoding: 770 770 416
Width: 0
Flags: HW
Fore
-55 528 m 1
 -167 626 l 1
 -279 528 l 1
 -335 528 l 1
 -213 704 l 1
 -121 704 l 1
 2 528 l 1
 -55 528 l 1
EndSplineSet
EndChar
StartChar: tildecomb
Encoding: 771 771 417
Width: 0
Flags: HW
HStem: 547 78<-105 -80> 596 78<-258 -231>
Fore
-307 549 m 1
 -349 549 l 1
 -342 584 -323 674 -231 674 c 0
 -202 674 -170 659 -160 655 c 2
 -120 637 l 2
 -93 625 -93 625 -80 625 c 0
 -43 625 -33 657 -27 674 c 1
 16 674 l 1
 7 639 -16 547 -105 547 c 0
 -123 547 -149 554 -165 561 c 2
 -194 574 l 2
 -244 596 -244 596 -258 596 c 0
 -290 596 -306 567 -307 549 c 1
EndSplineSet
EndChar
StartChar: uni0304
Encoding: 772 772 418
Width: 0
Flags: HW
HStem: 565 72<-331 -3>
VStem: -332 330<566 636>
Fore
-2 637 m 1
 -2 565 l 1
 -332 565 l 1
 -332 637 l 1
 -2 637 l 1
EndSplineSet
MinimumDistance: x0,-1 
EndChar
StartChar: uni0305
Encoding: 773 773 419
Width: 0
Flags: HW
HStem: 565 72<-498 -2>
VStem: -499 498<566 636>
Fore
-1 637 m 1
 -1 565 l 1
 -499 565 l 1
 -499 637 l 1
 -1 637 l 1
EndSplineSet
MinimumDistance: x0,-1 
EndChar
StartChar: uni0306
Encoding: 774 774 420
Width: 0
Flags: HW
HStem: 528 76<-174 -158> 671 20G<-318 -274 -59 -15>
Fore
-59 691 m 1
 -15 691 l 1
 -22 591 -70 528 -167 528 c 0
 -260 528 -317 585 -318 691 c 1
 -274 691 l 1
 -269 663 -257 604 -166 604 c 0
 -82 604 -67 660 -59 691 c 1
EndSplineSet
EndChar
StartChar: uni0307
Encoding: 775 775 421
Width: 0
Flags: HW
HStem: 537 130<-179.174 -166>
VStem: -230 127<600 604>
Fore
-230 602 m 0
 -230 627 -210 667 -168 667 c 0
 -133 667 -103 637 -103 601 c 0
 -103 566 -131 537 -168 537 c 0
 -211 537 -230 577 -230 602 c 0
EndSplineSet
MinimumDistance: x2,-1 
EndChar
StartChar: uni0308
Encoding: 776 776 422
Width: 0
Flags: HW
HStem: 537 130<-283.198 -270 -74.174 -61>
VStem: -335 127<600 604> -125 127<600 604>
Fore
-335 602 m 0
 -335 627 -314 667 -272 667 c 0
 -237 667 -208 637 -208 601 c 0
 -208 566 -235 537 -272 537 c 0
 -315 537 -335 577 -335 602 c 0
-125 602 m 0
 -125 627 -105 667 -63 667 c 0
 -28 667 2 637 2 601 c 0
 2 566 -26 537 -63 537 c 0
 -106 537 -125 577 -125 602 c 0
EndSplineSet
EndChar
StartChar: hookabovecomb
Encoding: 777 777 423
Width: 0
Flags: HW
HStem: 679 30.0527<-192 -181>
VStem: -261 42<627 647> -157 66<627 648>
Fore
-151 501 m 1
 -194 501 l 1
 -194 571 -157 586 -157 631 c 0
 -157 655 -160 679 -191 679 c 0
 -208 679 -230 674 -228 657 c 0
 -226 644 -219 645 -219 627 c 0
 -219 618 -225 606 -238 606 c 0
 -257 606 -261 630 -261 647 c 1
 -257 685 -225 710 -176 710 c 0
 -151 710 -91 696 -91 639 c 0
 -91 587 -142 580 -151 501 c 1
EndSplineSet
MinimumDistance: x9,-1 
EndChar
StartChar: uni030A
Encoding: 778 778 424
Width: 0
Flags: HW
HStem: 527 48<-177 -161> 692 48<-177 -161>
VStem: -273 48<623.357 639> -108 48<623 639>
Fore
-273 633 m 0
 -273 692 -224 740 -166 740 c 128
 -108 740 -60 691 -60 633 c 0
 -60 574 -108 527 -166 527 c 128
 -224 527 -273 573 -273 633 c 0
-108 633 m 0
 -108 664 -135 692 -168 692 c 0
 -206 692 -225 655 -225 633 c 128
 -225 611 -207 575 -168 575 c 0
 -134 575 -108 601 -108 633 c 0
EndSplineSet
MinimumDistance: x2,-1 
EndChar
StartChar: uni030B
Encoding: 779 779 425
Width: 0
Flags: HW
Fore
-148 616 m 2
 -290 528 l 1
 -346 528 l 1
 -209 685 l 2
 -186 711 -167 713 -157 713 c 0
 -139 713 -108 705 -108 669 c 0
 -108 641 -124 631 -148 616 c 2
52 616 m 2
 -90 528 l 1
 -146 528 l 1
 -9 685 l 2
 14 711 33 713 43 713 c 0
 61 713 92 705 92 669 c 0
 92 641 76 631 52 616 c 2
EndSplineSet
EndChar
StartChar: uni030C
Encoding: 780 780 426
Width: 0
Flags: HW
Fore
2 704 m 1
 -121 528 l 1
 -213 528 l 1
 -335 704 l 1
 -279 704 l 1
 -167 605 l 1
 -55 704 l 1
 2 704 l 1
EndSplineSet
EndChar
StartChar: uni030D
Encoding: 781 781 427
Width: 0
Flags: HW
HStem: 504 260<-175.368 -164>
VStem: -212 90<712 728>
Fore
-154 504 m 1
 -179 504 l 1
 -188 563 -212 692 -212 721 c 0
 -212 748 -187 764 -166 764 c 0
 -146 764 -122 748 -122 721 c 0
 -122 692 -145 563 -154 504 c 1
EndSplineSet
MinimumDistance: x4,-1 
EndChar
StartChar: uni030E
Encoding: 782 782 428
Width: 0
Flags: HW
HStem: 504 260<-253.368 -242 -97.368 -82>
VStem: -290 90<712 728> -134 90<712 728>
Fore
-232 504 m 1
 -257 504 l 1
 -266 563 -290 692 -290 721 c 0
 -290 748 -265 764 -244 764 c 0
 -224 764 -200 748 -200 721 c 0
 -200 692 -223 563 -232 504 c 1
-76 504 m 1
 -101 504 l 1
 -110 563 -134 692 -134 721 c 0
 -134 748 -109 764 -88 764 c 0
 -68 764 -44 748 -44 721 c 0
 -44 692 -67 563 -76 504 c 1
EndSplineSet
MinimumDistance: x9,-1 
EndChar
StartChar: uni030F
Encoding: 783 783 429
Width: 0
Flags: HW
Fore
-106 616 m 2
 -130 631 -146 641 -146 669 c 0
 -146 705 -115 713 -97 713 c 0
 -87 713 -68 711 -45 685 c 2
 92 528 l 1
 36 528 l 1
 -106 616 l 2
-306 616 m 2
 -330 631 -346 641 -346 669 c 0
 -346 705 -315 713 -297 713 c 0
 -287 713 -268 711 -245 685 c 2
 -108 528 l 1
 -164 528 l 1
 -306 616 l 2
EndSplineSet
EndChar
StartChar: uni0310
Encoding: 784 784 430
Width: 0
Flags: HW
HStem: 507 76<-174 -158> 631 130<-174 -158>
VStem: -230 127<694 699>
Fore
-59 670 m 1
 -15 670 l 1
 -22 570 -70 507 -167 507 c 0
 -260 507 -317 564 -318 670 c 1
 -274 670 l 1
 -269 642 -257 583 -166 583 c 0
 -82 583 -67 639 -59 670 c 1
-230 696 m 0
 -230 721 -210 761 -168 761 c 0
 -133 761 -103 731 -103 695 c 0
 -103 660 -131 631 -168 631 c 0
 -211 631 -230 671 -230 696 c 0
EndSplineSet
MinimumDistance: x8,-1 
EndChar
StartChar: uni0311
Encoding: 785 785 431
Width: 0
Flags: HW
HStem: 593 76<-174 -158>
Fore
-59 506 m 1
 -67 537 -82 593 -166 593 c 0
 -257 593 -269 534 -274 506 c 1
 -318 506 l 1
 -317 612 -260 669 -167 669 c 0
 -70 669 -22 606 -15 506 c 1
 -59 506 l 1
EndSplineSet
EndChar
StartChar: uni0312
Encoding: 786 786 432
Width: 0
Flags: HW
HStem: 524 88<-181 -145> 524 97<-145 -130> 705.018 29.9825<-135 -127> 706 26<-112 -100>
VStem: -255 48<630 650>
Fore
-81 573 m 0
 -81 538 -115 524 -145 524 c 0
 -211 524 -255 563 -255 630 c 128
 -255 697 -199 735 -136 735 c 0
 -124 735 -112 733 -100 732 c 1
 -100 706 l 1
 -140 706 -207 706 -207 650 c 0
 -207 634 -200 612 -181 612 c 0
 -163 612 -147 621 -130 621 c 0
 -101 621 -81 602 -81 573 c 0
EndSplineSet
MinimumDistance: x6,-1 
EndChar
StartChar: uni0313
Encoding: 787 787 433
Width: 0
Flags: HW
HStem: 525 29.5781<-207 -201> 528 26<-236 -224> 648 88<-191 -155>
VStem: -129 48<610 630>
Fore
-255 687 m 0
 -255 722 -221 736 -191 736 c 0
 -125 736 -81 697 -81 630 c 0
 -81 563 -137 525 -200 525 c 0
 -212 525 -224 527 -236 528 c 1
 -236 554 l 1
 -196 554 -129 554 -129 610 c 0
 -129 626 -136 648 -155 648 c 0
 -173 648 -189 639 -206 639 c 0
 -235 639 -255 658 -255 687 c 0
EndSplineSet
MinimumDistance: x2,-1 
EndChar
StartChar: uni0314
Encoding: 788 788 434
Width: 0
Flags: HW
HStem: 525 29.9825<-135 -127> 528 26<-112 -100> 648 88<-181 -145>
VStem: -255 48<610 630>
Fore
-81 687 m 0
 -81 658 -101 639 -130 639 c 0
 -147 639 -163 648 -181 648 c 0
 -200 648 -207 626 -207 610 c 0
 -207 554 -140 554 -100 554 c 1
 -100 528 l 1
 -112 527 -124 525 -136 525 c 0
 -199 525 -255 563 -255 630 c 128
 -255 697 -211 736 -145 736 c 0
 -115 736 -81 722 -81 687 c 0
EndSplineSet
MinimumDistance: x3,-1 
EndChar
StartChar: uni0315
Encoding: 789 789 435
Width: 0
Flags: HW
HStem: 530 161<-261 -237>
VStem: -334 184<577 609>
Fore
-316 356 m 1
 -327 378 l 1
 -299 397 -218 454 -218 510 c 0
 -218 522 -225 532 -238 532 c 0
 -243 532 -248 530 -260 530 c 0
 -288 530 -334 546 -334 609 c 0
 -334 661 -298 691 -252 691 c 0
 -179 691 -150 629 -150 577 c 0
 -150 451 -263 386 -316 356 c 1
EndSplineSet
MinimumDistance: x7,-1 
EndChar
StartChar: uni0316
Encoding: 790 790 436
Width: 0
Flags: HW
Fore
-51 -310 m 1
 -107 -310 l 1
 -249 -222 l 2
 -274 -207 -289 -192 -289 -169 c 0
 -289 -155 -278 -125 -240 -125 c 0
 -219 -125 -199 -140 -188 -153 c 2
 -51 -310 l 1
EndSplineSet
EndChar
StartChar: uni0317
Encoding: 791 791 437
Width: 0
Flags: HW
Fore
-289 -310 m 1
 -152 -153 l 2
 -141 -140 -121 -125 -100 -125 c 0
 -62 -125 -51 -155 -51 -169 c 0
 -51 -192 -66 -207 -91 -222 c 2
 -233 -310 l 1
 -289 -310 l 1
EndSplineSet
EndChar
StartChar: uni0318
Encoding: 792 792 438
Width: 0
Flags: HW
HStem: -318 72<-295 -113>
VStem: -113 72<-437 -319 -245 -128>
Fore
-113 -318 m 1
 -296 -318 l 1
 -296 -246 l 1
 -113 -246 l 1
 -113 -127 l 1
 -41 -127 l 1
 -41 -438 l 1
 -113 -438 l 1
 -113 -318 l 1
EndSplineSet
MinimumDistance: x5,-1 y0,6 y0,7 x3,1 x3,2 
EndChar
StartChar: uni0319
Encoding: 793 793 439
Width: 0
Flags: HW
HStem: -318 72<-223 -41>
VStem: -295 72<-437 -318 -246 -128> -295 255<-317 -247>
Fore
-223 -318 m 1
 -223 -438 l 1
 -295 -438 l 1
 -295 -127 l 1
 -223 -127 l 1
 -223 -246 l 1
 -40 -246 l 1
 -40 -318 l 1
 -223 -318 l 1
EndSplineSet
MinimumDistance: x6,-1 y5,3 y5,4 y0,2 y0,1 x0,6 x0,7 
EndChar
StartChar: uni031A
Encoding: 794 794 440
Width: 0
Flags: HW
HStem: 670 72<-284 -121>
VStem: -120 72<506 669>
Fore
-48 505 m 1
 -120 505 l 1
 -120 670 l 1
 -285 670 l 1
 -285 742 l 1
 -48 742 l 1
 -48 505 l 1
EndSplineSet
MinimumDistance: x0,-1 y2,0 y2,1 
EndChar
StartChar: uni031B
Encoding: 795 795 441
Width: 0
Flags: HW
HStem: 319 38<-253 -237> 444.899 117.101<-225 -214>
VStem: -333 0<443 445> -163 49<423 446>
Fore
-333 356 m 1
 -333 446 l 2
 -333 396 -294 357 -244 357 c 0
 -213 357 -185 371 -171 395 c 0
 -166 404 -163 414 -163 423 c 0
 -163 447 -188 454 -209 447 c 0
 -233 439 -280 453 -280 499 c 0
 -280 536 -255 562 -215 562 c 0
 -164 562 -114 508 -114 446 c 0
 -114 376 -171 319 -242 319 c 0
 -277 319 -310 333 -333 356 c 1
EndSplineSet
EndChar
StartChar: uni031C
Encoding: 796 796 442
Width: 0
Flags: HW
HStem: -362 72<-151 -144> -200 72<-151 -144>
VStem: -263 72<-250 -243>
Fore
-93 -141 m 1
 -125 -205 l 1
 -132 -202 -138 -200 -146 -200 c 0
 -171 -200 -191 -220 -191 -245 c 0
 -191 -270 -171 -290 -146 -290 c 0
 -139 -290 -132 -288 -126 -285 c 1
 -93 -349 l 1
 -109 -357 -127 -362 -146 -362 c 0
 -211 -362 -263 -310 -263 -245 c 128
 -263 -180 -211 -128 -146 -128 c 0
 -127 -128 -109 -133 -93 -141 c 1
EndSplineSet
MinimumDistance: x3,-1 
EndChar
StartChar: uni031D
Encoding: 797 797 443
Width: 0
Flags: HW
HStem: -384 72<-322 -203 -131 -13> -384 255<-202 -132>
VStem: -203 72<-312 -130>
Fore
-131 -312 m 1
 -12 -312 l 1
 -12 -384 l 1
 -323 -384 l 1
 -323 -312 l 1
 -203 -312 l 1
 -203 -129 l 1
 -131 -129 l 1
 -131 -312 l 1
EndSplineSet
MinimumDistance: x1,-1 y0,6 y0,7 x5,3 x5,4 x0,2 x0,1 
EndChar
StartChar: uni031E
Encoding: 798 798 444
Width: 0
Flags: HW
HStem: -249 72<-322 -204 -130 -13>
VStem: -203 72<-431 -249>
Fore
-131 -249 m 1
 -131 -432 l 1
 -203 -432 l 1
 -203 -249 l 1
 -323 -249 l 1
 -323 -177 l 1
 -12 -177 l 1
 -12 -249 l 1
 -131 -249 l 1
EndSplineSet
MinimumDistance: x6,-1 y0,2 y0,1 x0,6 x0,7 
EndChar
StartChar: uni031F
Encoding: 799 799 445
Width: 0
Flags: HW
HStem: -405 276<-203 -131> -303 72<-322 -203 -131 -13>
VStem: -203 72<-404 -303 -231 -130>
Fore
-323 -303 m 1
 -323 -231 l 1
 -203 -231 l 1
 -203 -129 l 1
 -131 -129 l 1
 -131 -231 l 1
 -12 -231 l 1
 -12 -303 l 1
 -131 -303 l 1
 -131 -405 l 1
 -203 -405 l 1
 -203 -303 l 1
 -323 -303 l 1
EndSplineSet
MinimumDistance: x6,-1 y8,10 y8,9 y5,3 y5,4 x5,7 x5,6 x2,0 x2,1 
EndChar
StartChar: uni0320
Encoding: 800 800 446
Width: 0
Flags: HW
HStem: -249 72<-322 -13>
VStem: -323 311<-248 -178>
Fore
-12 -177 m 1
 -12 -249 l 1
 -323 -249 l 1
 -323 -177 l 1
 -12 -177 l 1
EndSplineSet
MinimumDistance: x0,-1 
EndChar
StartChar: uni0321
Encoding: 801 801 447
Width: 0
Flags: HW
HStem: -251 44<-380 -371> 0 23<-378 -334>
VStem: -500 127<-166.047 -150> -333 57<-156 -1>
Fore
-395 -204 m 1
 -388 -206 -382 -207 -376 -207 c 0
 -346 -207 -333 -182 -333 -152 c 2
 -333 0 l 1
 -379 0 l 1
 -379 23 l 1
 -331 23 l 1
 -321 31 -314 39 -308 46 c 1
 -276 35 l 1
 -276 -152 l 2
 -276 -196 -311 -251 -375 -251 c 0
 -446 -251 -500 -217 -500 -154 c 0
 -500 -129 -480 -89 -438 -89 c 0
 -403 -89 -373 -119 -373 -155 c 0
 -373 -174 -382 -192 -395 -204 c 1
EndSplineSet
EndChar
StartChar: uni0322
Encoding: 802 802 448
Width: 0
Flags: HW
HStem: -251 44<-294 -285> 0 23<-332 -288>
VStem: -390 57<-156 0> -390 103<1 23> -293 127<-166.047 -150>
Fore
-271 -204 m 1
 -284 -192 -293 -174 -293 -155 c 0
 -293 -119 -263 -89 -228 -89 c 0
 -186 -89 -166 -129 -166 -154 c 0
 -166 -217 -220 -251 -291 -251 c 0
 -355 -251 -390 -196 -390 -152 c 2
 -390 35 l 1
 -358 46 l 1
 -352 39 -345 31 -335 23 c 1
 -287 23 l 1
 -287 0 l 1
 -333 0 l 1
 -333 -152 l 2
 -333 -182 -320 -207 -290 -207 c 0
 -284 -207 -278 -206 -271 -204 c 1
EndSplineSet
MinimumDistance: x11,9 x11,10 
EndChar
StartChar: dotbelowcomb
Encoding: 803 803 449
Width: 0
Flags: HW
HStem: -256 130<-179.174 -166>
VStem: -230 127<-193 -189>
Fore
-230 -191 m 0
 -230 -166 -210 -126 -168 -126 c 0
 -133 -126 -103 -156 -103 -192 c 0
 -103 -227 -131 -256 -168 -256 c 0
 -211 -256 -230 -216 -230 -191 c 0
EndSplineSet
MinimumDistance: x2,-1 
EndChar
StartChar: uni0324
Encoding: 804 804 450
Width: 0
Flags: HW
HStem: -255 130<-283.198 -270 -74.174 -61>
VStem: -335 127<-192 -188> -125 127<-192 -188>
Fore
-335 -190 m 0
 -335 -165 -314 -125 -272 -125 c 0
 -237 -125 -208 -155 -208 -191 c 0
 -208 -226 -235 -255 -272 -255 c 0
 -315 -255 -335 -215 -335 -190 c 0
-125 -190 m 0
 -125 -165 -105 -125 -63 -125 c 0
 -28 -125 2 -155 2 -191 c 0
 2 -226 -26 -255 -63 -255 c 0
 -106 -255 -125 -215 -125 -190 c 0
EndSplineSet
EndChar
StartChar: uni0325
Encoding: 805 805 451
Width: 0
Flags: HW
HStem: -344 48<-177 -161> -179 48<-177 -161>
VStem: -273 48<-247.643 -232> -108 48<-248 -232>
Fore
-273 -238 m 0
 -273 -179 -224 -131 -166 -131 c 128
 -108 -131 -60 -180 -60 -238 c 0
 -60 -297 -108 -344 -166 -344 c 128
 -224 -344 -273 -298 -273 -238 c 0
-108 -238 m 0
 -108 -207 -135 -179 -168 -179 c 0
 -206 -179 -225 -216 -225 -238 c 128
 -225 -260 -207 -296 -168 -296 c 0
 -134 -296 -108 -270 -108 -238 c 0
EndSplineSet
MinimumDistance: x2,-1 
EndChar
StartChar: uni0326
Encoding: 806 806 452
Width: 0
Flags: HW
HStem: -288 161<-181 -157>
VStem: -254 184<-241 -209>
Fore
-236 -462 m 1
 -247 -440 l 1
 -219 -421 -138 -364 -138 -308 c 0
 -138 -296 -145 -286 -158 -286 c 0
 -163 -286 -168 -288 -180 -288 c 0
 -208 -288 -254 -272 -254 -209 c 0
 -254 -157 -218 -127 -172 -127 c 0
 -99 -127 -70 -189 -70 -241 c 0
 -70 -367 -183 -432 -236 -462 c 1
EndSplineSet
MinimumDistance: x7,-1 
EndChar
StartChar: uni0327
Encoding: 807 807 453
Width: 0
Flags: HW
HStem: -218 41<-191 -173> -100.089 100.089<-174 -169>
VStem: -132 93<-138 -127>
DStem: 159 0 201 0 116 -96 173 -64
Fore
-217 -96 m 1
 -174 0 l 1
 -132 0 l 1
 -160 -64 l 1
 -150 -61 -142 -59 -129 -59 c 0
 -78 -59 -39 -80 -39 -129 c 0
 -39 -210 -136 -218 -174 -218 c 0
 -186 -218 -224 -216 -265 -200 c 1
 -249 -163 l 1
 -230 -170 -214 -177 -190 -177 c 0
 -178 -177 -132 -177 -132 -136 c 0
 -132 -111 -152 -100 -178 -100 c 0
 -191 -100 -198 -102 -206 -104 c 1
 -217 -96 l 1
EndSplineSet
MinimumDistance: x5,-1 
EndChar
StartChar: uni0328
Encoding: 808 808 454
Width: 0
Flags: HW
HStem: -20 20G<-196 -134>
Fore
-134 0 m 1
 -203 -20 -203 -54 -195 -77 c 0
 -181 -116 -133 -101 -122 -97 c 0
 -99 -89 -89 -86 -72 -69 c 1
 -47 -89 l 1
 -76 -127 -114 -140 -125 -144 c 0
 -161 -157 -256 -179 -282 -103 c 0
 -298 -57 -257 -10 -196 0 c 1
 -134 0 l 1
EndSplineSet
EndChar
StartChar: uni0329
Encoding: 809 809 455
Width: 0
Flags: HW
HStem: -391 260<-175.368 -164>
VStem: -212 90<-357.127 -343>
Fore
-154 -131 m 1
 -145 -190 -122 -319 -122 -348 c 0
 -122 -375 -146 -391 -166 -391 c 0
 -187 -391 -212 -375 -212 -348 c 0
 -212 -319 -188 -190 -179 -131 c 1
 -154 -131 l 1
EndSplineSet
MinimumDistance: x1,-1 
EndChar
StartChar: uni032A
Encoding: 810 810 456
Width: 0
Flags: HW
HStem: -249 72<-250 -85>
VStem: -323 72<-369 -250> -84 72<-369 -250>
Fore
-12 -177 m 1
 -12 -370 l 1
 -84 -370 l 1
 -84 -249 l 1
 -251 -249 l 1
 -251 -370 l 1
 -323 -370 l 1
 -323 -177 l 1
 -12 -177 l 1
EndSplineSet
MinimumDistance: x0,-1 y4,6 y4,5 y3,1 y3,2 
EndChar
StartChar: uni032B
Encoding: 811 811 457
Width: 0
Flags: HW
VStem: -355 70.9401<-323 -321> -47 75<-323 -298>
Fore
-164 -214 m 0
 -151 -215 -152 -222 -147 -243 c 0
 -137 -289 -130 -351 -78 -351 c 0
 -53 -351 -47 -338 -47 -298 c 0
 -47 -259 -53 -222 -90 -172 c 0
 -102 -156 -86 -148 -72 -157 c 0
 -14 -194 28 -258 28 -323 c 0
 28 -381 4 -417 -39 -417 c 0
 -83 -417 -133 -395 -162 -352 c 1
 -194 -395 -245 -417 -288 -417 c 128
 -331 -417 -355 -381 -355 -323 c 0
 -355 -258 -313 -194 -255 -157 c 0
 -241 -148 -225 -155 -237 -172 c 0
 -272 -221 -285 -262 -285 -301 c 0
 -285 -341 -279 -354 -254 -354 c 0
 -202 -354 -191 -289 -180 -243 c 0
 -175 -222 -176 -213 -164 -214 c 0
EndSplineSet
EndChar
StartChar: uni032C
Encoding: 812 812 458
Width: 0
Flags: HW
Fore
2 -165 m 1
 -121 -341 l 1
 -213 -341 l 1
 -335 -165 l 1
 -279 -165 l 1
 -167 -264 l 1
 -55 -165 l 1
 2 -165 l 1
EndSplineSet
EndChar
StartChar: uni032D
Encoding: 813 813 459
Width: 0
Flags: HW
Fore
2 -342 m 1
 -55 -342 l 1
 -167 -243 l 1
 -279 -342 l 1
 -335 -342 l 1
 -213 -166 l 1
 -121 -166 l 1
 2 -342 l 1
EndSplineSet
EndChar
StartChar: uni032E
Encoding: 814 814 460
Width: 0
Flags: HW
HStem: -317 76<-174 -158>
Fore
-59 -154 m 1
 -15 -154 l 1
 -22 -254 -70 -317 -167 -317 c 0
 -260 -317 -317 -260 -318 -154 c 1
 -274 -154 l 1
 -269 -182 -257 -241 -166 -241 c 0
 -82 -241 -67 -185 -59 -154 c 1
EndSplineSet
EndChar
StartChar: uni032F
Encoding: 815 815 461
Width: 0
Flags: HW
HStem: -231 76<-174 -158>
Fore
-59 -318 m 1
 -67 -287 -82 -231 -166 -231 c 0
 -257 -231 -269 -290 -274 -318 c 1
 -318 -318 l 1
 -317 -212 -260 -155 -167 -155 c 0
 -70 -155 -22 -218 -15 -318 c 1
 -59 -318 l 1
EndSplineSet
EndChar
StartChar: uni0330
Encoding: 816 816 462
Width: 0
Flags: HW
HStem: -302 78<-105 -80> -253 78<-258 -231>
Fore
-307 -300 m 1
 -349 -300 l 1
 -342 -265 -323 -175 -231 -175 c 0
 -202 -175 -170 -190 -160 -194 c 2
 -120 -212 l 2
 -93 -224 -93 -224 -80 -224 c 0
 -43 -224 -33 -192 -27 -175 c 1
 16 -175 l 1
 7 -210 -16 -302 -105 -302 c 0
 -123 -302 -149 -295 -165 -288 c 2
 -194 -275 l 2
 -244 -253 -244 -253 -258 -253 c 0
 -290 -253 -306 -282 -307 -300 c 1
EndSplineSet
EndChar
StartChar: uni0331
Encoding: 817 817 463
Width: 0
Flags: HW
HStem: -249 72<-331 -3>
VStem: -332 330<-248 -178>
Fore
-2 -177 m 1
 -2 -249 l 1
 -332 -249 l 1
 -332 -177 l 1
 -2 -177 l 1
EndSplineSet
MinimumDistance: x0,-1 
EndChar
StartChar: uni0332
Encoding: 818 818 464
Width: 0
Flags: HW
HStem: -249 72<-498 -2>
VStem: -499 498<-248 -178>
Fore
-1 -177 m 1
 -1 -249 l 1
 -499 -249 l 1
 -499 -177 l 1
 -1 -177 l 1
EndSplineSet
MinimumDistance: x0,-1 
EndChar
StartChar: uni0333
Encoding: 819 819 465
Width: 0
Flags: HW
HStem: -393 72<-498 -2> -249 72<-498 -2>
VStem: -499 498<-392 -322 -248 -178>
Fore
-1 -177 m 1
 -1 -249 l 1
 -499 -249 l 1
 -499 -177 l 1
 -1 -177 l 1
-1 -321 m 1
 -1 -393 l 1
 -499 -393 l 1
 -499 -321 l 1
 -1 -321 l 1
EndSplineSet
MinimumDistance: x0,-1 
EndChar
StartChar: uni0334
Encoding: 820 820 466
Width: 0
Flags: HW
HStem: 270 78<-86 -61> 319 78<-239 -212>
Fore
-288 272 m 1
 -330 272 l 1
 -323 307 -304 397 -212 397 c 0
 -183 397 -151 382 -141 378 c 2
 -101 360 l 2
 -74 348 -74 348 -61 348 c 0
 -24 348 -14 380 -8 397 c 1
 35 397 l 1
 26 362 3 270 -86 270 c 0
 -104 270 -130 277 -146 284 c 2
 -175 297 l 2
 -225 319 -225 319 -239 319 c 0
 -271 319 -287 290 -288 272 c 1
EndSplineSet
EndChar
StartChar: uni0335
Encoding: 821 821 467
Width: 0
Flags: HW
HStem: 186 72<-332 -56>
VStem: -333 278<187 257>
Fore
-55 258 m 1
 -55 186 l 1
 -333 186 l 1
 -333 258 l 1
 -55 258 l 1
EndSplineSet
EndChar
StartChar: uni0336
Encoding: 822 822 468
Width: 0
Flags: HW
HStem: 187 72<-474 -32>
VStem: -475 444<188 258>
Fore
-31 259 m 1
 -31 187 l 1
 -475 187 l 1
 -475 259 l 1
 -31 259 l 1
EndSplineSet
MinimumDistance: x0,-1 
EndChar
StartChar: uni0337
Encoding: 823 823 469
Width: 0
Flags: W
DStem: -67 348 -37 283 -469 161 -439 95
Fore
-67 348 m 1
 -37 283 l 1
 -439 95 l 1
 -469 161 l 1
 -67 348 l 1
EndSplineSet
EndChar
StartChar: uni0338
Encoding: 824 824 470
Width: 0
Flags: W
DStem: -120 406 -69 355 -435 91 -384 40
Fore
-120 406 m 1
 -69 355 l 1
 -384 40 l 1
 -435 91 l 1
 -120 406 l 1
EndSplineSet
EndChar
StartChar: uni0339
Encoding: 825 825 471
Width: 0
Flags: HW
HStem: -362 72<-209 -202> -200 72<-209 -202>
VStem: -159 72<-250 -243>
Fore
-257 -141 m 1
 -241 -133 -223 -128 -204 -128 c 0
 -139 -128 -87 -180 -87 -245 c 0
 -87 -310 -139 -362 -204 -362 c 0
 -223 -362 -241 -357 -257 -349 c 1
 -224 -285 l 1
 -218 -288 -211 -290 -204 -290 c 0
 -179 -290 -159 -270 -159 -245 c 128
 -159 -220 -179 -200 -204 -200 c 0
 -212 -200 -218 -202 -225 -205 c 1
 -257 -141 l 1
EndSplineSet
MinimumDistance: x2,-1 
EndChar
StartChar: uni033A
Encoding: 826 826 472
Width: 0
Flags: HW
HStem: -306 72<-251 -84> -306 193<-322 -252 -83 -13>
VStem: -323 72<-233 -114> -84 72<-233 -114>
Fore
-12 -306 m 1
 -323 -306 l 1
 -323 -113 l 1
 -251 -113 l 1
 -251 -234 l 1
 -84 -234 l 1
 -84 -113 l 1
 -12 -113 l 1
 -12 -306 l 1
EndSplineSet
MinimumDistance: x0,-1 y4,2 y4,3 
EndChar
StartChar: uni033B
Encoding: 827 827 473
Width: 0
Flags: HW
HStem: -488 72<-250 -85> -249 72<-250 -85>
VStem: -323 72<-415 -250> -84 72<-415 -250>
Fore
-323 -177 m 1
 -12 -177 l 1
 -12 -488 l 1
 -323 -488 l 1
 -323 -177 l 1
-251 -249 m 1
 -251 -416 l 1
 -84 -416 l 1
 -84 -249 l 1
 -251 -249 l 1
EndSplineSet
MinimumDistance: x1,-1 
EndChar
StartChar: uni033C
Encoding: 828 828 474
Width: 0
Flags: HW
Fore
-168 -378 m 0
 -183 -378 -185 -365 -186 -356 c 0
 -192 -315 -194 -249 -262 -242 c 0
 -285 -240 -316 -245 -336 -252 c 0
 -357 -259 -354 -237 -347 -234 c 1
 -315 -181 -278 -164 -248 -165 c 0
 -218 -167 -185 -179 -167 -248 c 1
 -148 -179 -112 -167 -82 -165 c 0
 -52 -164 -6 -177 14 -234 c 0
 16 -241 24 -259 3 -252 c 0
 -17 -245 -48 -241 -71 -242 c 0
 -140 -245 -136 -317 -147 -356 c 0
 -149 -365 -150 -378 -168 -378 c 0
EndSplineSet
EndChar
StartChar: uni033D
Encoding: 829 829 475
Width: 0
Flags: HW
DStem: 19 726 70 777 110 635 161 686 110 635 161 584 19 544 70 493 161 584 212 635 252 493 303 544 252 777 303 726 161 686 212 635
Fore
-172 584 m 1
 -263 493 l 1
 -314 544 l 1
 -223 635 l 1
 -314 726 l 1
 -263 777 l 1
 -172 686 l 1
 -81 777 l 1
 -30 726 l 1
 -121 635 l 1
 -30 544 l 1
 -81 493 l 1
 -172 584 l 1
EndSplineSet
MinimumDistance: x8,-1 
EndChar
StartChar: uni033E
Encoding: 830 830 476
Width: 0
Flags: HW
VStem: -230 78<687 709> -181 78<566 586>
Fore
-105 748 m 1
 -123 747 -152 734 -152 709 c 0
 -152 698 -152 698 -130 658 c 2
 -117 634 l 2
 -110 622 -103 601 -103 586 c 0
 -103 515 -195 497 -230 490 c 1
 -230 524 l 1
 -213 529 -181 537 -181 566 c 0
 -181 577 -181 577 -193 598 c 2
 -211 630 l 2
 -215 638 -230 664 -230 687 c 0
 -230 761 -140 776 -105 782 c 1
 -105 748 l 1
EndSplineSet
MinimumDistance: x4,-1 
EndChar
StartChar: uni033F
Encoding: 831 831 477
Width: 0
Flags: HW
HStem: 547 72<-498 -2> 691 72<-498 -2>
VStem: -499 498<548 618 692 762>
Fore
-1 763 m 1
 -1 691 l 1
 -499 691 l 1
 -499 763 l 1
 -1 763 l 1
-1 619 m 1
 -1 547 l 1
 -499 547 l 1
 -499 619 l 1
 -1 619 l 1
EndSplineSet
MinimumDistance: x0,-1 
EndChar
StartChar: uni0360
Encoding: 864 864 478
Width: 0
Flags: HW
HStem: 636 113<-40 8>
Fore
-456 502 m 1
 -431 544 -307 749 -15 749 c 0
 67 749 281 721 406 502 c 1
 378 502 l 1
 319 586 248 636 -24 636 c 0
 -329 636 -373 572 -429 502 c 1
 -456 502 l 1
EndSplineSet
EndChar
StartChar: uni0361
Encoding: 865 865 479
Width: 0
Flags: HW
Fore
4 632 m 0
 76 611 164 588 224 594 c 0
 285 600 351 642 386 697 c 1
 423 682 l 1
 394 619 335 524 231 513 c 128
 127 502 68 530 -20 553 c 0
 -97 573 -185 600 -245 594 c 0
 -306 588 -370 553 -405 498 c 1
 -444 506 l 1
 -415 569 -356 664 -252 675 c 128
 -148 686 -88 658 4 632 c 0
EndSplineSet
EndChar
StartChar: uni0374
Encoding: 884 884 480
Width: 199
Flags: W
Fore
164 725 m 0
 164 700 52 572 27 551 c 1
 1 569 l 1
 17 615 55 780 111 780 c 0
 139 780 164 753 164 725 c 0
EndSplineSet
EndChar
StartChar: uni0375
Encoding: 885 885 481
Width: 199
Flags: W
Fore
200 -9 m 1
 184 -55 146 -220 90 -220 c 0
 62 -220 37 -193 37 -165 c 0
 37 -140 149 -12 174 9 c 1
 200 -9 l 1
EndSplineSet
EndChar
StartChar: uni037A
Encoding: 890 890 482
Width: 0
Flags: W
Fore
300 -152 m 1
 300 -208 267 -233 213 -233 c 0
 172 -233 130 -208 130 -163 c 2
 130 -50 l 1
 220 -50 l 1
 220 -73 217 -95 217 -118 c 0
 217 -135 217 -193 243 -193 c 0
 266 -193 267 -169 271 -152 c 1
 300 -152 l 1
EndSplineSet
EndChar
StartChar: tonos
Encoding: 900 900 483
Width: 180
Flags: W
Fore
134 735 m 0
 134 675 114 616 103 557 c 1
 75 557 l 1
 64 616 44 675 44 735 c 0
 44 768 64 774 93 774 c 0
 118 774 134 761 134 735 c 0
EndSplineSet
EndChar
StartChar: dieresistonos
Encoding: 901 901 484
Width: 330
Flags: W
VStem: -39 127<610.065 624> 121 90<716 738> 243 126<610.065 624>
Fore
369 621 m 0
 369 587 340 557 306 557 c 128
 272 557 243 587 243 621 c 128
 243 655 272 684 306 684 c 128
 340 684 369 655 369 621 c 0
211 735 m 0
 211 675 191 616 180 557 c 1
 152 557 l 1
 141 616 121 675 121 735 c 0
 121 768 141 774 170 774 c 0
 195 774 211 761 211 735 c 0
88 621 m 0
 88 587 59 557 25 557 c 0
 -10 557 -39 586 -39 621 c 0
 -39 655 -9 684 25 684 c 128
 59 684 88 655 88 621 c 0
EndSplineSet
EndChar
StartChar: anoteleia
Encoding: 903 903 486
Width: 250
Flags: W
Fore
218 351 m 0
 218 300 176 258 125 258 c 128
 74 258 32 300 32 351 c 128
 32 402 74 444 125 444 c 128
 176 444 218 402 218 351 c 0
EndSplineSet
EndChar
StartChar: iotadieresistonos
Encoding: 912 912 493
Width: 330
Flags: W
HStem: 441 20G<65 220> 557 127<14.0654 28 296 314> 557 217<152 180>
VStem: -39 127<610 628> 65 155<98 461> 121 90<722 740> 243 126<610 628> 289 29<130 148>
Fore
369 621 m 0
 369 587 340 557 306 557 c 128
 272 557 243 587 243 621 c 128
 243 655 272 684 306 684 c 128
 340 684 369 655 369 621 c 0
211 735 m 0
 211 675 191 616 180 557 c 1
 152 557 l 1
 141 616 121 675 121 735 c 0
 121 768 141 774 170 774 c 0
 195 774 211 761 211 735 c 0
88 621 m 0
 88 587 59 557 25 557 c 0
 -10 557 -39 586 -39 621 c 0
 -39 655 -9 684 25 684 c 128
 59 684 88 655 88 621 c 0
318 148 m 1
 318 55 279 -13 178 -13 c 0
 110 -13 65 39 65 105 c 2
 65 461 l 1
 220 461 l 1
 220 78 l 2
 220 64 223 45 241 45 c 0
 286 45 289 116 289 148 c 1
 318 148 l 1
EndSplineSet
MinimumDistance: x13,-1 
EndChar
StartChar: Alpha
Encoding: 913 913 494
Width: 722
Flags: W
HStem: 0 25<198 212 365 379.5 668 689> 197 39<189 384> 670 20G<329 357>
DStem: 283 479 357 690 384 236 580 164 329 690 283 479 107 142 189 236
Fore
689 0 m 1
 365 0 l 1
 365 25 l 1
 394 27 445 22 445 64 c 0
 445 94 413 167 399 197 c 1
 174 197 l 1
 163 171 130 92 130 68 c 0
 130 28 184 27 212 25 c 1
 212 0 l 1
 9 0 l 1
 9 25 l 1
 71 34 87 92 107 142 c 2
 329 690 l 1
 357 690 l 1
 580 164 l 1
 599 118 626 22 689 25 c 1
 689 0 l 1
384 236 m 1
 283 479 l 1
 189 236 l 1
 384 236 l 1
EndSplineSet
MinimumDistance: x14,-1 
EndChar
StartChar: Beta
Encoding: 914 914 495
Width: 667
Flags: W
HStem: 0 25<16 28.75> 0 32<315 341> 343 30<264.125 296> 651 25<16 42>
VStem: 104 160<79 343 373 597> 420 165<497.581 529> 447 172<175 193>
Fore
619 186 m 0
 619 42 454 0 338 0 c 2
 16 0 l 1
 16 25 l 1
 67 29 104 35 104 96 c 2
 104 580 l 2
 104 641 68 649 16 651 c 1
 16 676 l 1
 325 676 l 2
 431 676 585 652 585 516 c 0
 585 421 508 389 430 366 c 1
 430 364 l 1
 524 348 619 293 619 186 c 0
420 517 m 0
 420 587 397 646 317 646 c 0
 281 646 264 635 264 597 c 2
 264 373 l 1
 378 373 420 397 420 517 c 0
447 182 m 0
 447 286 401 343 294 343 c 2
 264 343 l 1
 264 93 l 2
 264 51 281 32 324 32 c 0
 419 32 447 98 447 182 c 0
EndSplineSet
MinimumDistance: x0,-1 
EndChar
StartChar: Gamma
Encoding: 915 915 496
Width: 611
Flags: W
HStem: 0 25<16 26.4 348.5 376> 475 21G<559 583> 642 34<303 369> 651 25<16 33.3333>
VStem: 104 162<80.2984 597>
Fore
583 475 m 1
 559 475 l 1
 528 623 467 642 325 642 c 0
 289 642 266 638 266 595 c 2
 266 96 l 2
 266 24 321 27 376 25 c 1
 376 0 l 1
 16 0 l 1
 16 25 l 1
 68 30 104 33 104 96 c 2
 104 580 l 2
 104 641 68 648 16 651 c 1
 16 676 l 1
 583 676 l 1
 583 475 l 1
EndSplineSet
MinimumDistance: x3,-1 
EndChar
StartChar: uni0394
Encoding: 916 916 497
Width: 759
Flags: W
HStem: 0 40<77 561> 670 20G<365 399>
DStem: 320 518 399 690 561 40 746 0 365 690 320 518 13 0 77 40
Fore
746 0 m 1
 13 0 l 1
 365 690 l 1
 399 690 l 1
 746 0 l 1
561 40 m 1
 320 518 l 1
 77 40 l 1
 561 40 l 1
EndSplineSet
MinimumDistance: x0,-1 
EndChar
StartChar: Epsilon
Encoding: 917 917 498
Width: 667
Flags: W
HStem: 0 25<16 26.4> 0 31<319 369> 329 34<266.125 292.81> 475 21G<568 593> 642 34<303 369> 651 25<16 33.3333>
VStem: 104 162<79 329 363 597>
Fore
641 208 m 1
 601 0 l 1
 16 0 l 1
 16 25 l 1
 68 30 104 33 104 96 c 2
 104 580 l 2
 104 641 68 648 16 651 c 1
 16 676 l 1
 593 676 l 1
 593 475 l 1
 568 475 l 1
 544 627 463 642 326 642 c 0
 290 642 266 638 266 595 c 2
 266 363 l 1
 377 362 415 405 428 512 c 1
 454 512 l 1
 454 174 l 1
 428 174 l 1
 418 283 378 329 266 329 c 1
 266 87 l 2
 266 32 307 31 350 31 c 0
 482 31 563 86 613 208 c 1
 641 208 l 1
EndSplineSet
MinimumDistance: x12,-1 
EndChar
StartChar: Zeta
Encoding: 918 918 499
Width: 667
Flags: W
HStem: 0 35<225.031 349> 470 21G<59 87> 656 20G<80 604>
DStem: 410 641 604 660 28 16 225 35
Fore
634 241 m 1
 608 0 l 1
 28 0 l 1
 28 16 l 1
 410 641 l 1
 236 636 154 662 87 470 c 1
 59 470 l 1
 80 676 l 1
 604 676 l 1
 604 660 l 1
 225 35 l 1
 256 35 286 34 317 34 c 0
 485 34 566 69 608 241 c 1
 634 241 l 1
EndSplineSet
MinimumDistance: x8,-1 
EndChar
StartChar: Eta
Encoding: 919 919 500
Width: 778
Flags: W
HStem: 0 25<21 29.3333 349.667 358 419 427.333 750.667 759> 326 47<268 509> 651 25<21 31 341 358 419 436 742 759>
VStem: 106 162<80.2864 326 373 593> 509 162<80.2864 326 373 593>
Fore
759 0 m 1
 419 0 l 1
 419 25 l 1
 469 31 509 34 509 96 c 2
 509 326 l 1
 268 326 l 1
 268 96 l 2
 268 34 308 31 358 25 c 1
 358 0 l 1
 21 0 l 1
 21 25 l 1
 71 31 106 36 106 96 c 2
 106 580 l 2
 106 639 71 646 21 651 c 1
 21 676 l 1
 358 676 l 1
 358 651 l 1
 307 648 268 641 268 580 c 2
 268 373 l 1
 509 373 l 1
 509 580 l 2
 509 641 470 648 419 651 c 1
 419 676 l 1
 759 676 l 1
 759 651 l 1
 708 648 671 640 671 580 c 2
 671 96 l 2
 671 35 709 31 759 25 c 1
 759 0 l 1
EndSplineSet
MinimumDistance: x25,-1 
EndChar
StartChar: Theta
Encoding: 920 920 501
Width: 778
Flags: W
HStem: -19 33<370 404> 296 98<341.172 425> 658 33<371.104 404>
VStem: 35 177<316 366> 271 24<235.031 247.589 444 455> 481 24<235.031 247.589 444 455> 566 177<316 366>
Fore
743 336 m 0
 743 129 596 -19 389 -19 c 128
 182 -19 35 129 35 336 c 0
 35 542 183 691 389 691 c 128
 595 691 743 542 743 336 c 0
566 336 m 0
 566 450 542 658 389 658 c 128
 236 658 212 450 212 336 c 0
 212 217 229 14 389 14 c 128
 549 14 566 217 566 336 c 0
505 235 m 1
 481 235 l 1
 481 270 459 296 423 296 c 2
 353 296 l 2
 317 296 295 270 295 235 c 1
 271 235 l 1
 271 455 l 1
 295 455 l 1
 295 420 317 394 353 394 c 2
 423 394 l 2
 459 394 481 420 481 455 c 1
 505 455 l 1
 505 235 l 1
EndSplineSet
MinimumDistance: x0,-1 y17,19 y17,18 y16,14 y16,15 y11,13 y11,12 y10,8 y10,9 
EndChar
StartChar: Iota
Encoding: 921 921 502
Width: 389
Flags: W
HStem: 0 25<20 30.2 357 370> 651 25<20 37 343.5 370>
VStem: 113 162<80.3534 593>
Fore
370 0 m 1
 20 0 l 1
 20 25 l 1
 71 30 113 33 113 96 c 2
 113 580 l 2
 113 642 71 648 20 651 c 1
 20 676 l 1
 370 676 l 1
 370 651 l 1
 317 649 275 644 275 580 c 2
 275 96 l 2
 275 31 318 29 370 25 c 1
 370 0 l 1
EndSplineSet
MinimumDistance: x9,-1 
EndChar
StartChar: Kappa
Encoding: 922 922 503
Width: 778
Flags: W
HStem: 0 25<30 40.2 358.667 367 433 463 750 769> 651 25<30 47.3333 354 368 447 470 719.125 736>
VStem: 117 162<80.1315 292 345 582>
Fore
769 0 m 1
 433 0 l 1
 433 25 l 1
 447 25 l 2
 460 25 512 25 512 46 c 0
 512 77 338 278 306 317 c 1
 279 292 l 1
 279 96 l 2
 279 35 317 31 367 25 c 1
 367 0 l 1
 30 0 l 1
 30 25 l 1
 81 30 117 34 117 96 c 2
 117 580 l 2
 117 641 82 648 30 651 c 1
 30 676 l 1
 368 676 l 1
 368 651 l 1
 298 646 279 632 279 559 c 2
 279 345 l 1
 496 563 l 2
 511 578 532 594 532 618 c 0
 532 653 470 650 447 651 c 1
 447 676 l 1
 736 676 l 1
 736 651 l 1
 601 643 502 513 415 424 c 1
 720 46 l 2
 732 31 750 26 769 25 c 1
 769 0 l 1
EndSplineSet
MinimumDistance: x6,-1 
EndChar
StartChar: Lambda
Encoding: 923 923 504
Width: 722
Flags: W
HStem: 0 25<200 212 365.021 396.64 668.333 689> 670 20G<329 357>
Fore
689 0 m 1
 365 0 l 1
 365 25 l 1
 393 26 445 23 445 64 c 0
 445 106 310 416 283 479 c 1
 261 423 130 96 130 68 c 0
 130 29 184 25 212 25 c 1
 212 0 l 1
 9 0 l 1
 9 25 l 1
 71 34 87 93 107 142 c 2
 329 690 l 1
 357 690 l 1
 580 164 l 2
 599 119 627 22 689 25 c 1
 689 0 l 1
EndSplineSet
EndChar
StartChar: Mu
Encoding: 924 924 505
Width: 944
Flags: W
HStem: 0 25<14 24 229.5 248 589 600.4 913.222 921> 651 25<16 29.25 907 921>
VStem: 105 42<100 589> 678 155<95 582>
DStem: 149 589 269 676 399 0 469 204 669 676 676 604 469 204 426 0
Fore
921 0 m 1
 589 0 l 1
 589 25 l 1
 646 30 678 34 678 100 c 2
 678 604 l 1
 676 604 l 1
 426 0 l 1
 399 0 l 1
 149 589 l 1
 147 589 l 1
 147 124 l 2
 147 47 174 29 248 25 c 1
 248 0 l 1
 14 0 l 1
 14 25 l 1
 74 31 105 36 105 105 c 2
 105 580 l 2
 105 643 69 647 16 651 c 1
 16 676 l 1
 269 676 l 1
 469 204 l 1
 669 676 l 1
 921 676 l 1
 921 651 l 1
 851 646 833 631 833 559 c 2
 833 117 l 2
 833 42 851 34 921 25 c 1
 921 0 l 1
EndSplineSet
MinimumDistance: x24,-1 
EndChar
StartChar: Nu
Encoding: 925 925 506
Width: 722
Flags: W
HStem: -18 21G<595 623> 0 25<16 24.1429 234.25 243> 651 25<19 49 486 500 692.857 701>
VStem: 104 44<103 524> 579 44<249 575>
DStem: 150 524 230 676 595 -18 577 249
Fore
701 651 m 1
 644 644 623 631 623 571 c 2
 623 -18 l 1
 595 -18 l 1
 150 524 l 1
 148 524 l 1
 148 124 l 2
 148 50 173 33 243 25 c 1
 243 0 l 1
 16 0 l 1
 16 25 l 1
 73 32 104 39 104 105 c 2
 104 579 l 1
 86 601 49 650 19 651 c 1
 19 676 l 1
 230 676 l 1
 577 249 l 1
 579 249 l 1
 579 552 l 2
 579 623 556 646 486 651 c 1
 486 676 l 1
 701 676 l 1
 701 651 l 1
EndSplineSet
MinimumDistance: x1,-1 
EndChar
StartChar: Xi
Encoding: 926 926 507
Width: 650
Flags: W
HStem: 0 147<140.048 507> 272 130<221.659 427> 444 20G<158 181 468 491> 526 147<140.265 507>
VStem: 58 23<223 232 441.063 457.812> 158 23<209.031 222.361 449.342 463.969> 468 23<209.031 222.361 449.342 463.969> 569 24<223 232 441.063 457.911>
Fore
593 441 m 1
 569 441 l 1
 569 486 549 526 499 526 c 2
 154 526 l 2
 103 526 81 488 81 441 c 1
 58 441 l 1
 58 673 l 1
 593 673 l 1
 593 441 l 1
491 209 m 1
 468 209 l 1
 468 240 452 272 417 272 c 2
 232 272 l 2
 197 272 181 240 181 209 c 1
 158 209 l 1
 158 464 l 1
 181 464 l 1
 181 431 195 402 232 402 c 2
 417 402 l 2
 454 402 468 431 468 464 c 1
 491 464 l 1
 491 209 l 1
593 0 m 1
 58 0 l 1
 58 232 l 1
 81 232 l 1
 81 185 102 147 154 147 c 2
 499 147 l 2
 550 147 569 186 569 232 c 1
 593 232 l 1
 593 0 l 1
EndSplineSet
MinimumDistance: x0,-1 y3,5 y3,4 y2,0 y2,1 y17,19 y17,18 y16,14 y16,15 y11,13 y11,12 y10,8 y10,9 y25,27 y25,26 y24,22 y24,23 
EndChar
StartChar: Omicron
Encoding: 927 927 508
Width: 778
Flags: W
HStem: -19 33<370 404> 658 33<371.104 404>
VStem: 35 177<316 366> 566 177<316 366>
Fore
743 336 m 0
 743 129 596 -19 389 -19 c 128
 182 -19 35 129 35 336 c 0
 35 542 183 691 389 691 c 128
 595 691 743 542 743 336 c 0
566 336 m 0
 566 450 542 658 389 658 c 128
 236 658 212 450 212 336 c 0
 212 217 229 14 389 14 c 128
 549 14 566 217 566 336 c 0
EndSplineSet
MinimumDistance: x0,-1 
EndChar
StartChar: Pi
Encoding: 928 928 509
Width: 812
Flags: W
HStem: 0 23<24 59 336.5 371 441 475.5 753 788> 642 34<343 473> 652 24<24 58.5 753.5 788>
VStem: 107 182<95 577> 524 181<95 577>
Fore
788 0 m 1
 441 0 l 1
 441 23 l 1
 510 25 524 40 524 109 c 2
 524 572 l 2
 524 627 506 642 452 642 c 2
 360 642 l 2
 299 642 289 611 289 557 c 2
 289 109 l 2
 289 40 302 25 371 23 c 1
 371 0 l 1
 24 0 l 1
 24 23 l 1
 94 25 107 39 107 109 c 2
 107 567 l 2
 107 637 93 650 24 652 c 1
 24 676 l 1
 788 676 l 1
 788 652 l 1
 719 650 705 637 705 567 c 2
 705 109 l 2
 705 39 718 25 788 23 c 1
 788 0 l 1
EndSplineSet
MinimumDistance: x19,-1 
EndChar
StartChar: Rho
Encoding: 929 929 510
Width: 611
Flags: W
HStem: 0 25<341 350> 303 35<262.125 305> 641 35<303 321> 651 25<16 29.6>
VStem: 100 162<95 303 338 577> 428 172<479 513>
Fore
600 492 m 0
 600 308 398 304 262 303 c 1
 262 117 l 2
 262 41 278 33 350 25 c 1
 350 0 l 1
 16 0 l 1
 16 25 l 1
 85 36 100 44 100 117 c 2
 100 559 l 2
 100 627 84 646 16 651 c 1
 16 676 l 1
 338 676 l 2
 459 676 600 640 600 492 c 0
428 489 m 0
 428 576 411 641 310 641 c 0
 287 641 262 634 262 606 c 2
 262 338 l 1
 273 338 l 2
 388 338 428 372 428 489 c 0
EndSplineSet
MinimumDistance: x0,-1 
EndChar
StartChar: Sigma
Encoding: 931 931 511
Width: 650
Flags: W
HStem: 0 142<162 477> 478 21G<575 605> 639 34<210 413>
DStem: 258 305 384 390 12 33 162 142
Fore
621 237 m 1
 596 0 l 1
 12 0 l 1
 12 33 l 1
 258 305 l 1
 12 628 l 1
 12 673 l 1
 592 673 l 1
 605 478 l 1
 575 478 l 1
 559 587 499 639 389 639 c 2
 210 639 l 1
 384 390 l 1
 162 142 l 1
 440 142 l 2
 510 142 588 149 593 237 c 1
 621 237 l 1
EndSplineSet
MinimumDistance: x12,-1 
EndChar
StartChar: Tau
Encoding: 932 932 512
Width: 667
Flags: W
HStem: 0 25<156 170.8 494.25 513> 475 21G<31 60 607 636> 656 20G<34 634>
VStem: 253 162<95 644>
Fore
636 475 m 1
 607 475 l 1
 593 597 534 638 415 644 c 1
 415 117 l 2
 415 35 438 29 513 25 c 1
 513 0 l 1
 156 0 l 1
 156 25 l 1
 230 30 253 36 253 117 c 2
 253 644 l 1
 134 638 75 598 60 475 c 1
 31 475 l 1
 34 676 l 1
 634 676 l 1
 636 475 l 1
EndSplineSet
MinimumDistance: x2,-1 
EndChar
StartChar: Upsilon
Encoding: 933 933 513
Width: 722
Flags: W
HStem: 0 18<197.063 223.457 515 541> 519 119<84.0313 95.2177> 644 32<99 117 611 631>
VStem: 20 128<575 593> 287 164<67.6002 369> 591 128<575 593>
Fore
719 584 m 0
 719 549 690 519 655 519 c 128
 620 519 591 548 591 583 c 0
 591 621 618 643 655 638 c 1
 647 643 638 644 629 644 c 0
 489 644 451 461 451 351 c 2
 451 82 l 2
 451 24 494 18 541 18 c 1
 541 0 l 1
 197 0 l 1
 197 18 l 1
 244 18 287 24 287 82 c 2
 287 352 l 2
 287 460 250 644 111 644 c 0
 102 644 92 643 84 638 c 1
 122 638 148 625 148 583 c 0
 148 548 119 519 84 519 c 128
 49 519 20 549 20 584 c 0
 20 644 54 676 114 676 c 0
 235 676 331 526 367 425 c 1
 406 525 504 676 625 676 c 0
 685 676 719 644 719 584 c 0
EndSplineSet
MinimumDistance: x0,-1 x11,9 x11,10 x6,8 x6,7 
EndChar
StartChar: Phi
Encoding: 934 934 514
Width: 868
Flags: W
HStem: 0 23<271 336 271.063 291.643 532 597 579 596> 530 29<339 348 520.125 536.276> 649 24<274 332 274.063 290.983 535 594 579 594>
VStem: 52 176<321 353> 348 172<95 122 150 529> 640 176<321 353>
Fore
816 344 m 0
 816 177 659 129 520 122 c 1
 520 112 l 1
 519 54 532 22 597 23 c 1
 597 0 l 1
 271 0 l 1
 271 23 l 1
 336 22 349 54 348 112 c 1
 348 122 l 1
 209 129 52 177 52 344 c 0
 52 496 220 559 348 559 c 1
 349 611 332 650 274 649 c 1
 274 673 l 1
 594 673 l 1
 594 649 l 1
 535 650 518 611 520 559 c 1
 648 559 816 495 816 344 c 0
640 322 m 0
 640 404 630 530 520 530 c 1
 520 150 l 1
 612 150 640 246 640 322 c 0
348 150 m 1
 348 530 l 1
 238 530 228 404 228 322 c 0
 228 246 255 150 348 150 c 1
EndSplineSet
MinimumDistance: x0,-1 
EndChar
StartChar: Chi
Encoding: 935 935 515
Width: 722
Flags: W
HStem: 0 25<252.5 266 359 382 682.667 699> 651 25<17 37 339 363 438 450.5 676.818 688>
Fore
699 0 m 1
 359 0 l 1
 359 25 l 1
 382 26 439 23 439 57 c 128
 439 91 341 233 317 271 c 1
 289 235 185 105 185 67 c 0
 185 30 239 27 266 25 c 1
 266 0 l 1
 16 0 l 1
 16 25 l 1
 61 32 91 44 120 81 c 2
 295 302 l 1
 97 593 l 2
 76 624 57 649 17 651 c 1
 17 676 l 1
 363 676 l 1
 363 651 l 1
 339 650 284 655 284 618 c 0
 284 589 375 463 396 431 c 1
 424 469 510 573 510 616 c 0
 510 652 463 649 438 651 c 1
 438 676 l 1
 688 676 l 1
 688 651 l 1
 565 640 485 486 420 394 c 1
 602 111 l 2
 625 75 650 28 699 25 c 1
 699 0 l 1
EndSplineSet
EndChar
StartChar: Psi
Encoding: 936 936 516
Width: 868
Flags: W
HStem: 0 23<271 344 271.063 288.209 524 597 588 596> 215 29<332 348 520 526> 649 24<274 334 274.063 288.433 534 594 588 594>
VStem: 348 172<95 215 244 577>
Fore
855 653 m 1
 850 655 844 656 839 656 c 0
 814 656 802 631 801 609 c 1
 796 430 l 1
 791 268 663 215 520 215 c 1
 520 122 l 2
 520 60 524 24 597 23 c 1
 597 0 l 1
 271 0 l 1
 271 23 l 1
 344 24 348 60 348 122 c 2
 348 215 l 1
 204 215 77 268 72 430 c 1
 66 609 l 2
 65 638 44 666 13 653 c 1
 13 681 l 1
 34 685 55 690 77 690 c 0
 262 690 242 541 242 406 c 0
 242 327 249 246 348 244 c 1
 348 559 l 2
 348 612 334 648 274 649 c 1
 274 673 l 1
 594 673 l 1
 594 649 l 1
 534 648 520 613 520 559 c 2
 520 244 l 1
 650 247 625 395 625 485 c 0
 625 606 650 690 791 690 c 0
 813 690 834 685 855 681 c 1
 855 653 l 1
EndSplineSet
MinimumDistance: x4,-1 
EndChar
StartChar: uni03A9
Encoding: 937 937 517
Width: 811
Flags: W
HStem: 0 125<151 315 496 665> 656 34<391 425>
VStem: 56 189<415 449> 315 34<125 182> 462 34<125 182> 566 190<415 449>
Fore
756 424 m 0
 756 282 623 199 496 181 c 1
 496 125 l 1
 641 125 l 2
 680 125 726 126 722 180 c 1
 746 180 l 1
 746 0 l 1
 462 0 l 1
 462 215 l 1
 552 249 566 358 566 441 c 0
 566 540 522 656 406 656 c 128
 290 656 245 540 245 441 c 0
 245 358 259 249 349 215 c 1
 349 0 l 1
 65 0 l 1
 65 180 l 1
 89 180 l 1
 85 126 132 125 171 125 c 2
 315 125 l 1
 315 181 l 1
 188 199 56 282 56 424 c 0
 56 618 239 690 406 690 c 0
 572 690 756 618 756 424 c 0
EndSplineSet
MinimumDistance: x0,-1 
EndChar
StartChar: Iotadieresis
Encoding: 938 938 518
Width: 0
Flags: W
HStem: 0 25<20 30.2 357 370> 651 25<20 37 343.5 370> 722 127<99 115 274 293>
VStem: 41 127<783 789> 113 162<80.3534 593> 221 127<783 789>
Fore
348 786 m 0
 348 752 319 722 285 722 c 0
 250 722 221 751 221 786 c 0
 221 820 251 849 285 849 c 128
 319 849 348 820 348 786 c 0
168 786 m 0
 168 751 139 722 104 722 c 0
 70 722 41 752 41 786 c 128
 41 820 70 849 104 849 c 128
 138 849 168 820 168 786 c 0
370 0 m 1
 20 0 l 1
 20 25 l 1
 71 30 113 33 113 96 c 2
 113 580 l 2
 113 642 71 648 20 651 c 1
 20 676 l 1
 370 676 l 1
 370 651 l 1
 317 649 275 644 275 580 c 2
 275 96 l 2
 275 31 318 29 370 25 c 1
 370 0 l 1
EndSplineSet
EndChar
StartChar: Upsilondieresis
Encoding: 939 939 519
Width: 722
Flags: W
HStem: 0 18<187.063 213.457 505 531> 519 119<74.0313 85.2177> 644 32<89 107 601 621> 722 127<249 255 457 463>
VStem: 10 128<575 593> 190 127<783 789> 277 164<67.6002 369> 398 126<783 789> 581 128<575 593>
Fore
524 786 m 0
 524 752 495 722 461 722 c 128
 427 722 398 752 398 786 c 128
 398 820 427 849 461 849 c 128
 495 849 524 820 524 786 c 0
317 786 m 0
 317 751 288 722 253 722 c 0
 219 722 190 752 190 786 c 128
 190 820 219 849 253 849 c 128
 287 849 317 820 317 786 c 0
709 584 m 0
 709 549 680 519 645 519 c 128
 610 519 581 548 581 583 c 0
 581 621 608 643 645 638 c 1
 637 643 628 644 619 644 c 0
 479 644 441 461 441 351 c 2
 441 82 l 2
 441 24 484 18 531 18 c 1
 531 0 l 1
 187 0 l 1
 187 18 l 1
 234 18 277 24 277 82 c 2
 277 352 l 2
 277 460 240 644 101 644 c 0
 92 644 82 643 74 638 c 1
 112 638 138 625 138 583 c 0
 138 548 109 519 74 519 c 128
 39 519 10 549 10 584 c 0
 10 644 44 676 104 676 c 0
 225 676 321 526 357 425 c 1
 396 525 494 676 615 676 c 0
 675 676 709 644 709 584 c 0
EndSplineSet
MinimumDistance: x8,-1 x19,17 x19,18 x14,16 x14,15 
EndChar
StartChar: upsilondieresistonos
Encoding: 944 944 524
Width: 550
Flags: W
HStem: -13 58<263 321> 557 127<135 153 423 433> 557 217<272 300>
VStem: 8 29<343.063 358.83> 82 127<610 628> 94 153<146 212 258 324> 241 90<722 740> 359 131<310 408> 363 127<610 628>
Fore
490 621 m 0
 490 587 461 557 427 557 c 0
 392 557 363 586 363 621 c 0
 363 655 393 684 427 684 c 128
 461 684 490 655 490 621 c 0
331 735 m 0
 331 675 311 616 300 557 c 1
 272 557 l 1
 261 616 241 675 241 735 c 0
 241 768 261 774 290 774 c 0
 315 774 331 761 331 735 c 0
209 621 m 0
 209 587 180 557 146 557 c 0
 111 557 82 586 82 621 c 0
 82 655 112 684 146 684 c 128
 180 684 209 655 209 621 c 0
490 310 m 0
 490 162 443 -13 263 -13 c 0
 153 -13 94 60 94 166 c 2
 94 372 l 2
 94 386 93 417 72 417 c 0
 44 417 37 363 37 343 c 1
 8 343 l 1
 8 423 47 474 130 474 c 0
 279 474 247 281 247 183 c 0
 247 129 248 45 321 45 c 0
 397 45 431 114 431 181 c 0
 431 275 359 343 359 408 c 0
 359 438 379 474 413 474 c 0
 491 474 490 365 490 310 c 0
EndSplineSet
MinimumDistance: x0,-1 
EndChar
StartChar: alpha
Encoding: 945 945 525
Width: 605
Flags: W
HStem: -13 35<252 267> -13 97<500 510> 435 39<247 265> 441 20G<401 541>
VStem: 37 152<184 244>
Fore
588 133 m 1
 583 84 570 -13 504 -13 c 0
 449 -13 428 73 421 115 c 1
 419 115 l 1
 386 50 333 -13 254 -13 c 0
 111 -13 37 102 37 235 c 0
 37 351 124 474 248 474 c 0
 330 474 357 412 370 342 c 1
 372 342 l 1
 401 461 l 1
 541 461 l 1
 440 153 l 1
 451 124 471 84 507 84 c 0
 534 84 554 109 559 133 c 1
 588 133 l 1
346 227 m 0
 346 283 345 435 264 435 c 0
 179 435 189 243 189 185 c 0
 189 137 191 22 261 22 c 4
 339 22 346 172 346 227 c 0
EndSplineSet
MinimumDistance: x16,-1 
EndChar
StartChar: beta
Encoding: 946 946 526
Width: 550
Flags: W
HStem: 349.95 53.2<246 252> 358.5 38<285 295> 651.1 27.55<262 279>
VStem: 55.7305 135.34<-200 57 67 409> 228.44 83.83<378 382> 332.47 140.39<503 537> 360.75 161.6<167 201>
Fore
522.35 177.05 m 0
 522.35 73.5 448.62 -24.3496 331.46 -24.3496 c 0
 268.84 -24.3496 208.24 -1.5498 193.09 61.1504 c 1
 191.07 61.1504 l 1
 191.07 -200 l 1
 55.7305 -200 l 1
 55.7305 373.7 l 2
 55.7305 510.5 93.0996 678.65 273.89 678.65 c 0
 369.84 678.65 472.86 637.8 472.86 533.3 c 0
 472.86 439.25 400.14 400.3 312.27 381.3 c 1
 312.27 379.4 l 1
 438.52 363.25 522.35 303.4 522.35 177.05 c 0
360.75 128.6 m 2
 360.75 209.35 l 2
 360.75 251.15 357.72 358.5 293.08 358.5 c 0
 277.93 358.5 263.79 349.95 248.64 349.95 c 0
 234.5 349.95 228.44 368 228.44 378.45 c 0
 228.44 389.85 237.53 403.15 250.66 403.15 c 0
 262.78 403.15 274.9 396.5 287.02 396.5 c 0
 332.47 396.5 332.47 476.3 332.47 504.8 c 0
 332.47 547.55 334.49 651.1 268.84 651.1 c 0
 193.09 651.1 191.07 512.4 191.07 463 c 2
 191.07 68.75 l 1
 222.38 68.75 l 1
 225.41 45 251.67 19.3496 277.93 19.3496 c 0
 346.61 19.3496 360.75 75.4004 360.75 128.6 c 2
EndSplineSet
MinimumDistance: x0,-1 
EndChar
StartChar: gamma
Encoding: 947 947 527
Width: 550
Flags: W
HStem: 338 136<109 122>
VStem: 28 34<275.062 289.25> 198 154<-146 -130>
Fore
523 410 m 0
 523 340 351 116 304 48 c 1
 329 -8 352 -71 352 -133 c 0
 352 -180 327 -231 274 -231 c 0
 223 -231 198 -191 198 -144 c 0
 198 -71 232 -7 274 50 c 1
 254 128 216 338 110 338 c 0
 75 338 62 305 62 275 c 1
 28 275 l 1
 28 338 33 474 122 474 c 0
 246 474 278 177 296 87 c 1
 298 87 l 1
 329 150 350 217 357 287 c 0
 363 353 370 474 462 474 c 0
 505 474 523 452 523 410 c 0
EndSplineSet
MinimumDistance: x2,-1 
EndChar
StartChar: delta
Encoding: 948 948 528
Width: 550
Flags: W
HStem: -13.4502 27.5498<270 278> 656.3 33.25<246 263>
VStem: 37.7197 160.59<185 225> 110.44 89.89<584.1 608.8> 346.78 166.65<214 259>
Fore
513.43 236.4 m 0
 513.43 101.5 423.54 -13.4502 272.04 -13.4502 c 0
 143.77 -13.4502 37.7197 79.6504 37.7197 202.2 c 0
 37.7197 311.45 111.45 412.15 235.68 412.15 c 0
 260.93 412.15 287.19 406.45 311.43 398.85 c 1
 313.45 400.75 l 1
 235.68 439.7 110.44 485.3 110.44 584.1 c 0
 110.44 653.45 183.16 689.55 248.81 689.55 c 0
 326.58 689.55 380.11 647.75 418.49 587.9 c 1
 384.15 573.65 l 1
 365.97 620.2 315.47 656.3 261.94 656.3 c 0
 227.6 656.3 200.33 644.9 200.33 608.8 c 0
 200.33 544.2 513.43 478.65 513.43 236.4 c 0
346.78 216.45 m 1
 346.78 223.1 l 2
 346.78 267.75 344.76 384.6 275.07 384.6 c 0
 202.35 384.6 198.31 288.65 198.31 239.25 c 2
 198.31 187 l 2
 198.31 138.55 200.33 14.0996 275.07 14.0996 c 0
 344.76 14.0996 346.78 125.25 346.78 169.9 c 2
 346.78 216.45 l 1
EndSplineSet
MinimumDistance: x0,-1 
EndChar
StartChar: epsilon
Encoding: 949 949 529
Width: 440
Flags: W
HStem: 230 39<226 245> 440 34<225 251>
VStem: 36 149<114 132> 46 144<338 355>
Fore
431 103 m 1
 378 12 315 -13 213 -13 c 0
 123 -13 36 26 36 128 c 0
 36 206 100 238 168 248 c 1
 168 249 l 1
 108 251 46 285 46 352 c 0
 46 443 151 474 226 474 c 4
 277 474 408 461 408 391 c 0
 408 368 391 343 366 343 c 0
 288 343 316 440 249 440 c 0
 196 440 190 391 190 349 c 0
 190 317 194 269 236 269 c 0
 261 269 283 283 307 283 c 0
 329 283 345 271 345 248 c 0
 345 224 328 215 306 215 c 0
 280 215 258 230 232 230 c 0
 189 230 185 160 185 130 c 0
 185 66 216 33 281 33 c 0
 334 33 382 72 403 119 c 1
 431 103 l 1
EndSplineSet
MinimumDistance: x10,-1 
EndChar
StartChar: zeta
Encoding: 950 950 530
Width: 495
Flags: W
HStem: -180.5 90.25<253 285.07> -13.2998 137.75<235 269> -9.5 137.75<331 355> 485.45 107.35<294.16 349.71> 661.2 25.65<199.433 215.38>
VStem: 44.6904 73.7296<597 609> 66.9102 53.5298<195 237.5>
Fore
477.98 -9.5 m 0
 477.98 -112.1 391.12 -180.5 285.07 -180.5 c 0
 255.78 -180.5 203.26 -171 203.26 -134.9 c 0
 203.26 -104.5 223.46 -90.25 254.77 -90.25 c 0
 292.14 -90.25 326.48 -108.3 363.85 -108.3 c 0
 393.14 -108.3 430.51 -92.1504 430.51 -59.8496 c 0
 430.51 -15.2002 393.14 -9.5 353.75 -9.5 c 0
 321.43 -9.5 289.11 -13.2998 256.79 -13.2998 c 0
 109.33 -13.2998 66.9102 65.5498 66.9102 196.65 c 0
 66.9102 306.85 106.3 417.05 183.06 500.65 c 1
 125.49 510.15 44.6904 545.3 44.6904 609.9 c 0
 44.6904 666.9 119.43 688.75 168.92 688.75 c 0
 184.07 688.75 200.23 687.8 215.38 686.85 c 1
 215.38 661.2 l 1
 172.96 661.2 118.42 647.9 118.42 598.5 c 0
 118.42 556.7 169.93 530.1 208.31 523.45 c 1
 246.69 557.65 294.16 592.8 349.71 592.8 c 0
 383.04 592.8 425.46 581.4 425.46 543.4 c 0
 425.46 491.15 333.55 485.45 294.16 485.45 c 0
 270.93 485.45 248.71 488.3 226.49 492.1 c 1
 159.83 422.75 120.44 331.55 120.44 237.5 c 0
 120.44 155.8 153.77 124.45 238.61 124.45 c 0
 272.95 124.45 306.28 128.25 340.62 128.25 c 0
 428.49 128.25 477.98 70.2998 477.98 -9.5 c 0
EndSplineSet
MinimumDistance: x20,-1 
EndChar
StartChar: eta
Encoding: 951 951 531
Width: 605
Flags: W
HStem: 0 21G<96 250>
VStem: 96 154<0 282> 374 155<-231 346>
Fore
529 -231 m 1
 374 -231 l 1
 374 327 l 2
 374 356 374 406 334 406 c 4
 282 406 250 321 250 278 c 2
 250 0 l 1
 96 0 l 1
 96 374 l 2
 96 390 94 411 73 411 c 0
 49 411 39 353 38 335 c 1
 9 335 l 1
 9 401 59 474 130 474 c 0
 216 474 233 415 240 342 c 1
 242 342 l 1
 263 419 326 474 407 474 c 0
 476 474 529 429 529 358 c 2
 529 -231 l 1
EndSplineSet
MinimumDistance: x0,-1 
EndChar
StartChar: theta
Encoding: 952 952 532
Width: 550
Flags: W
HStem: -13 29<264.279 278> 337 45<213 337> 667 29<264.279 278>
Fore
501 342 m 0
 501 207 444 -13 275 -13 c 0
 107 -13 50 208 50 342 c 0
 50 475 108 696 275 696 c 0
 443 696 501 476 501 342 c 0
337 382 m 1
 337 434 338 486 338 539 c 0
 338 582 336 667 275 667 c 0
 215 667 213 581 213 539 c 0
 213 487 214 434 214 382 c 1
 337 382 l 1
337 337 m 1
 214 337 l 1
 214 273 213 208 213 144 c 0
 213 102 215 16 275 16 c 0
 336 16 338 101 338 144 c 0
 338 209 337 273 337 337 c 1
EndSplineSet
EndChar
StartChar: iota
Encoding: 953 953 533
Width: 330
Flags: W
HStem: 441 20G<65 220>
VStem: 65 155<98 461> 289 29<130 148>
Fore
318 148 m 1
 318 55 279 -13 178 -13 c 0
 110 -13 65 39 65 105 c 2
 65 461 l 5
 220 461 l 1
 220 78 l 2
 220 64 223 45 241 45 c 0
 286 45 289 116 289 148 c 1
 318 148 l 1
EndSplineSet
MinimumDistance: x0,-1 
EndChar
StartChar: kappa
Encoding: 954 954 534
Width: 608
Flags: W
HStem: 0 17<286.015 305.56 560 578> 420 27<17 84 17.0625 29.2822>
VStem: 58 155<0 187 273 385>
Fore
579 0 m 1
 286 0 l 1
 286 17 l 1
 298 17 330 17 330 35 c 0
 330 50 230 167 213 187 c 1
 213 0 l 1
 58 0 l 1
 59 371 l 1
 59 401 51 420 17 420 c 1
 17 447 l 1
 84 448 150 459 213 481 c 1
 213 273 l 1
 278 337 346 399 418 455 c 0
 444 475 467 486 501 486 c 0
 534 486 560 460 560 427 c 128
 560 394 534 368 501 368 c 0
 461 368 452 402 423 402 c 0
 388 402 322 329 297 304 c 1
 477 78 l 2
 508 39 525 17 579 17 c 1
 579 0 l 1
EndSplineSet
MinimumDistance: x4,-1 
EndChar
StartChar: lambda
Encoding: 955 955 535
Width: 495
Flags: W
HStem: -12.9805 95.0606<400 413> -0.240234 21G<12 175> 598.54 95.06<142.133 157>
DStem: 282 273.18 255 520.14 333 76.2002 352 149.7
Fore
486 146.76 m 2
 486 92.8604 477 -12.9805 402 -12.9805 c 0
 356 -12.9805 342 41.9004 333 76.2002 c 2
 282 273.18 l 1
 280 273.18 l 1
 175 -0.240234 l 1
 12 -0.240234 l 1
 225 498.58 l 1
 215 533.86 202 598.54 154 598.54 c 0
 109 598.54 86 558.36 82 519.16 c 1
 53 519.16 l 1
 55 579.92 74 693.6 155 693.6 c 0
 225 693.6 242 570.12 255 520.14 c 2
 352 149.7 l 1
 359 121.28 369 82.0801 406 82.0801 c 0
 444 82.0801 457 132.06 457 161.46 c 1
 486 161.46 l 1
 486 146.76 l 2
EndSplineSet
MinimumDistance: x13,-1 
EndChar
StartChar: uni03BC
Encoding: 956 956 536
Width: 605
Flags: W
HStem: 441 20G<65 220 344 498>
VStem: 49 112<-154 -148> 65 155<120 461> 344 154<216 461>
Fore
587 131 m 1
 580 60 542 -13 461 -13 c 0
 382 -13 358 57 353 124 c 1
 351 124 l 1
 332 51 281 -13 200 -13 c 0
 147 -13 115 17 96 64 c 1
 94 64 l 1
 94 52 l 2
 94 -38 161 -93 161 -152 c 0
 161 -185 143 -215 107 -215 c 0
 72 -215 49 -184 49 -151 c 0
 49 -114 56 -78 59 -42 c 0
 73 124 65 295 65 461 c 1
 220 461 l 1
 220 131 l 2
 220 98 223 58 266 58 c 0
 337 58 344 199 344 249 c 2
 344 461 l 1
 498 461 l 1
 498 88 l 2
 498 73 498 50 519 50 c 0
 549 50 557 109 558 131 c 1
 587 131 l 1
EndSplineSet
MinimumDistance: x18,-1 
EndChar
StartChar: nu
Encoding: 957 957 537
Width: 495
Flags: W
HStem: -13 21G<231 265>
VStem: 370 102<319 423>
DStem: 98 344 231 384 185 112 314 160
Fore
472 422 m 0
 472 356 279 62 265 -13 c 1
 231 -13 l 1
 220 30 201 70 185 112 c 2
 98 344 l 1
 93 356 83 394 67 394 c 0
 42 394 39 337 38 320 c 1
 9 320 l 1
 10 394 42 474 128 474 c 0
 185 474 213 432 231 384 c 2
 314 160 l 1
 334 205 370 271 370 320 c 0
 370 356 359 391 359 427 c 0
 359 456 390 474 416 474 c 0
 450 474 472 458 472 422 c 0
EndSplineSet
MinimumDistance: x0,-1 
EndChar
StartChar: xi
Encoding: 958 958 538
Width: 495
Flags: W
HStem: -191.965 96.297<237 259> 1.64258 144.951<202 252> 293.573 114.542<308 334> 526.713 114.542<310 334>
VStem: 57.4316 57.8724<158.758 207.413> 102.765 38.582<431 449>
Fore
459.648 -2.41211 m 0
 459.648 -117.969 360.3 -191.965 257.093 -191.965 c 0
 226.228 -191.965 176.07 -186.897 176.07 -143.31 c 0
 176.07 -101.75 206.937 -95.668 239.73 -95.668 c 0
 274.455 -95.668 309.179 -105.805 343.902 -105.805 c 0
 376.697 -105.805 422.031 -87.5596 422.031 -47.0137 c 0
 422.031 1.64258 384.413 4.68359 347.761 4.68359 c 0
 301.462 4.68359 255.164 1.64258 208.865 1.64258 c 0
 114.339 1.64258 57.4316 58.4062 57.4316 158.758 c 0
 57.4316 230.727 93.1191 299.655 150.992 338.174 c 1
 119.162 361.487 102.765 394.938 102.765 435.484 c 0
 102.765 483.126 124.949 530.768 160.638 559.149 c 1
 122.056 571.313 43.9268 604.764 43.9268 655.446 c 0
 43.9268 726.401 107.588 738.565 161.603 738.565 c 0
 178.964 738.565 196.326 737.552 213.688 735.524 c 1
 213.688 711.197 l 1
 207.9 712.211 201.148 714.238 195.361 714.238 c 0
 155.815 714.238 121.091 694.979 121.091 649.364 c 0
 121.091 617.941 160.638 594.627 184.752 583.477 c 1
 226.228 614.9 276.384 641.255 328.47 641.255 c 0
 364.158 641.255 421.066 632.132 421.066 583.477 c 0
 421.066 537.862 352.583 526.713 319.788 526.713 c 0
 277.349 526.713 234.908 534.822 194.397 547.999 c 1
 167.39 520.631 141.347 485.153 141.347 443.594 c 0
 141.347 412.17 160.638 382.774 185.716 366.556 c 1
 230.085 393.925 280.242 408.115 332.327 408.115 c 0
 367.052 408.115 431.676 402.033 431.677 352.365 c 0
 431.677 300.669 345.831 293.573 310.143 293.573 c 0
 265.773 293.573 222.369 303.71 181.857 320.941 c 1
 142.312 293.573 115.304 259.109 115.304 207.413 c 0
 115.304 150.648 186.681 146.594 225.263 146.594 c 0
 259.021 146.594 291.816 151.662 324.611 151.662 c 0
 413.35 151.662 459.648 85.7754 459.648 -2.41211 c 0
EndSplineSet
MinimumDistance: x23,-1 
EndChar
StartChar: omicron
Encoding: 959 959 539
Width: 550
Flags: W
HStem: -13 29<262.522 278> 446 28<262.613 278>
VStem: 37 164<210 244> 349 165<210 244>
Fore
514 231 m 0
 514 92 415 -13 275 -13 c 128
 135 -13 37 93 37 231 c 0
 37 368 136 474 275 474 c 132
 414 474 514 369 514 231 c 0
349 307 m 2
 349 359 346 446 275 446 c 0
 205 446 201 358 201 307 c 2
 201 153 l 2
 201 102 205 16 275 16 c 128
 345 16 349 101 349 153 c 2
 349 307 l 2
EndSplineSet
MinimumDistance: x0,-1 
EndChar
StartChar: pi
Encoding: 960 960 540
Width: 605
Flags: W
VStem: 175 35<306 353> 320 133<82 180> 325 131<290 353>
Fore
570 498 m 1
 564 404 567 356 456 353 c 1
 456 263 453 173 453 83 c 0
 453 64 461 40 484 40 c 0
 527 40 531 125 533 155 c 1
 567 155 l 1
 561 62 545 -13 434 -13 c 0
 350 -13 320 51 320 126 c 0
 320 202 325 277 325 353 c 1
 210 353 l 1
 210 314 l 2
 210 242 210 -13 102 -13 c 0
 48 -13 26 36 26 83 c 0
 26 99 27 115 28 131 c 1
 60 131 l 1
 60 111 64 72 91 72 c 0
 175 72 175 295 175 353 c 1
 123 353 l 2
 89 353 73 345 67 310 c 1
 39 310 l 1
 47 443 70 474 206 474 c 0
 302 474 398 464 494 464 c 0
 517 464 540 472 542 498 c 1
 570 498 l 1
EndSplineSet
MinimumDistance: x1,-1 
EndChar
StartChar: rho
Encoding: 961 961 541
Width: 550
Flags: W
HStem: -13 29<262 284> 446 28<262 277>
VStem: 43 134<-202 13 51 199> 371 137<213 247>
Fore
508 231 m 0
 508 94 416 -13 275 -13 c 0
 241 -13 207 -4 177 13 c 1
 177 -202 l 5
 43 -202 l 5
 43 168 l 2
 43 329 86 474 275 474 c 0
 415 474 508 368 508 231 c 0
371 231 m 0
 371 300 359 446 264 446 c 0
 180 446 177 300 177 241 c 2
 177 52 l 1
 205 31 240 16 275 16 c 0
 367 16 371 167 371 231 c 0
EndSplineSet
MinimumDistance: x0,-1 
EndChar
StartChar: sigma1
Encoding: 962 962 542
Width: 440
Flags: W
HStem: -192 97<182 201> 343 118<214 265 294 313>
VStem: 40 34<213 241> 364 48<-44 0> 391 29<480.397 489.875>
Fore
420 490 m 1
 420 329 355 343 226 343 c 0
 149 343 74 329 74 235 c 0
 74 115 196 145 275 145 c 0
 365 145 412 87 412 0 c 0
 412 -114 301 -192 194 -192 c 0
 159 -192 114 -180 114 -137 c 0
 114 -101 157 -95 184 -95 c 0
 221 -95 259 -102 296 -102 c 0
 332 -102 364 -84 364 -44 c 0
 364 21 258 -3 216 -3 c 0
 76 -3 40 85 40 214 c 0
 40 324 91 461 221 461 c 0
 261 461 300 458 340 458 c 0
 362 458 392 461 391 490 c 1
 420 490 l 1
EndSplineSet
MinimumDistance: x0,-1 
EndChar
StartChar: sigma
Encoding: 963 963 543
Width: 550
Flags: W
HStem: -13 29<257 263>
VStem: 333 154<210 244>
Fore
537 374 m 1
 486 375 433 376 385 396 c 1
 383 394 l 1
 439 359 487 300 487 231 c 0
 487 89 408 -13 260 -13 c 0
 113 -13 34 90 34 231 c 0
 34 368 135 474 273 474 c 0
 323 474 373 464 423 464 c 0
 461 464 499 467 537 474 c 1
 537 374 l 1
333 263 m 2
 333 314 332 417 260 417 c 0
 190 417 188 320 188 270 c 0
 188 214 173 16 260 16 c 0
 332 16 333 145 333 194 c 2
 333 263 l 2
EndSplineSet
MinimumDistance: x3,-1 
EndChar
StartChar: tau
Encoding: 964 964 544
Width: 440
Flags: W
HStem: 355 113<281 342>
VStem: 138 144<94 355>
Fore
423 487 m 2
 423 376 388 355 282 355 c 1
 282 93 l 2
 282 68 284 45 315 45 c 0
 359 45 370 120 371 153 c 1
 400 153 l 1
 400 59 358 -13 256 -13 c 0
 175 -13 138 39 138 116 c 2
 138 361 l 1
 102 361 l 2
 62 361 39 355 37 310 c 1
 8 310 l 1
 11 413 29 474 146 474 c 0
 211 474 277 468 342 468 c 0
 363 468 396 470 394 499 c 1
 423 499 l 1
 423 487 l 2
EndSplineSet
MinimumDistance: x1,-1 
EndChar
StartChar: upsilon
Encoding: 965 965 545
Width: 550
Flags: W
HStem: -13 58<263 321>
VStem: 8 29<343.063 358.83> 94 153<146 212 258 324> 359 131<310 408>
Fore
490 310 m 0
 490 162 443 -13 263 -13 c 4
 153 -13 94 60 94 166 c 2
 94 372 l 2
 94 386 93 417 72 417 c 0
 44 417 37 363 37 343 c 1
 8 343 l 1
 8 423 47 474 130 474 c 0
 279 474 247 281 247 183 c 0
 247 129 248 45 321 45 c 0
 397 45 431 114 431 181 c 0
 431 275 359 343 359 408 c 0
 359 438 379 474 413 474 c 0
 491 474 490 365 490 310 c 0
EndSplineSet
MinimumDistance: x0,-1 
EndChar
StartChar: phi
Encoding: 966 966 546
Width: 660
Flags: W
VStem: 44 154<204 238> 462 155<204 238>
Fore
617 224 m 0
 617 83 502 -5 369 -13 c 1
 376 -211 l 1
 284 -211 l 1
 291 -13 l 1
 158 -5 44 84 44 224 c 0
 44 372 170 469 310 474 c 1
 316 586 l 5
 345 586 l 5
 350 474 l 1
 490 469 617 372 617 224 c 0
462 231 m 0
 462 310 456 438 352 446 c 1
 367 16 l 1
 458 26 462 163 462 231 c 0
308 446 m 1
 204 438 198 310 198 231 c 0
 198 163 203 26 293 16 c 1
 308 446 l 1
EndSplineSet
MinimumDistance: x0,-1 
EndChar
StartChar: chi
Encoding: 967 967 547
Width: 495
Flags: W
HStem: -211 106<389 397> 368 106<88 106> 441 20G<330 486>
VStem: 10 29<298.062 314.366>
DStem: 209 214 269 35 9 -196 164 -196 330 461 486 461 231 250 293 70
Fore
486 461 m 1
 293 70 l 1
 308 30 343 -105 395 -105 c 0
 439 -105 452 -65 454 -28 c 1
 483 -28 l 1
 479 -90 479 -211 391 -211 c 0
 312 -211 284 -24 271 35 c 1
 269 35 l 1
 164 -196 l 1
 9 -196 l 1
 209 214 l 1
 189 262 160 368 95 368 c 0
 53 368 39 335 39 298 c 1
 10 298 l 1
 10 355 18 474 97 474 c 0
 181 474 211 311 231 250 c 1
 330 461 l 1
 486 461 l 1
EndSplineSet
MinimumDistance: x0,-1 
EndChar
StartChar: psi
Encoding: 968 968 548
Width: 715
Flags: W
VStem: 9 29<341.063 362.808> 97 151<188 222 340 342> 532 127<346 414>
Fore
659 346 m 0
 659 200 600 22 439 -13 c 1
 447 -211 l 1
 346 -211 l 1
 355 -13 l 1
 225 -10 97 50 97 198 c 0
 97 247 98 297 98 346 c 0
 98 364 98 411 71 411 c 0
 40 411 38 363 38 341 c 1
 9 341 l 1
 9 417 43 474 125 474 c 0
 286 474 248 303 248 195 c 0
 248 111 262 32 358 16 c 1
 383 578 l 5
 411 578 l 5
 436 16 l 1
 521 34 579 126 579 210 c 0
 579 281 532 343 532 414 c 0
 532 442 549 474 581 474 c 0
 647 474 659 397 659 346 c 0
EndSplineSet
MinimumDistance: x0,-1 
EndChar
StartChar: omega
Encoding: 969 969 549
Width: 715
Flags: W
HStem: -13 35<217 248 467 498> 440 34<196 263 248 263 451 519 451.125 465.533>
VStem: 35 154<226 260> 321 73<105 148> 526 154<226 260>
Fore
680 246 m 0
 680 130 638 -13 498 -13 c 0
 416 -13 376 25 358 104 c 1
 356 104 l 1
 338 26 300 -13 217 -13 c 0
 77 -13 35 130 35 246 c 0
 35 387 122 474 263 474 c 1
 263 440 l 1
 196 441 189 369 189 318 c 2
 189 160 l 2
 189 121 191 22 248 22 c 0
 310 22 321 80 321 130 c 0
 321 196 289 257 289 323 c 0
 289 367 312 392 357 392 c 4
 403 392 426 369 426 323 c 0
 426 257 394 196 394 130 c 0
 394 80 405 22 467 22 c 0
 524 22 526 121 526 160 c 2
 526 318 l 2
 526 370 519 441 451 440 c 1
 451 474 l 1
 593 474 680 388 680 246 c 0
EndSplineSet
MinimumDistance: x0,-1 
EndChar
StartChar: iotadieresis
Encoding: 970 970 550
Width: 330
Flags: W
HStem: 441 20G<65 220> 557 127<52.2391 66 239 247>
VStem: 0 127<610 628> 65 155<98 461> 180 127<610 628> 289 29<130 148>
Fore
307 621 m 0
 307 587 278 557 244 557 c 0
 209 557 180 586 180 621 c 0
 180 655 210 684 244 684 c 128
 278 684 307 655 307 621 c 0
127 621 m 0
 127 586 98 557 63 557 c 0
 29 557 0 587 0 621 c 128
 0 655 29 684 63 684 c 128
 97 684 127 655 127 621 c 0
318 148 m 1
 318 55 279 -13 178 -13 c 0
 110 -13 65 39 65 105 c 2
 65 461 l 1
 220 461 l 1
 220 78 l 2
 220 64 223 45 241 45 c 0
 286 45 289 116 289 148 c 1
 318 148 l 1
EndSplineSet
MinimumDistance: x8,-1 
EndChar
StartChar: upsilondieresis
Encoding: 971 971 551
Width: 550
Flags: W
HStem: -13 58<263 321> 557 127<170.239 184 378.239 392>
VStem: 8 29<343.063 358.83> 94 153<146 212 258 324> 118 127<610 628> 326 126<610 628> 359 131<310 408>
Fore
452 621 m 0
 452 587 423 557 389 557 c 128
 355 557 326 587 326 621 c 128
 326 655 355 684 389 684 c 128
 423 684 452 655 452 621 c 0
245 621 m 0
 245 586 216 557 181 557 c 0
 147 557 118 587 118 621 c 128
 118 655 147 684 181 684 c 128
 215 684 245 655 245 621 c 0
490 310 m 0
 490 162 443 -13 263 -13 c 0
 153 -13 94 60 94 166 c 2
 94 372 l 2
 94 386 93 417 72 417 c 0
 44 417 37 363 37 343 c 1
 8 343 l 1
 8 423 47 474 130 474 c 0
 279 474 247 281 247 183 c 0
 247 129 248 45 321 45 c 0
 397 45 431 114 431 181 c 0
 431 275 359 343 359 408 c 0
 359 438 379 474 413 474 c 0
 491 474 490 365 490 310 c 0
EndSplineSet
MinimumDistance: x8,-1 
EndChar
StartChar: uni03DA
Encoding: 986 986 562
Width: 510
Flags: W
HStem: -185.65 89.6773<157.156 222.37> 540.861 93.577<331 369.394> 548.659 94.875<202 225>
Fore
445.544 664.329 m 1
 435.686 590.248 418.235 540.861 332.896 540.861 c 0
 296.499 540.861 257.708 548.659 221.312 548.659 c 0
 82.0078 548.659 23.665 419.993 66.0098 282.229 c 0
 128.328 79.4805 403.607 253.636 459.935 70.3828 c 0
 512.664 -101.172 366.695 -185.65 222.37 -185.65 c 0
 196.015 -185.65 131.609 -184.35 119.227 -144.061 c 0
 109.638 -112.869 129.547 -95.9727 157.156 -95.9727 c 0
 206.102 -95.9727 256.591 -133.664 305.536 -133.664 c 0
 375.816 -133.664 447.345 -76.4785 422.577 4.10059 c 0
 386.225 122.37 116.19 -36.1895 37.4941 219.845 c 0
 -12.4414 382.303 20.2168 643.534 204.702 643.534 c 0
 258.667 643.534 315.429 634.438 369.394 634.438 c 0
 397.004 634.438 418.85 640.936 429.229 664.329 c 1
 445.544 664.329 l 1
EndSplineSet
EndChar
StartChar: uni03DB
Encoding: 987 987 563
Width: 426
Flags: W
HStem: -194 69<90.0781 131.788> 365 72<301 342.71> 371 73<201 235> 440 20G<393.807 406.807>
Fore
406.807 460 m 5
 390.479 403 370.929 365 302.929 365 c 4
 273.929 365 243.91 371 214.91 371 c 4
 103.91 371 42.71 272 60.6982 166 c 4
 87.1689 10 326.432 144 350.357 3 c 4
 372.758 -129 246.788 -194 131.788 -194 c 4
 110.788 -194 59.6182 -193 54.3574 -162 c 4
 50.2852 -138 68.0781 -125 90.0781 -125 c 4
 129.078 -125 165 -154 204 -154 c 4
 260 -154 323.533 -110 313.012 -48 c 4
 297.569 43 64.2725 -79 30.8428 118 c 4
 9.63184 243 65.5225 444 212.522 444 c 4
 255.522 444 299.71 437 342.71 437 c 4
 364.71 437 382.861 442 393.807 460 c 5
 406.807 460 l 5
EndSplineSet
EndChar
